<mxfile host="app.diagrams.net" modified="2021-09-10T12:25:50.245Z" agent="5.0 (X11)" etag="zfYZSEQye5hQSjTbmBEA" version="15.1.4" type="github">
  <diagram id="zX1tc9X5MDtMi_Hmb5T3" name="Page-1">
    <mxGraphModel dx="723" dy="419" grid="1" gridSize="10" guides="1" tooltips="1" connect="1" arrows="1" fold="1" page="1" pageScale="1" pageWidth="850" pageHeight="1100" math="0" shadow="0">
      <root>
        <mxCell id="0" />
        <mxCell id="1" parent="0" />
        <mxCell id="jyW5bUk0xT6YDR4Nz-Qm-13" style="edgeStyle=orthogonalEdgeStyle;rounded=0;orthogonalLoop=1;jettySize=auto;html=1;" edge="1" parent="1" source="jyW5bUk0xT6YDR4Nz-Qm-1" target="jyW5bUk0xT6YDR4Nz-Qm-6">
          <mxGeometry relative="1" as="geometry" />
        </mxCell>
        <mxCell id="jyW5bUk0xT6YDR4Nz-Qm-1" value="" style="shape=image;verticalLabelPosition=bottom;labelBackgroundColor=#ffffff;verticalAlign=top;aspect=fixed;imageAspect=0;image=data:image/png,iVBORw0KGgoAAAANSUhEUgAAASUAAAIICAYAAAAovfgCAAAgAElEQVR4nOydd1hT6bb/nXPuvefc3wQCSLD3HkRARUJ2qAEVSCB0QseCvc4odsWxjW3sHRtKGafdaU7TsevoKBYwdKR3nDlnZo6Cz/P9/bGTnWxS6ITg/uP7ELL7u/f+ZK31rne9vepTuWDEiBGj7qJe+j4BRowYMVIVAyVGjBh1KzFQYsSIUbcSAyVGjBh1KzFQYsSIUbcSAyVGjBh1KzFQYsSIUbcSAyVGjBh1KzFQYsSIUbcSAyVGjBh1KzFQYsSIUbcSAyVGjBh1KzFQYsSIUbcSAyVGjBh1KzFQYsSIUbcSAyVGjBh1KzFQYsSIUbcSAyVGjBh1KzFQYsSIUbcSA6UWqC6Fi+hF0/R+HowYvQ1ioNQCPY12wf4ER72fByNGb4MYKLVAGXwRPnKVoHzjFL2fCyNGPV0MlJpR9SEbyPgiHHGVQMYXIW+BQO/nxIhRTxYDpWZUtJQPGV+EC06+kPFFeMwXoXA248oxYtRZYqDUjG6EC3GHEOEHgQgP+SKk80V4whehcr+N3s+NEaOeqB4BpYodk5DjPRUyvkgpBxHuEMr/ORIpTWMkwXg+0wXlCXao/MgWtWfGa9z3Y/FUZPJFeM4XIVN1/3wR6pL1f+2MGPU0GTSU6i5Y0kEkl7dnEAWfNV5kLOipBjBxJFLcb7Jt5V5b2jEyXT1py580WV/fbcCIUU+TwUKpdMMUNRjxRMEawbNFSILpHqEZTPvcJLT9lG+2o44j45Num+rydL4I9wnScsoNd9V7WzBi1JNkkFAqWkLQIDHNK0gjbFa6+6us5w0ZX4RftIBpwdQAjWB6yhfhmfy7HxzFyOQrY0uP5d/Xntbs+jFixKj1Mjgola61p8DxqZOPRsB86SimASbL1QeVexehIEIKmTw+ZOEbqrbdHA9/2nZ1F7l4LHf9ZCpwkqn8/5xx4xgx6lAZHJQUQJiqwTpa4U6HiowQoWLXAlTuXUSpfMs8avlkDe7eMRe6K3eTULpsMnmwu2nAW8YXIUs0Ve9tw4hRT5DBQWmaZxBG+YTQQNLPNxQZTSBRunY2DUZNleVEWlOHXSVqYPpWbmlxJFL8QojwtaMYVwXkd5cdxZTF9FBuKT2Su3JMmgCjnqbyC5awj/Tr0mMaHJQ4EiksxUooLW7icu2d6ocxQWEYGRimEUbjg8MwMTQc/fykyPUPorYbJ6aDbqAP6d4p4lAyvggZ8t63dPlnBQif8EW4TYjwKyFCXYr+24gRo/aq6Px4DAkMxiFXpefQVcc2SChxJFJYiUPwk4AeOyrfMR+frZ+j00JqquKlMdT21wVicCRSKt4U5BkIGV9EHee5yrGey62jdJX/n/NFkDl76b2NGDFqj0YFB+EzJx+1EEW2Z9dUyjBYKHEkUkwSBUPGF6EwirSKPlkXhzcV93Dn1meI3LgWtT8lqkHoTcU9nL10EjEJ6/H4zBby+10LIXPzxZMmAfDTLuTQki9UbpACTJlyKN0jRHggD4Znyq2mygOMG8fIsFSTwgURLcG5S6fwpuKexvy/rrKWDBpKn6yjW0VVh9/Hm4p7tHVUl9d/ugePfvmSWmYTPYtaVrFnISr3LqJtq7gRF519td4khQv3iK8cgnKbYHrjGBmOhDN8sPnoHrypuEepofCGxuc9pws6dAwaSlOjIjVaQorlV3avUFt+7/bn1PIne5YrobR3ITJ3LNAIpZMu2qGkSZl8EfKDhHpvK0aGrcQlA/D//vEO/v63XujVS6l//s87+HHL0Hbv33eOCEt2b0Vj+V0akBTKnhqo4fn27vTrNmgocSRS9PUjraEsN1/InMSo3LsIhbMiUDgjHCUrZ6Jy7yK8mBuFyp0LULZpDooWRKMwLhJFi6JREBVG9tStmoWqQ2Fq+1bciH2ukmZB9FTl8xO5m6fvtmJkmNo9sy8NQrr03ebWw2nzOldI5nrjX1eiNcJIoVdZV/Tiwhk8lBQumqLBCmdFtDjIrdrQNYnuavt9nX8VLy+dwi635qGkqucqbp2+24uRYcnH3qjFQFIozMMC149ManbfybscYBfph1qVHuLfvhTqBJOm57uze5h7BJQKdi2kGowGHSexWoOqLi9UWEorZ6rt+7iLL96U3cGbins4mXocr5593yr3TcYX4aZAjMJVDnpvM0aGoeKzY1sFo7+zTUh3bvhoDPOToD6ViwfH6QPKH27lg/WP/0ZQdJjW4/71eI9WKBWEz1KHUpJlp7aDwUEpzdkXJ1wkNJ12k2i0hHL9gnRCidK+2ahP5aqt2/DiGl5lfYdDSYeVJm3GD8h2D2gxoBhriVFL1FrryMTZAyaO7jCb5guORIreXv7gWNPHYOZsCMMiZytY9TfDtHGDdB5fG5ReXkpUe55rEq06ty30fTNaK20vfslqoUbgFC2JQY6nP/L8g1Ap72Gj9dgdjNC470y+CA0lN/Gm4h52ndyn8YYVL17WIihldFF+ByPD1P/81zs04Aw0eRexvLH477//TSeYjLlW+DuL7u59snowPt9rj2GBwcjeFI4dPg7I2RCOws1Snefwx80lGp/xhoLras9z2Wpep7aHwUFJ4V6JPIOwWShBoosvEl188cU8N9SnclGxWx082lSXZKdx3wq9qbiHxrI72H5Mu3n7puIeao7v1wqkRwqT94L+245R99PRBf1pULm7PAAFmyKb1S9ryb+q2/5j6AiYi4JQmzIO9alcFH3oi/xNEcjfFIGacxObPZfWxJU6s00MFkpNNSXSD/lSf+0uWhPl+ASo+cbaoLTh0C40lt7WCaY3Fffw+zcXaMFuRcD7GV+EawLGjWOkLlWotARGqsrfFIF3//kPmLp7g2VrT+3n3X/+DfWpXJTtm0qtW7glpNlzYaDURp119kXktADwvekj/IVeZPyoICoOWU6+KN65QDuQxGRMqHL3Ntq+ed7BWOnuj1/lY90UNyXh6B68zv6xWSgpVH14D2R8MtNb0Qv3CyFC8VK+3tuvM/Vk1hRkEASezGCmomqJ1gZzKJBkrw9rNZQKNkXi7MIQja7dMt/eqDgmoK3b3Pn8J+N4i6FUfXRCp7WLwUFJm5uU5eyLvMBo6v99K+egcs9C5Hj7q62bLQzAi7lkSkDVR3Za9/2m4h4ay+/iXNoJ6gZpSzTTpLyAKOWYOIUb10Prej8U80kgEQQyCELv52MIUgAkZOJIChzP1oQ2C6Km62iLOeUftaGt15Ku/JZCKVfi3nntou8b01pxJFIM9QlF4PRA3CLUu/zzg6Lx++WLEARIkb56Nso+VFpMFbsWIm35TJWuzaPI9lBmqKruZ/5Uf7zOv4rGsju4deNTNBTfaJEL11Svs6/SgTi15wW9H86wR4YcRv9nL2Cg1AKFOrEpeDxfK0XBpkj8/Z13EDJxpE5X7r/+9g78rIfR1hGOGagVTKrbVhx1bva8WgqlznThDA5KX+8jXYNlK9yRtpuHxe97wN0rEFkuElTs2ILfPjuDAukM9PMPQ8WehSjYOAeVuzajeMsyFG+cg8H+YSjdsgm5kgiqcd1mBqDwvBVGBZOF49xn+uDrfVPwZ95lNBT8jPKsK3hTfhcNRTfQKM9daq1UrbieVD63NplLAekDe2fqs77Pq7tLEzg2TJ/cKtftznL/Zq0l1fULtwQ3e16tgVLFh80nbLapbfR9c9qjsMVkjsYDQr3BxvqEwMJPihe7FuK3z46h5vgqBC1eiBHSaBySZ2jnTAvCy0uJsIyMxZjwWMTEz6Tt/68n+9FQchOv86/iTSvcNq29dCf2kedHdP74oY5W7g7NlQ9uRBIUiDbyXBkotUDO4/+fGjierQ7FRO4I9OrVC5cSd6DggxiNIEqd64NevXrBTTAZCXODkbM+HAWbIvH9fDF69eoF9v/+j0Yo5a+LQP66iGbPTdNzm+Xqpzlk4ubZKe1jsFAKmB6AfgFhsPCTIsPRB5W7tuFV5o/4/askvM67hoP7d6CfP7n80IrZ6CORYmRYNPr4S7F3yVLaYMNhPqHo4y9FH38pvtqvDNL+6/sgvC68hsayO2govtFuKL2puIfXedfIXI9Ndnpru9aqOskSGQSB/AR1MF1ZGYUMgkAq35EC0gNXBkq6pMmauRkvpX3XWHpbI5RU13lTcY+2TLaODJafjRCiV69eCLQYpB7eCNGe2f3790Ean9n/PPmuS104g4SSzEUEmYuyjK2mxkqWl7nt6y+FRZOu/nkqM5eUb94Ey6AIallmk4Z+U34XrwuvyYHyE+1mNby43iYwNZbegYwQ670dW6pHzkprSKGH3mRP4s0oXzx2FGDaODdkEATuTHfF8/VKsz49iIfnYVNQ20MD/K3VcklvjVC6ujKM+t+JZ4vG8juthpJCR4Kd0Pd//im3ysUqlo0/stwDtJ7bn79s0PrMaoNS9RHrDm8jg4NSXZIlZAIxZIQIfX2VJWvLN23Ay8/Pou7cEVTu2IJni5aiX0A4OBIp+viF0f5umk4vyWATQEJpk5A0U+suKo935+anaCy/i9d5V9BYdoeMKZXfpWJLrwt+Jm9cG9y7F7O99N6eLZECREFjXHGdEFD/pwfx8G2gF9KnC3HCwRlPBQRk3+5GfSoXxUetkEEQSHQk40yTh7rp/Tq6g3TFfV6X3ELWnUt4U3EPJfsWawTO7zfO4+63iXhTcQ///iVNbfnw3sZ4p1cvOZDkMHL1g0ylJpi2c/vjfoLWZ7Vs3Vo1IOV1Unkeg4NS4Uw3yFz8UCCNxeppgWSVgB0faKQ4aSmRILLwU1pKN3ZtRdX+nchyJmNLivrciu1Klk2njseRSJXB7Sbgaci/isbS23iVQ+Ywvc5peS6TQvpuz9ZIASMvSyGuzQtGBkHg20AvPA8WI4MgUJx+Gj9PF0C21xYZBAF/KyG1DcfcHTm73+6KnAfm9NMIJRlfhJxZwRohJHMif4A1LcsOVKa7qFpSd+w8qDQZmWq8VeADmaP2eOZvXzjpfFYV+6n6yLZT28ngoJQXEIW84BjkBUVT4KF1uU8LIuURoJahPSFmFjgSKSouHkd+QBS1zWhxCPr5hkLGF+GPG59CplI5kiOR4lVmIt6U3aHcuIaSW+o3TQu4mlND0fd6b9OW6umqycqetvfmIIMg4DbZB6kRfvhVKsatWQF4dikExemn4TxSCaT5tq7gmLvjQVTnjpnq7vrHf7+jEUqnrXiQuYpb1OOW7eenBJbKc58THoiPZ0zD0H++q7SOVH+kCTFkhBg503WnpGgMN5Tdwr9+aD4jvKNkcFAic32CUBAVh6oDu7TGlBTAGqgSL+rjF4a+fmFq6w1XmbmEMnGTSV+ZI5Hi5ReOpOtWchON5XfRUHxT/eaV30VjyS3ybyvzmeo/maz3dtWmgu02uDNdPab0jbMjDmxYigmWvggR+KA4/TTuB3qhOP00Flm7UOs9EpBWEsfc/a3vldM1uDY/PlwriPLeC0Pu3BDInOjgylsaSrOUelFumxhZKpUsstz8kRsQCZnAB0XzBTrP8eXnArzOvoh/XYnRXzvp+0a1RtWHJqoBJXia9jIiHIkUo8JiYOFH9qxpC4wPUsSmBGKUrVuHqv27KH+ZIyFHVzeW38Xrwp9JKBX+jMaSW+rZ3eV3W5Xx3Z3duLoULp41AdFTgkC6PGv7GUGg4N5xWHHFcJ/giZuzAlD0KBFPVda/SQiwd7E96lO5GNhfCIH12x1X0gWlnxf7tipHqam+my/GhmFWyliSwm0jRMj1De/U3rIObyd9n0BrlOvvjhfzl+DFzPlUIy/10A2lPn5kWsCQ4EgllARiZHsEINsjAFlCf2XAvMmUTfWpXAwNlCecfTKZjBvJc5ZeZX2P1wU/U/EmNeuolXD6/VsfvbevqtKd6ED6nu+IBwKCGkqSfjweT46sxB1vdyTtWo7CBycpID0UEOBbu9IqHDLSDaV32jAgV1Wsv/+X+jsgUB/xoO82aFE76fsEWqMsF09aN2fRwiX4ctc2lKxaRev6VGhIMOm69fMPw+AgEkqDgiNQuXs76i8eR13SUdQlHdVoQb3KvoLMnXNwIn42SncvRH0qF3892qmMBRXfRGPZHbJXTg6gxrI7FJwaim+ScaamwXHVfKcmy/TdvgpVyfOSMggC90QE0h3V3bcMgsApnhNsBgsxa6Irrq6dhcdNlv/q17MHILdWuqDUq1cv/Nff3mkTkP7533/X+sNMxZw8Q5DlYhhpKAYFpexpQZARImS5KYN43zj60Ir2q6pfQBj6yXvf+gWQf9291KtRNoVSlosEbyru4f7WeZg7N4acnkl+Dq9y0pRBbRWwaHTbVNy5xrI7eCW7LA9u36CGrCiWN5TcxO9fT9db26qq+Nx4PIikB6UvJEyhYkMKnSWcsc3ZFdf5Amog7g+ujnQwuWiOI1Xss8KLw51bwbC7yWsyq1kw9erVC+nxIS2CUXp8MKxZJk0C2uSPdl5gFLLc/JHjGYIcbzL2VBJvGB0NBgUlmasfcv3CaTfhqkCMhxqGmcj4IghEwWo9cOunBaJ40VL8lX4ZLy8lomLrZjUoVR/dizcV93D9g/m4unkuWaFyn7Ib9M/0vVrdsMbS22goukEmXeb8gMbim3glu4xXz7+lINTU5WssvY1XuT+isfyO3ttYl56dsYHPAhHC7YVUvMltBJk0mSRw1mhNZRAEnkXZ0/bzRO4Gbuc3P0C0p+nZ4VF4pwVg8u7bH3nxmsuZ5K2Uaqw/r/hBzfYMRl5IDGTOvlTAOy8oWu/X3lIZDJRqz4wnXTQXCWQqM9b+KBDjBw2+s4wvwnIPfzUofeWoPh1xUyhV7NpGwWLjorkaffHfv/Wlhp9Q1k4R+VkBplfPv8Mr2Xd4nf0jGktvU8sU1QfIbcis8MaSW3iddwW/feGi97bWpP07nRES74PI90QUbNao9LJZDxFqhVIGQaD8NFlQTwGk1bYuyIx+u+suZR4ZhUDCGL169cI///Y3fGsnpD2XBZsikROpae61JrlHKj/K2dPknoCTLxlTEoiRJfQ3mHhSfaoBQal8y2SysZtA5TtHHyTNW4iieYtRGDMHL2YvQMXWzfjt8zO4m7BB61xuGqEk8CahtP0D/PngK7ypuIdPvjqH13k/az2vhsJv0VhyCw1FN/A6/woaCq/jdc6PaCi6rkymLL+L1wVXqZSBhhfX8TrvCgmn0ltoLLqB1zk/4tXzy3iV/aPe27qpNm0R4tkZMvGxdKMNBRrBCCWIRFwhLMyFODvRUSuYhg8R4ilB4CdXAX5xfLvTA1RVGCtUPtcqP7B5y6XqVtJy5TOc4xUCmcBHHtYgt8vzU1a/yPEOpfZbZUBTyRsMlLK9plLEl6nMWPuNow+k0zT/mjwgRGpQynKRoGz9WrzOu4bX+dfxOu8atezuQWXKQZaTL95U3MNPV9JQn6w7nf7l5wS9pIlqLEll7JymXrqGF9eo9RoKr+FVxreo/7hzM2bbo6rzyiD4JScn6jN38jSsj+ODY+6O7FPKWFH2XiXEPuI5I5brgg+dXZEuYKBUe9oKuX4RJFzkz11uAD0pUi3DW/79X/e/QpabHwrCZ6IwYhZyRVLI5AmTeUFRyA2Mou1H39faGhkMlHJ9wzV2cX7p5AOuOEQjlB6pWEEDg8I1WkpPVdY5uZVA8RICMr4Iv315DiUrVuJm2o4Wn+P+6Fn4M+MbKm2gseQW1SP36vll8q/sO3LqpueX8SrjW7ySfUdaWvLevDfld/HngwN6b29damoB3fEUIHq1N1x8p+OjD50RupLey5O+iwTT+zYuEI8hY1BlZ3pOTam2qDDWmbRimlj+eUHRyJWEo7H4NvmdmzJhUuZKPv9//foN3lTcQ0l8PPJDY5HtEUC6ae7+yAuKVrpwcpWtNay5Bw0GSlkegaSJ2gRMn7uIKdjkh8ZSkvHJ6bMVg3AnzoyDhZ86lNL5yjFy8fGkRVTyngOy3DzxIHU17h9vudWSzhfhC0cxVvqHoyr7ChUrUrWiGotvUpZUQzGZIf4q+3u8yvoer55fRsMLslSKvttblxQweiwgKAB9csAB3rPJX+RVCR7YvcOVWn/wYHdaVvejYMPoBeoM1aVwISO86c+how85BEQsRfbUQPz18Fu8qbiHP299rva8Fi9ZTrO0c33CkO0egPzgGKXFpUiPkffE6fuaWyuDgFL1QRtlIze5SalCH62xomd8EVknyY8ckDssJBqVO7fR1nnIV2Z+hy6gD1Y8u4OP56dbXprhMV+E24Ty2Es8/HHjxxQlkEpu4Y28B45W9kQFWq8yviVduG7Q7tr0ky8JpZB4H3xzmOxZe3LaBoHvKV+AkHjlZwWQHEYK8cj57XbbcuUxnyxXspdMxieHgcgcyZBE9UH16bwU9eT/vPOFxh7fwohZZGCbL0KOmBxGle0VApmLxCAnqzAIKOWHutOBpPL5bLyTVihl8OmVAtzi5il7KaYGoiByNjJnzEUfvzCMDouB2wxf2nHXrXZFUVLL3YynDt64IiCtJRmfnDDgmYM3rgnEiAyMwP0fUsiYksr4ODIB8ye5myd39bK+x7+vx+u93XWp5JQVQuLpWejBK32QdVIZT6qRZ3QroLTM1rXLzq+7qeakFbKnBaFAOgNZHoHImUYCSSavVCFrMoNOa9Tw4qaKZSSiJRLr+7rbIoOAUum6tSgIm6kGnSwnX+zc6AyORIriRctQEDYTBWEzURg9B+WbN+Hf1z6hJU4ul8ZqDIYrXDyvBfRpaJa874HyCy2fN/0aQYIwky/CN45kqsJTudWkgORXTj4IXbca6Xc/R0PRTTSU3EJD4TVaMPxNxT3859lnem/35rRrBz19ISTeBz9sVe/l8ZkvwtZ5hhXX6EhV7bVFrliq7F2Td9dnNRki9ce1T9oEJTqYxFRyceWu5ieg7I7q9lCqPT1eo4Wk0MLl7s1WCrCMmomhIVE4Oz0I5Qkb8DrvGv71XQpK3luBnLmLqEC3+4JZtGPHLJqOmlZUTHwmjyk94Ytwh1CC6KEcTPf59F/D8swfYD97Lv4ovkVZTarZ4fpue02qTNYO6ZB4H3h60K2h+es98cnBtzeGVHVgMj2YTYiQHzZTY93rtg7mVlWefyRkhAg5Xh56v/a2qttD6Y+bH6MgfBaZNNkETlV7tsNjplgnlBSlcMeEx+KqSvU9hZ6orEPMnU87tn2UpFXnmh/tgid8Ee4TIvyf3IW7Kz/XTLlV9pwvwu+XL1K9bYoYUsSGNd12LJyqwuNFeKHi0i7fOJX6vGzDNAwdSX8ZVGNLb5tqE22R5SKBzMkX2VODkOsbppbsqFDphrVoaNIp0la9zr6q92tvj7o3lD720dn4f9z4EIMCgrVCqXjJcnAkUgwOjoTzgkW4ryGl4DlfhP4B4RgfPQvDQ6Nox1eULWmpKo5YQ8YX4Ve+CI/5ZM/efZXA9y8EmabwZO5Cqgfudd4VvMr4Fm/K7+K33Ks4nHSYur7fL/t2XFt2kKqSSYvo+6NkNnZlsiXWbiZB9OS0DZwDvah1Y1Z7I/Nsx9dwNgTVXRiPHM9gZDn5Itc3HNke8lw6gfqIAhlfhD+ffom/ZJfJrP8OsJj0ff3tUbeG0l+/fq274VOE4EiksPUOxovZ81GbdBS1SUfxYvYC6mb38QuDdexscCRS1J4+hByROsA4Eikc5sxH/4Bw2vFbC6X6VM0z+KrOkPuML8J9zxDyGuRzyZExgetoKL6JV9nf44Nje6lfTH3fA006sosccnJwJzl2bdVmD5RcGI+yi5ZU8LsgyQqhb7GVVJfCRZaLhEpPyXL0QbZK4TXSpfNGxVZykoU/n32FP59+SY2NbC+Y9H397VG3hlLJCgeyp8w9AC9mzkP1sY9Qe+YQSlauRI4XWZ6TI5EitpmaSoreN2XPWxByfcNRsmIlSlasBEcihd3suR0CpSxnL8hULKRbcusoUw6kp3yyVOmbinvK8XDyB1FR6/tVxrf48NT+bv1wzVzrhZB4H8xfT879pQCQAkoh8WKUXng7EyTrUixRsCkSWb5+yJfOUAk7iCnXreQ9euC/sewOBaWGklttmo2ZgVIXqmq/DYrmOSNXIu9GdfVB9XFludqPXCVaodTXnyxfYhml3nun0JDgKAwMigBvzjxaYLstUKpP5eK5inX0UOVvpkpMTPHwNMrHxTU0KaX7Mvcq/l10S+9tr0sL1k9HSLwPpPFiKgAetVqECx86IGaN4U242R7VJtmgZI8Ixbt86DW1vQOUlpGjDwqi3FGnofhdQ9ENNJTcogoHttdS+uP2Cr23SVtlEFCqT+Wi7oItKvcukmshKj+ah/pUEhwFiQdRGr8K+WEzUbZmDerOHsG/vktG6erVGBAQjkFBEbCNnEmOD9IApaGB5Dp9/KSouKjsXWorlIoWCNTct+d8EW4SSlipBSdzfsTr/Ct4nX+FrDJQfBO/vbih93ZvTvdPTURIvBgh8T54fNoGh+TVBIrfMiup/LArbiz101hqJD9KqHM22d++cMGfT79Ew4vr+PPZV1Q1icYmYyjfVNxrcSC8sfSa3tukrTIcKKVwUbZnIQUlxfcciRSPtFhAMr4Io8JiYBUzC+MkZKGrF3MX4XX2VRREzKLWGeEXhr7+YRgWGk1zOdoKpfpULvIClGUonskD3185ivGjPNhOf4CUdZUaim8q/5bf1Xu7t1TVyVwUJlmhQiWu9DapYFMkRluwscLdhgYkTVZRU/37xiIyX61AXgO+9Db+fPYVBSOFFLPovH5xrXkoGdCz01QGA6X6VC4OrwnEpiUzsGx+LOqSJ6A6mQTHi9WrUXv6IMrWr0Plzm2oO3cEf1z/FC8/P4uxETMwIDACTt7qFScVGiMOQb+AcIyJiMWvJ5Rj3doDpfpULsq2TaYdJ1Pl85sKsmSuItCt6I0j55H7gYwtyS7rvc3bIulbGOCuS7HExWgPnI0Q4kSoC4p3tbwN/nq8F43ld/GfrO/IGl0vrpGlbQrV4RZXcusAACAASURBVEMBqqj5aeT13SZtlUFBqal+OGBHTbWtDTh95JNQrhaqJ6spxBcFY3hoNAYEhmPLOmWWcnuhpFBhjDOuC8R4xvemuoXfVNxDY4mWyQbK75Lj4br5wFxtkp21xv6db19VybpkLvxsB6HyuO5pjJrqP08Ok+6avC4XCabrZHyJqvl+gxZnapRb0k3dO9XPLz+x03ubtEUGDaWEtS46EycVvW/9A8Lxc3A0GgpuoHxrgto6cdMD0V8+xTcRo0yY7CgoKVS8mEAmnxx3p/bLJp+6SfW7hkLtxeUY9Ry9en6Ocs0aVHrdFIDSZgmpWksKEL3Kv0ouK/gZLz931Pu1tUUGDSX/ed7NQqmvfxhGhamPeZPxlbPp7lcpm2vhpwTRAP/gTjnvyl0hyodKUUq39BZe5fyAhpKbSneu9Lbe25hR5+tVVhLN4lFOJnGLNvFpQ/FN0sVTBMJVZs+h4pAqPXe/faV7NtzuKoOG0ujgQDUo/fvqxygIn0mDUl//MPz+dRJqzx1GQVScGpy+cfKhVadU7N9jZifGRj62RmP5HbKciSJnSf6gvVHpadF3GzPqfP0n4xgFHdXOD0Vnh8IiUgBLNdDdWHaHikXRrKgX3bv8jS4ZNJQ4Eik4vsqpiwtjySL/tWcPKbv7Q6KataZkfOX4NwWUyi9aYukK906/hoaiHygwKR5C1a5ffbcxo87X75clGt2z1/lXlDCSPyNvKu7hP/KZcaj/s79HQ+E11D3+EiFrV4EjkeL9lbpLOHdnGTyUhvkooZQXHKMxpqSp4mRTDQuJogBWn8pF1pkJOLW9awqS/fVov/JBlBd/U6QG6LuNGXWNguZ7wTp2NuZuS8CZSyeVMJK7aA1FN/Aq7ydaDOnB3c/hF78Cg1Vmf1ZV0XnDzBUzeCjxvcks7+pje2mQqdy7g7KA+geENwslbuRMmqV0/7gtfmlFKdz26s9fd9NMckV3sL7bmFHXyEJeYocjkWLyrDlkZYuIWAwJiYLNjDh5nfkIquNmQEA4+vhJMS5yhkYgWciX6fu62iKDhVJJkiU4EimWuPujYouyR+2Pm59BxhehdNUqyPgiDA+NxoSYWTQAvfzirFaLiiORoi6Fi58OTu7ya3qd+xk9PcCAE+AYtVy1KeQPbB+/MFj4keWbiXkLYOEnxQhpNLiRM2AVPQtG1pPV4NPHT1nEkAKShvioIclgobR8BVnc7XKTKWn+dfki9TlL6E/lKTWF0MtPTqtBaVBQBPoHhOHxSRt8usdeL9fVWE4PWOq7nRl1vpa8Tz7LAwLDMTAwQm7dh2F4aBQFqwEBEWDzXTSCR81Kkv99fnqC3q+tLTJYKPkum4MhwZHIi4pD6arVKFu/jjZ/lowvQtX+nVSpW8V31Uf2qgFKxhdhcFAkRkqjwZFIcf5DPvZv1l+OhwJIr2Tn9d7OjDpfvCg/Cij9/MPJQeQB4egnr27Rx08Kq+hZGBAYDiM7gqoRJpi/AP38yfy6IcGR6BcQDtsZcTi1NFzv19QeGSyUpsyOw9CQSKr+tZocfZAfNlMt0K0Krsrd26nPYyJiYRU9CxyJFGGLvLHsff2VE/3rV3La8N+/nq73dmbU+co6M0Gr1dPPPwxD5IHswcGRMLEXqK0zQJ746xmhnFG3cGug3q+rrTJYKFlIpHBbtBgrP9qOuswfUBq/SmtGt8JSqj1zSG15ntz9I6sEhFEBb3GcfktvMK7b26eHJ200gqmPnxQOc+dTdcH+0X8gbfnIQClyNjatThCh9+tpqwwSSnnnbNA/IBzCxUtoAWqFFL0VQ1S6SmV8EVlUnU8WaC+cQU63lC30h4wQU+kA/QNI83m8NEC/13mp+07dzajzVHXKAQWbInFtdQSOLA7He3FheC8uDAcWh+PWhhBqvfsn7fH9FrHGUikKtWZQcHeSQULpyDY3DA2JgnXsbDUgaVPdxWNa0wEqtiTQf3nCYgy254KR4UsbZF5sDWrxugrVXjC8YLdBQql/QDgGB0dglBwefVoApurDu/Gvn9Lwr5/SUHN8H62Ot6qb18ePzA9hoMRIX9IKpW3qUKpOtG8WTPq+ntbKYKE0LCQKo8Nj0dc/DP0Dwpu1mJpLnlRCKQxjwhkoMdKfyg4KWwyl+lQuinb66oRS0YetmypM3zJIKFn4kTlFQ0OiMEIaozGu1FQllxJRfXgPMrZvRuWh3Xh8cj/2H9uL1C/OIGzDGlom7PDQaAwK6JwKAfpQXSoXeaeYGJUhqaXum0LFOyW63biLVl127u2VwUGpNGk8LZjtNH8hFaRWJKApeinaowlheg50M3qrVbApQg0shVt0/1BWHHHtEW6cwUGpPpVMyVeAZ0BgOPoHtB9CqvKYKYbrjO43ESSjt0e1FyZogFJIm7ZTun+GkbtkkFAqv2iJ0cFBsJCQY4MGBpIDFVVT7/u10VoaLHfbAue9XVMEMep+UoPS5pbHOUt2izSC6asV4Ti6tXXlertaBgklVXnF+aCPJBQcibLXTJFvpPg8QhqNiTPjdI4X4kikWPieMot7zSo3vV8bo7dbxXu96FBJaP3wkaZu4K9rIzDAv3mLS58yeCgpVJfCxZNTNpgaRSZMDpKXeejrH4YBgeE6YRSzeDptEspnidZI2eWgt2vRh8ovdH1VBEbNqyPiQqrbH14cjrM7+Hq/Ll3qMVBSSDlh5SLUnnfAwxO2+OngZJzcRmDZCnf4xUbBPzYKp+NnoypZ8z5SdvHw/LS13q+lK1SbMh4LHEfBwYiN7MTubda/bao5b9tuKOWfs6K2fbY+En39QpF3tnv3xPUoKNWec6BBqe7CRPryJHvacm37WbXKcEuJtlR1KZb4agMBByM2hBwTePY3hc+IgS2aPJFR56vksIvGmNCvJ2xatZ+0DwXI3xiBsYFSZKyPMIj8ux4BpZpEIQ022qBTk+jeZJ35GvcX0MOD3BnH+fAbMQAOLDb2hQ5AbfJYPD84CjwWG5c/oAO59hIPCxzHYrlwDFZOHYmVHiNRlkrOjffTdkc8OzUdz05NR36SB+pSu/cvsKFIlhAC2QYyFjTYXwq3cGWowTGmdYmQ5YddMSqArB6wZm44rPQ9prMF6hFQur55Lh5um08DTvVx9amj61LGa4RXzWlX2nq24f56v6bOUOl5G7zvMRYORmzEWJkj79hovEzj4mUaF/d3jISjCRs8Fpu2TfpJERxYbESNMkPwUFPwjdg4scAJdakTwGOxwTdiw8GI3M57kDm1XXXyeHy50RU/byfw83Y+bn4wAuXnLfXeBoag7+aLkbUuDD/Hh6NgUyQkUWRP8qylrZ8yqS55PGLsx2BBdAD6+nXvALdCPQJK9alc3N8TgOqjLcvDqD7ui8q9CyHbPh9Jc0Lx3oxQ3P3ICenHXCE77Qq76DiUJDujIpVAVeoUVCdPQPWFcai+OA41F8ehJpmL2mSyjKm+r7slqk2xxPmFNhCYmEBoYYLv1wyjYFR1YSyWCizAY7Ex034UylJ4tG0fnRDDwYiNioRhqEgYBgcWG/ePS1D1iQt4LDaeLB+M8k1DMZtrBvc+ptR2D/fZUtDiy6H12RrdAda6FDL7vC6FVG0K2c41yVzUXCTbvzplIipSCRQnuyDnnBvSj7qiLrVnwa6fXwj8pAGYEkpaR8MCg1Fxse3XeGEnH5d28zrs/DpbPQZKbdHNHRPBY7FbLQe5dcA3Zuv9GppT0Xl7OJn1BmHMxlaffhSM6lLHIW3hYPBYbDiamuLJMReN259eLICwtxJKPBYbD475UVB6+t5gLLE1B4/FhsDUDN/t9EfRWWt8vXIoeCw2itcPxYt1Q8A3Mkbq+/aoTLJUi1sdmjlZrW1bcz+ufNj5U2Ex6joxUGoDlBRyMjPT+zU0p9T37cE3ZiPr8CgVV20ExINNwWOxcWSGNWpT6eUtzs4bi21BVoiYOBo8FhtuZiSUitcPAY/FRkGKCBmnPMBjsVG+aSjczU0gGWaGmXI48VhsfBOvhNLn4f3VoP7jNrKn79sEQbvugeI+lDIpDT1GDJTa8TK4mJt3yXm+OGONwFEcBI02R/AoM8TY9McCYhhufNh8LlVNygR4D+mHqPHmKD49BksJ0lWLth2MgjOTNG7DY7HhOcAUyxz7wHeoGZxMSCjlriahVPGpJzISSSiVbhwKgTEbiTMH4WUaFxfnDYbQwhxfrbEBj8VGyYahWGVvjql9TVCcOAaPdo8Ej8XGjb1C6lgdoZhJI5iewx4iBkrteBHc+1p0yXlmHLLUeHyCbdqi7W9+aEdZKG4W5vh5u+74Ao/FxidLhuBlGhcnYgbCQW4RHRf1Be9dYxyKscL2IC4c2Ww8e490AR/sGomXaVysce8DN44ZVk8fDQcjNoo3DEX4CFOEc3vjZRoX2UdI6yv32FjqWB2l2pSeFVt6W8VAqR0vwdT+XQOlB7vHaTw+39ikRdvXpXCx1H08DsfxUZPSfLe9R7++WOHSBy/TuHi2n0wVeL5iCFzN2HA2Y8PFjA0Bmwxgp4b0B9+IjbqUcahPHQfP/qYg2Gw4m5LL89cMgZsZG7sC+uNlGhfX5XGpyouky9iRUKphoNQjxECpHS/B9IF9uuQ8b+911Hh8gUnLLKXWam8sAY8+JqhPHYeXaSQ4rs8dCCcTNj5bNhQv07g4NWMQ+EZsbHGygJu5CV6mcVF9cRz4xmz833tD8OQjEmb3Fw8Cj8XGLx+OwMs0LtZP6wtHU2UsjoESo6Z6q6F0QweUXDmmeHyYj/QjAjw87IwHh91w/5AQ9w64485+D9z8aBpu7++aKZC+2TpV4zmqvtwdqdTFI+BkykbF3hGo2EZaNifEfWlQ2uLTD86mbEiHmSJghClepnFRdm4seCw2Hu8dhfS9ZOzoq6gB4BuxUXloJOovjIWQY4LdUcrUAF2QcTI1g7APB1P7czB9gDl8hprrXL86mYFST9BbDSVdlpIbp/VWSG2KJc7Ms8LJOdY4OccWx+dMxNHZk3B41mQcnGmH/bF22Bs9Bbsip2BH2BRsDZmChEA7bJBMwmrxRKz3nYj8M6q5PJY4MtseUqvhGs/RwYiNhAA7bJPaY3eUPfbHTsGhWVNwLG4STsyxwZm5lqhrQ7s8PjQFfCMySF2RMAwe5mzM5pJpBVc2DMfLNC4SvPvBWZ5seTh8AF6mcfG1vMet9MwY3Nw8AjwWGzuFFnA2ZaNsE7kvwpiNtGXKY2lrfwcjNsrPjUNtijJ/qfQCr0VQ+ni5JRLncHFqrjVOxE3ExaWTUJtqjbNzxyBxDhcn51jj2JyJODzLDvtip2B35BRsCZmC9ZJJeH+6LRY6j0fslNFY48WlstQLkwgkzhmHxDlWODnHBsdmT0JVii1+/sAKp+eMw6k5VjgxZyKOxpH3ek80eY83BdhhlWgilgonII4/DpG2I5Bzih7Te350Mr6MH4fkBcNxNm4ozswZg8S5VjgRZ4vDsyZjf6wddoZPweZAO6wWTcRiVyvEThmNYO4QxEwehY+Xj0d16sRW3+fuKgZKWh5wZzNTREwYjBDuYIRaDsYyt1HUdrUp4xExYTCCueRyhfxHDewQNyRo7ABUJk/GrS2j2r2vgDGDEMwdgmDuEIQ0o2DuYASPG4zpA/uS7mkfE3j3NYEjmw37d43BN2Lj6kYSSqvdScuJx2JDdojMDF/j0RfT+pGunAJKgUNM4MBiw7svuS8eiw2f4QOwI2iMTig5mpqh+iL9flWk2Ou81qoL5Hr+o+n3gW9sghmThrap/RYQw1CfysXDE2K1ZcHjBoNv3Pp98o1NUJw0BfWpXNzd4wCBiWm777OLeW+9v08MlDoZSkKOGTZ4DsRaj75Y69EXyUuVNa7rUrnYGTgM66b2pZavFA4Gj2XcIVDiG7FRl2aN6wmaLaTWyH8EB6uFfZvVGmFfrHHvi6WuY8BjsRFibASpXF5GRvL9GeN2wnDUXRyLJXwL8FjGcGCxUXZ2LF6mceEzxBTz7DioTx5LJU/yjdlwZSn3JTU2Ap9ljKVOg1F3aZLOl6ymSRWHqtQpOq+1Molcz6+Dfhx4LDY8B3BQn8rF/SOiDtsnj8VGzhkyWZXfykRRbXLspPgiA6VuBCWeESknU1N49LOAeGg/+I3sjwMzNA+VODCT32EPrAOLzBS/+cHIdu9rZ8iYVrVJXaoVHFhsfGjOwmELUjvNWRSU7i4YhIqEYVhobQ7eu8ZkVvsFEkouvdlIcLRARcIwMmHyXRLSq82U+zrAIfd194A7ai5pT5wUWpirdfHXptnpvNaKToDS9P4klO4d8u5QKGWfIYfHdBSUCHbLemINQQyUWnnzNwVM0biv88s6Dko8Fhv1qZa4vXV0u/dzIGp8q9ulKUgOW7CwwpQFHssYrmZsnPXrh6AhprB/1xjS4aaoSBiGvDVkYuUWJw4+D+8Pzz6kqzbbhIVDnHep/eyQAy7/BBdlaS5az9u9rznqmkLpY933q+I8uZ5kZMdD6fb+joVSlhxKRBvcP01yMOr+Q55aKgZKHQSlr1eNAd/YROM2x2bb4vFBW1z7YAy+XTce/7fOAcfnOTQDpfEoOcNFWjwBh3Y8rAscx+DcEnucW6zU+SVKJcml+plvzEYI24gGJYXF5Cd3vxT7dzUjKwh491NeuwPLGNNZRtjcm6W2j/fM3gXfiI2alAkouCDUet5T+5mrDbStS7PRea3l58ahPpUL3xEDOg5Kcvft+kdeHQol2Wm3Zi2lQ7HW+G7tSNzYMhYP905A5tFJ2BowXvszc6lnBLsZKHUQlCh9PBmVn7gjN8kbtw9MR8oKAWpS1cdl5Z7SHR+p/1g5Hk1XMLXqUw9UfSZE2aXpKEzxRvZ5EdJPinDngCcibIZBNGwAxM2o6TpuFuZwNjKmWThNtcGMhSi2EXyNjeFpbAxfY2NEso2wykzz+gqJjIwRaUt2Gjw7pR1KTmZmOPe+O77ZLMTVbfa4/sEopO+foHOwbtnZsc1CSTJyIAqSvXBl1zTsDrNCnF1/iIf2aRZKV3d76rxfD456If2ENy6+R2CZ0wDE2Q1uBkpC1KWO13k9RRec1Z6bsnMTQLBNqIHLDvIqDB9F9Qwg1acyUGo9lAKbgVIL9TzRVedx6tKU5Xh19c7Up3X8XPE/bBgPwsgYBzm6AdOcNEGNzzLG+SX2qE/l4u4+5w61PkrPkFDyGaYdSsHjBqtd76HIEVrXnyaH0o87dUMp57QjbZ+1yeNAsDVbzjwWG89Pu6E2RTeUalLVq0zWpXJRlWKH6rTJqEuzRX1azyusx0CplQ/+co/xuLd9pJruyrVRYgMXMxM49zaFk5kpnDXIxcwUAhPtD6yDERt3P+Tirnzf2h5uByO22vE7Qle32MLBiI2tGtyvFkuLlcVjGePOThK43yXozjtqrUrOkfEz8bD+WtcJ4apD6WCE9g6FafKY0uVt03UeO/9s66AkS2weSjwW2XvpZCp/bnqbwt3CBAucuDgY54L/S/DAjV1O+GVXz0oaZaCk5WFw7m2KujRrVKdNQWmyA2SnBOAbkw+Jo4kJBGwT8q+J/K88l6ejXjABm03tX9t+7d81hqOJCfjGukWwSQmayNFEg0xJORixMcdEPa6ktIJY2M9hId6UhTkmRlhpysIe83dxiKPdSlrfmwxyV6eR1ubFJdYdCqXSJDvUp3IhGqodSlJLdSgdCNdhKcmh9NXmaTqPXZjUOihlJgpRm6I9PtRaXd/Wc6ZlZ6Ck5SZ7D1RPRqtJtiKrUGrQjwlWHfqCVaRMofat7eEW9rHQej7tVZTNIPgaq0PpEOddfNCbhelsY8y2NcelxUNwdeNwfPHeUCx0sIAnh411ZpotpSi2EbwG91OBQfvzsFRVfJGs0eQ9RDuUwqwGqd3X/S2A0ucbPZo5duuglHFKiLoUS6zx1jzYurWSjOiv9/epR0GpTstUR/qEks+Q1lUA+Py99ucUqao0zR1Vl5xQdclJ68M9bWBftfOo+URAbddUlZectS5rqu2htnA1NlbvPTN9F6Fje6Po1BiqaJyqKpPGYt3Uvphnom5deRoZIXK88py3SQZ1aJsVJZMTiHrpgFLEhFZCSR5T+mSd9qA8j8VGaQp9eioSStpjgc9OKqtlfrHWAet87SCdMBICdtuvPy/Jo1XPbHeVXqFUenw8MggCGQSB6qSu94t1QclvpPoLr0uXVmhP7Du7VH0+tdKzuk13VZdNm/vmPaQfbZ+FidZUwqK2fbVc5LCSPSpJlLvMWfAbZqYRRk21wsUCW83p7h6PxcYn65STNGz11z6M5usPPFD9qQfq0+jBXufevbVuk3+BLKzvObif1nUiNUCpJe5barzujomK1NZB6enJlpfwrbs0BaWf+OD+MX+8P91W6z5/Oeant3e5I6VXKCmA9IwgcDu462ft1AWloNEDWrWvs0s1lxfhsdj4KJZQW7/snG4olaU6o+ZjHqo/5mlNCfAZTjfZHx/X/GvuYm6G6o95qE5rgeTHLLngAMLYBAkqwe5oNgv3d45sEZRKzoyB0EhpaSmywkvOK6tdbvbTPvbt/s7RGtt52oC+WrfJThKhPpULz0HaoRRt3TYoXXxfd09hZRr9+W0WSifIyptH4uyxXjQWG8RjsUE8hpJiyExTqdYzb6qsJAZK7dJTVz4yCALJ9o4UnLr6HJrrfeMbk2OwPPpZwGtQX4iH9oXv8L6QDOcgYERvLHYejeJkMpdkT6z2IRMrpqsHIcvO64ZSZaoy9UAblPxG0qG0wl3zy9WWWuJ1qZYQmJhgpkqweyrLGHUp41oEpZdpXLhbmFBpBYogd41KeZENvtrjcJmHNFvOYh3d/RlnyWm1FAOKNSnGhoRSXZoValJtUH7BFruCtVtsU+VQOrfMSef9qvqYLE1cm2aNqmRbFJ2x0RlTenKctJSczTSv8/2HIo3Xv3raMK37LPpYfVoxQ5ReoFR5zpICkcMQt24LpZbowUHSHVk+TfvgUoU8+vZB0LhhmGE/FgtdNJe4Vag8xZ46z+a6jd0sOPAfMwQCE7MOg1J9Khcb/e3gxFJaO75GRig4oTmWpEmOJmyqNy7UmKVW0zzec4LWaypI1DwTbMCYIVq3ST/li/pU3daUk5kZPPppT5bUBqXERYTO9SQjdSdLNtXj4+46M7oJYxNE2IxChO1oRNqOQuTEUYiwGQ03C+01pSo/a/28cN1ReoHSzdl8CkRXXQQGDaWvN5C1cfxGa39Z2iI3cxO4W5hgah8TtL/6gDFce5vARYNcVeRmrpSQYwJnM3J71S7949EDWwSkWx+MwFwTZY8dn2WMI3OdaO2/xE27pVSWpDlDOXS89h67e0fI2WOn9m85dFoKpePzOjanKv2YO2pTxnfYgFwei43aTx075T3pUVDK+lBz7sRjJ9Jl+9pZ6brdmaqEUs5+GzxeYmcQUDo+U3ddoLbq/WlWWOtjg7U+Nu2GEt+YjVVe1q3WUiH5S35ApXvf19gINzYP1wmkh7tHwpllhAPyQPd+Dpk0+cOGcbT2n8XT3B3uYMRGdarmZyfKVnsv57V9pKXUGkuopVA6PEt3LafW6uFRIaou6LaWW6vOyO7vcVDKIAjcDyV97dLE8ShLJDNun4mn4uk0N8wc7YIMgsCv7i6QfUBC6OmiyRSorvAFqDzbeb1yHQGlbX5DUJ/KhXsf3aVaW6viJKX7pm2gb0t1eqHmqZSaU10qOdZsmaky2H2Q8y4CjI2wkMdB9pHRqEwai/rUcai6MA4FJ8YgwasfRGwj7FMZorJdHk8qPm9P2782q8fBiI26VM0v2Mwp2isnfLdDTN6LvhYdDqV9MdoDzG3Ro6PuKDvXMTlKFJS6AVC6NZQKN9tQcFFV+mx7zJjohttH3oPEWogMgkBx+mlUX+AicyUJpFV2JKw45u6d6tZ1BJS2+JPjrWrSbBHHa32uUswkzcHpF+eUge7TC3VXFNAln2H9qJKubVEIdwgkRupJlNvNWQgxNoKQZQwXljFcWcbwNzbCRg0DcuebsjTGtbQlOeqaEGEOf4zWa/1soxfqU7kQ9uF02It+OYF8/naFa++Kb62Cxg1FTbIlapMtETZBe+C6Ndoe1PoSNd1VnQYlBYTS7Bzhz3Wlgel9viuK008jdoIr0kPFeDjNDSVnJ+KOrwcmDHGn1uOYu+OhoPOglH7IHovcrLDYzQqL5JrvPAFOZhw4mnHgyrHAQhcrLHKZgIWuVljkaoWAsUPhKF/uYs5BzKRRODafwGfrXVGXwsU3mwTYGDAFa8ST8f50W7iY94HAzBwCU3Pw2WZwMDYBz4i0fBxYxjgyh4B7HwvYv2tM0+5oHo7PF+DYfAKyM1MhGtwH4qF9EWo5GLF2ozDfyRLLp9pgra8dNgc7YGeUIw7MdsGxhUKcWe6Oi/HTcGnddOSdIVCXMg6frvfA0XkCUnPlmqfyV1Xy5cfmEfAd0R/uGjK7WzMI18/YCBHW6sM73C3M4GZuAq9BHEjHD8EcYizen2aD3THaYyNL3cbCjWMKoYUJhBYm8BpojhDuIMyyH0X1WLlZaIfSCq+JuLRuOpJXTcPZ9zxwarE7Ds9zxb5ZztgRKcAHwQ5Y5zcZKzxtcH6J8odhR4j2oLybBQefbpiO1DXTkbRyKk4vc8exhUIcjHPBrmhHbAvjY2OAPVaLJmKFpw2qLiqtwJpkS4SMGwjvQRwEjhmAcKuhiJ08CvOIsVjiZoUVnrZY6zsZCUE8bI8gsDvWEQfiXHFsgRCJS9xx7j0PPDnS9ek0Bgmlh+/J3TEXMqj9mCAww9oVj3cuxkmeM4oeJWLxBBcUp5/GnWkCFKefhuMoDwpIH012BsfcHQcnOyFjddvcj7aoJMUFcbxRiOONRpzDKFSl0I99cp6dfLmqRmOJq+YKj7GTR8J/9GBSY8i/AaMHI2CM/K9imXw57f/Rg+E3ejAOxbTvmupSLTGXGAm/0UNIjRoMv9FDIBk9WKf84LOuTwAAIABJREFURg+GaOgAOBixcaAlFQM472ocXuLKMsZmv7Fddg9dOdpd6a82ty3r+YMA7fEf3xEDu+za3gZ1Se/bT9EE5ti7oS9HiOvf7MGlSY54fucYNnGd8GT/crx4cBI+boEUkB4TBBJXT0HeWSsM6i9E0bmeNQraoJRmRVYMMG+ZldTUUtrLeRc8Fhs5SV0zHVV9Khcu5tqzvq/t9WzTPteLtcd//EczUOpIdRqUqpMsIfOzx9MmMaUH7s44unERfvx8Fz5ctQgPo/3wa1oCtfyYkzMeHuoZvQg9RTwWG++ZsrCP8y429mZhoQkLwcYsTDMygoBlTMmdZYRAYyPEmbCwrjcLH3HINAKCbYqai113vs5mmvO1eCw27h/VnJTYnFZN055gGTRW3TVl1HZ1CpR+DXKggeiqowCrLZ0RNN4Nj1bNQNHDU7gaK8HlQ6tRnH4aGQSBu44C2A8XIsjZFQWHGSh1J4VNGAlHljF4LGPwjU3gam4Gd44J1ksm4sQCR0q7oxwQOGYAXM3NqGxmJ5Yx3DhmqEvpuvN1MtUOpWenxW3a5wp37flRIRrKoTBquzocSukrJtOA9EigoQfOkcCokV5wHe2Gb9bE4Tt7AX7gCejbidSDd1VJZCb4FkcXvTfc26Q7e/mYNXkgfjnUuozh3AuemGc/EMfn2nfKeWmTrkqdeRfbZiktddKeHCsdz0CpI9XhUNKUBqAYdLuRcMHwfkJwzN3xjCAwz9oVqc5OtHVo8HKh97wpln/u4tSh58yoZ4nQkddVlObVpn0ucNA+5i5CQ40mRm1Xp0DpabyyUP6zYxMwbBgJIo65O2yHkLlJG3hkLtJk+f/a9Ks7CaYZE8j1N050Rrpb1w9JYWQ40jXRQsUnbRsfFmenfTxdpDUT6O5IdUnvW8mF8QiJ98GMZd4UbOyGkjC6xhdg7xRnnWD62UWAMf2EWGrnio/5jri3omOK9zPqmWo6JZXAxBTOvc0gHtoHNZ+0bXxYjBU9zYBvbAInMzO4mptiSyATA+1IdQmUQuJ9II0XU+7XE4LATQdlDIlj7g4Lc3f4Ek4oOT0etecsUXZqPA1MHHN38Ae76WXgLiPDkpTbB/ti7fAkUYzK5ImoSeaqzSHXWq0QDsI83mBc3joNxcluqLrARW2KJeq6wfV2pHL93CFz9IaM8IbMyQv5EV0fv+10KJ3/SAmRx07yMW0OAjxRAQ7h44m1sQ7gmKtX4zvsRcKrD0eIRwSB++4MlBgx6mjl+blDxhfpVOEs1y45ly4vXdK0R+7xrCkIiRfD21uIeycnIiTeB5UqhcD69ydjUWP6CRkriRGjDlb1sQnNwogSIUKOZwhqjnXuzCldDqWHTkogzV3sjfpULtZs9oBQ6kWtExKvrKCnCJCP7SfEjUU8vd9ERox6iqr221DAmcAyQa9evdT0P+/8TQ1O2S4SlCd0noHQ5VB6EEImVsYsF2HrNjfqe1UQ1adycfUY2YPHs3YBx9wdowcI9X4T3zbVnlH/ru4iF1lie8i8eZBN5+H5VB6qDvecEepvi2rPW0LGF+HKRDeNMGoqO+PeanAq39o5RkKXQ6n6Ahf3vQjErvFG3nllr0VIvA9CPdRn/YhYJULSuslddn5vm6qPjkfpZmvUyYeB5IbZUZZstkRz0mP1MWU541otBe61qWDOJHL2mmMMyPQpGeGNX+2n08BjM8gCG8QEvlwYgDOxXojhW2GgqRG1PGG4FeXGyQgRZAIxapM6/j7qbeKAeevpAyM/3O4Kwof+XVWyJULi2zYsgJFuZRDKksQyLzp8ai+QsT9t8/HVpSiTZFtzTNXtcqW6K4uWrCXrcRUu1FwWl1H7JOOLKNg82hCDyr2LdGpPsCt69epFt5acfJDt1vEzqOgNSgXn1QuPBS6nAyhmtTfunWQeys6SAkwla9WL9GcQBOp0WEFtgVJO0BTkRU9u8baZQtLVz42gA6zmlP7bzpCVH+YKGV8Ek//9Byr2LGwWSAqV716INUNJoMkEPpAJxJARYpSu6tgRFl0KpednrZFznp5o9vlBpV8aEu+DTz+YRPtf3zewJysvigREdpB6MmoGQaD6qPbcnrZASbG+Ytu6ZioHqFpzigG9dRe5yBLZt+n4jEhluXjiEc8TlXsXoWjnfHyzOFAriJ4lzMTlpcHU/xW7FyLLyUctvtSR59flllL4KhE2fqAMWl864IBHiWQX44J109GvP5mrdPfkRMStbVvtm7dJ1Scskenq0KYXtHSjtdaXO4MgkBetPZbXWihkOPNRmmBN2zZ/hvbifZSr50iCKdNV+eNVc9KSAVI7JOOLkOsfhMq9i/BwPem6BUwaoxFKOVvjULZ7ASz7m1PfyRzFFIyy3Pwg44tQfazjstr14r6FxPsgJF6MannMImKVNyqSLZFzbgKCV5IuXNiqjqVvT1JdChcybx750jo7oOYU+ZLmRbRuBphqlWnTmy7L8rFHBqG9zKq27WpOq69bk0ieX6YzH889HJDhpLCAtO+/+gS5TfVxlaD6eXLZ86k85IZ2/mw3PVUyvgiF0eH4ZV00rC1H4dbXp/Aq81uNULLmjsSDH84h86dzOD9ThMq9i5AfGa5MD3AloZQX0PJpyJuTXqBUlawAkw92biezRBUB7ZB4H/y4ayLjumlQbijZM5bppqxXVSPvtq+7wEX+jNb3UmqDy3MhDxmC1kGpNGGCZqtLwEfRMlvUJXNRfWQ8SjfZNGtp5c2YhEw3B2p70lpyoI5duV/7ZAi157nIDZ1Cun+OfORF2qHuvP7vX3eRjC/Ci3lR+H///AcV7H6Ze1UNSL1NlD1vddk/4dPlUjK2tHUeGU9SWEvOEmS5dpxXo7dAd30q6cop4PT8LGna79vhgpB4HyRsYfKSmkr1Jc4Sk3GV5x4O7d5n096w2vPyF/8jzS9+9TGlhZUdMAW54XbI8p2CDIJAwSy6S1a+Qw6qlHEaj1u8UnN2cAZBoHIPeXyFJZhBEKhuxnUrWat0SZ9P46F82wQUzp+EDIKPTBe+2nm8jZLxRShePgN/+9vfKOjk/vKZGpTe/d9/UssrM79DzYnVSheOL0KWmz8Z8CY6Nq6kVyjVp3KRd34CQuLFCIn3QdgqpbVU04WVCg1Fqi9j7bm2BZubquaM8oUnA8tyq8RFh5Xk4oDnU3nIEtuTUJLaITfMDtl+U1BzyrLJOfPVzjPTRXmcDIFmUDTNgVJ1+bRdswKmGQSBbD/Nwfu8KCbnTcYXoXTtbBTsWoBevXphaZwUjWV31KAk2z4XvXr1wsqFkXhTcY/6vnRtHGSEGFnCAGTJ3bceBSVN2vCBEHt3MNUlm6rqAN1yoayHI+0bAV+bpEia5CNLZI/yDzu/FEf1CUuU75qA4tU2qPhImYBXvssKsmk8Wo9bfSoX9So5TpnOmq1DJbg0Q4sJjnNRlyzv0ncQIUfkrwaigqgwyPgizSkBW+bK0wHkrpsjaSUVLVjS86FUn/r2pQNk+dij+mTr4JIbKc++dmyfC9fdVH3cEnnhdshwpFtrMk8SVtqGtVBWkj9Tb0ub6uTDS2QOImS5+lDAKVk1C5W76TlLxYvpSZUlK2dS26qmA1Tt3/l2QKnkwts1DEHxQlUeaDmYas52jAtnSNJ1rYq2KHpfGaeSeXdtffDurppEKwomau5ak9yjvKBgtXVexEWqrVc0f/HbAaW3Tcq4DoGC2S2ffFOxTck6a5SsV8/MfptEtd8sZdyodL0i8M1H8aq3u33qU+lQKloSpg6deVEojAlH2QdzNbpwiqA21fPmInk7YkpvozIIAlm+ykzlLHHLfuEViZMZBB+F8ya91b1LqoFuxXfFq5XpB8VrWgeluuRxGofgGLJqT4+nQaVid8uHmRTOiqADyckXv19OJhMoBR03RpWBUjeR4kXKj55Es5p0zZcmm85DDpNESFPNaXmPn4AvhxRfnt7QunAAmVHOp3KdtA1ONjTVXeSquV8tGf9WvDS2CZB8kBcUjRzPEKpyQEedIwOlLlCms/budYUUUKo5YUmDUgbBR33y22v9tFWqFlJzcNekvIjJeO5ODm2pOkjmZRXOa7lb3Z2lqapk6dpZWoGUKw5Qq0ApI8QoXbMGMkcfMi2AYCwlg1DJOhsqA7u5danublcH1CRyUbnPqgmc3p5gdneTak5YBsFH9an2pWDoW/khsbSMbFUVxISh+P2ZKF4eixxvf62lcV9eSkSOVwhkAjGyPQKQ7c5YSgYhVaAUztddgiWD4NO6uqkBqU58VB8z7JfA0KX6g1GXzEWGIx/P3XgGGb/799UZaCy5jcbyu5TVk+0eoBk+hFgtsC3ji/D79ymQOfvKh5j4QkaIkT2tbfPpaRIDpU5U/qzJkHkqg9c1idrh8nwqj9aVXZ/KRc1pBkb6luqwFUVcqXSTtcFarm8q7uFf3yWjcs92/HH7C62WULZ7AAklVStKOgMl8fHkcmEAslwkyJbHlLIcGffNMJQyTq1XTdu62X72yhiSvs+bESVNuU+ZLnytY/a6u36/PB//vpKGmmMf4T/pl1GxbTP+vPsFipe9T4eQow/V5V91cBcqd28jraqpgdQ6OZ7BkPFFKFmxkvzfu2OsJQZKHaDqY+OR6czXWK9aASJqkOhUzfGlTBcHxjLqZno+laccn9cNzqe9qrtAZnO//PQ0Gsvv0nKMZIQY2W5+KFuzBqVrSeWKw+gWlEBMxZFkfBGy3fzwr8vJtHXKE9rfG8xAqZ1SjNan8otE9PwiBZRUc2jyY5hBod1ZNScsqXpOGUTzFTINRQU7J9MsocaS27QetSyhP22AbbaHyoBbgZgs7uZIxpJexC1AXqB6dvcdN692nycDpXao7iIXRcttaSPhqUS91WTSncyTh7ItZFmW/NjJtHV0xZgY6Ukp4yCbzuuR4+jsZs1Vz1Hauhl/3PiUDFjzRciSD7KVNSl5m+UiISsDuEhQfylRGQRvEggf7huK7E8D2nWeDJQ6QHXy2T/IfBY6oHIjJiMnVPlgK+r86PucGelW1RFLZBB8nSWBNan2PJlln+nevXrnBgWE4trPHyM4Nk5jYPtF3AL859n3eHkpEQVRccgWBlDQyfEMRtnaNfjj5mdaA+MyvgiWfmH49e4XGBEa1a5zZaDUQSJn6SBjDyVrbJpYTuT3ZQkT8P/ZO++wprJ1/4/nzJy59556f/fMcWbU6c3YuxJA7EqT3pFiL9gVKyiCXVQUpUgvSQi9BXtBimXUGeldep8zZ84U5TzP9/fHTnay2QktgVDWH5+HsPfaK2u3b971rne9q/6k4oyJhMFHb9Lu5s/XYN3zwcDGncsw2sgaX9s6YrSRNQz1LLoUF7q7JgkLkP1fTnzTCw196Gzegs0nPfCZ5Sp8arkKnm59T49LREmF5HG5KLGgHuI23niUWEgXdlR32wj9R9kq6j7XHp2CAvGyUCVmg6PbVxI6GRPtnTHayBqm+/biI3M7fGa5Cl8bWbFFSNsQhdorFcctdeKB/RoERVzBR+Z2+MTCHh+b2+MDExuMNrLGx+b2fW4zESUV0hIsTnZ/VSYIMpqDinXDY3oCgUn1vk65xsUhIHlcLtoHyVy5942tUV1wE5NWrUaY8BpGG1ljtJE13jem/i5dswEpWuwlk+SRomUIlyWmuBh6CaONrOF64QTeN7LChzJC5O57BmPNbFH2fQZ4Z/qW54uIUjf0ds5UiRmVq7rEfBZawwaPT4GgOqR+Q6qLVrh8LvJ15snNUqBOMm+HYbSRNcaa2uKnV5m0IB25chZf2VBduXDhNbx8mkrvC4j2oz9/9zgFkx3WYLSRNT4wtoGD+yGMNrLGkm3bUP7yOkYbWePcEW2MMbXFR+Z2GGNqg3NBPth44ghdR1/aTUSpG6gRMw282tPzYLk8LrdPK4sQhg75C+ah1Fbqb3q1exotSIWDYCDjnp8mRhtZg7thEy0Qo42sMdVpLaY4roHr+ROM7aONrBHI88doI2uExQSy9l2JvIIFW1xY24uCJyMnMxZ6O3fiY3M71v6+tJ2IUjcUGzHjkLoTmzKHmazk+YThSeMlZjoUOuFeN8n2+jvbQGv4PNiucYCugz1u3xYwRMI72Ae6aw0w2sgaa4650dvH2znRn9d4uDGOKXyeTn++foNHf/7QxAaNglkoC5uEMSa2CBYEMI5LSotA+MneO/yJKHV3gyM5nUbSxGiTCGwCRf2JyWi6rHhhz84ULJrXr/FPz92d8NzdCVWnNuLqtXMMobga5o12Pgejjazx4nEyvX2a01qG2MgeU1Nwi/6cmxXPKNfEn4qmaKq+G7f4jOMmrVqNM+7ze91+Iko9QPKgNZxnpxPJ09JA4fK5CpPZE4Y/sr6k7kRJNvFciaXqE/SVWyxCsedavDq1EVUbHVCoaYBcrj5m6lswulMfmdlhrKktQ0Qk/qTszDjG9gn2q+nPy7ZvZ+xriJqAD4ysMNrIGoLEUMa+6zd4qI7o/XtBRKkHvNoxDaU21ANUsGwuNcFWUxqTUmxKktOPdNp41Eq++YsUjzhJli+XOMkLl81Fc4Bqre1CDX0Uaq9E0QJjxpQRScxRkfZKFBkuwYu9rlgqFioJu88dxze2TrQTXJaI2Gu41ckSGm1kjbEmlvC4cg4bvI6w9hns2tWncyCi1BPEQ7358zVQ7iT1KeVra9BiRSC08zkKnwfZVX7ztJl+lvrTqguoZYiQtnjqiPZKdjCkhswUEZlt1zUN4L7YGJbLzXAr2AfXQy5hioElPjW0osVm6bZt+MbWCZ9a2NP+KImTe5yZHbyDfTDayBq1fVyRiIhSD6FWyWA6KHszIkcYuTT7M1Mcdw4zydPSQNUu1TxLzIDInsUfdc6b1B35WoaI2bASjee34nNTpv8pKj4Yo42s0crvuzuDiFJPH6wrXa9hTyAw4I1Hod5cRq7wwhVzUWI5m5kKRSbgsvbIFKW/V641xJX9bEDnSpKXVZJxnMS6kp2cKz6Wt84QlSc3otFbGiaw78IJTLVRbjJuO5+IUq+QPDx1Xso/PIThT5XLdIYgSbYXGc6hgi1DmLm/87hcNPsr52Mq1NBH4XwqT1LRIhOGQEkyARTON6K7drJWVZH2ShTNX4niZeYoXiiTn5sr0/UTC5m/jha+O+LMECWPQzoquW4jWpRaAiagYHHPQ+HzuFw0XSGjbISeU7lhhlwLWzJHTtUR4BIhKdYxQomeldQq6oJiSVoS7ZUoWmxCHSe2kooWGKN4mTktciW6lijRsxLXTZVxdV2k0ms2okUpj8tFW6Ti/S2dRkZaQ9TfZsLQo8xxJiNRXEsgcxROld/168vrUstIy5BabWSZGZXATduQsoQWGtNdsaL5lBO8SHslVV5BJoAibUO6K1i8wJgWpuIlZqj00FLpOYxIUZIuNEg9FPIWGpSMlgyXRQgJ6qdy83TUHZMuRFCwVPXTUTrqc9BR+xDlVs6KndpcSmSKJF24+StRvMiE6tKJu2rFi0xQpGVI/dUxQtFiUxQvt0DxYlMU6RiLswpQGQUSjc1Veg4jUpTytDRQvoa5Em1ruJxy4shtdbdX3bRFclC9h5rb1XiRdF/7SpGedMpS/oLun6tXO3o/ItdRn4P/NOTiPw25+C3/pnxh6mFWANpqkmM5FS83p+KhtFeicP5KlV6nESlKEto6TSGpPzmZsT+Py0XZKjKxVjYPubrbMtQpWDy3x9cxX0cDdR49H1T5Z5IOXlfew+vyO7Qw/achF22Rfr0a8le0UCXVzZMKWtH8ldTInJYhrnpqquwajWhRkj4oUqejZLJknva8QTHbezDQTPtABk82xaFMvs68Ln2Z7XwOqrZM7/UPwU93nenu25uah/hPfY6Uumy0RVztnTj1SMAMUcg1wM1bfJVdHyJKYkrtZjGspvz55AWU8Gov1XWr3tf17HeC8rRFy/o7ucjX0UCeVs+exZ/uraeso/ocvC69hTc1D9FRl43/1OfgTdV9vK64i466bLyuvIemC6fpUbU+IRPjVLTIBGZG1igOmaySa0BESYaagzKZBAdR0nd1I5nn1xo6AVXbpiNPW4NGthxlcWogT1MDLcHqb/dQo8mXGfld50W95K2hPYtd+jFVD/9pyKWspbpsdNQ8ZHTjJHRU3aesp9osetubqky8LruH3wpu4dfvr+O3/Jv4reAWfsu/iX8/TEBb+FVUbdgiV5QKNfSRom3Y5/xJnRkRolS5ZTpKLGd1v34Xj6PQ6T2Ske1GSPxwslNsJNtq3abQ5UnXt3c0XpDJQKGtIfdHUd5ip5158+oB/lOfQzu8O2Q+M4RJbEXJ29dTfroTg6q1m2lhaiu/h6cByk+XGfai1CYWmqKVc3o0BNsSQnIkdYYeoQyhfslbwzrtF1tS7XwOSixnKRT2lqAJjPzlBPY1LjJUnHGiJ/6lX/PS0FGbRXfbXlfdR0d9Dn4tEOF1+R3aivpPQy46qjPZYtVHkXpTlYmrEVcwzsRS6Wsx7EUpX2ce/SK0RXLQ3suc2yOdWvepdN4oeZk3JUKVv3Ae1aXrFNtVc4i53FT9adX4HYYb3Tm1W0PFawYqWPZdwpvqTHS8eoDX5beZ3TexxfTm1QN62+vKu0xxqc2iunWyIiUWsJ5w/SZfJV24YS1KtUenoMhQmuFPMteofDU1wlZ/cjJKLAbHUjiDlSLDOfTLIu/FqT85me5yyOseV6ydgapt01F/ejLJ1NkFXY1uVohj6or056BgYdc5mH66v4GyXGoy0VGTiTfVD6iROEViIunmyVhNHeIRO4mAddRlU9ZXfQ7tPJf8T38WH6+7YydyU48qdS2GrShRoxji5bHF00OoKG0NlFrOorsgeVwuqveSUSVFyApRvg5lCRXqzkWp7SzUuk9hpOVoDeOg+epE5GlpsLp4hK6RLGDadIm5PBdloWqgqRdBq2+qrku7YRKBqbyHjupMGTHJofxK9TnoqM2iRuvKbuN12W26jKxIvam4i98KM/BrXhp+zUvDb8U38Gt+Ol6X3cabqvv0du6GzfjaQrkI72ErSnlazAmPZfaUr6NzUv88LhfVB4goKbyOMknJmq5I81DLhgfIZuHM43LReIGsAtznay2eRUB/1uxbaEpH7QO2NVTzEG+q7kv9QBV38VvRddra+TUvTSpUddn4rSgD/6nLxuuyW1R3sJ763CEetZM4yjtqsui6LQ/sI6KkiMotM9DGo9bkYkwnkfkFrz08FfkLyTSS3tASwpE/MhRKTTRVd/uGOrVHpiBPUwMFi+cqLe4/JGjKdWB31DzE64o7UoESW1O0A1wmVOA/YkuqozoTv5XcxOuKO/i1QIQ3VffQUZ9Ni9GvBSJ0VGfi3+V3cWj/QqXaPWxFSZZGH2bC/3KnmfTwv7rbRiD0Nz892CLXl0R13bLFllI2ZRUV38Cb6ky8Lr2JXwupETtJ0OWbqvv0yF5HzUO8qbyHN+V3qK5hzUNazNpjlMs3NiJESULhMqbVVHOIdNsIQ5dS+1lovNxzX9O/H2zqdsiftpborpl0usobSUiBbB3iz2+q7lOiVf0Qb6oylDqvESVK7XwOGi9I/CJkGglhCMMbj/wF83pt7Y82ssY3tk44GXBBoSDRoiSG7t7JRoDLWEadwwj+05Cr1LmNOFFq53NIniTCkKWNx0GJBXOeZm+ON1inz1oKabSRNT6xsMeCzS7Yfe44fn7khl+en8Wvef6ofB6L+uLbzEjwzrFMtVmssIOfHmzu8zkOG1GSLAhYuWU6ERzCsEES+9XG46DUejYdQFkkWU5eu3cW/2m3+XJFSRbZ8kHHud2Wz/Wbjh/TdPHvrN34tSAEvxWEKHXOw0aU8rgaKDGf3W2KWwJhKJHH5aJIdy4dHiCZviNvNLknZF6Z0StR+jZgarflE71VG4A8LESp0WciY7WIdj6HsbZ7qTVZMJIwNHm1S5zx00fq0K45NIXVdevJZN12PgfPA7sXmc7HdFfeT4UJ3tr5w0SU8nU0ULVdOju5aus0Rp87j6uaNbUIBHXQ2W8kCVaV/bGt3jsNpbbdZ0ktDZ2sclHyOqyapZUkDA9Rmk/dpBKrWfTEUYm5+2onJVAFS0iQJGFoIruibmuodFqPZHvT1Yl0Yrju6qqPmqByUdqxe7FKz3dYiBI9KVSG6r1Sy6liwwwUGShOCUEgDBVk86U3B06grabqfVNRe2RKj5aSV7UoOW9brtJzHBai1M7noGrrdDrFRufpDnlcDbQS5zdhGND5x7dq6/Re19GVwHxgZMUqv3nnki6PcXRZodJzHDai1Jkyh5moPzkJhbpzepzjeDBSYj57yFG5ufcvSr9fh2Ew2FF7VOrglqTf6QtdCQzXwYhV/mXQlC6PWbt9mUrPc9iKUsW6Gay+91BENon8UKHUUrVDxHnzlbsG+TrDw59Yc3gKylbNVPp57tLq2cruilWGTerymF17iU+pdwzxBQBGuigVm81Wsj1D10ruL8aaWCoUmKMHF7DKt/C6FrJ1xFIaWYxkUZKMnCrDULaS+4svLS0UCsz5o9pyj+lKlHTXGKi0fUSUBjlDUZQqNvbd3yFBNqFcXyHpd+UzycYco42s8Y2tIz4ys8P7xlKB8feSHwj5obFiUZpua6LS9hFRGuQMRVFS9pwl8xiVoc6LBMsqYrGzIT40scFoI2t8aGJDfx5tZI3Yc/JDZ2bameJDExuMMbHBJxb2DFFSNtNkZ4goDXKGmig1nFV+tRJl21DpovrRv+GE24EFCq2ezKvyo8L9PDVp8frcahXjmHmr2CN2ykBEaZAzpESpj/mkGeerpdz5FuqSRTC7I9t/Nr60ccRoI2tG1220kTUaohUnjessYOPM7PChiQ283JRLf9sZIkqDnKEkSsquYFKoN1ep78/XISNtPWW0kTU+MLbGlzYO+MTCHrNWr8fnVqu6POYLaweMNrLGWFNbjBP7ohZt2arythFRGuQMFVHqyepV7+p/AAAgAElEQVTDXVHpMkO5NqjAShtJFIdMwUynNRhtZI0xpjYYZ2aHb4O6juey2KiHbyztMNtxNQzWrsbZPev7pW1ElAY5Q0WUlBl6b7wwSa3fP9IoWrgChRr6qLC3RqO3C+rObUGj94YujyleRB1TucYOjd4uNP3RPiJKg5yhIEpljt2nzFBEW5Tyju2WIDL031MyLGfD13YJSvRNKJFxskHtobUo1NBXeEztsXl4csgBJSuoY6q3OaHR2wWvtjqiNbjnCxf0FCJKBNTsn6qEKPS92yS7inFfafAmC1/2hqL5uijZ74yGM5tRqKGPwnl6KNTUQ72n4h+Wl5ZauLvaFDe2WaBQQx9F8w1QyNVD9c7+mb5DRImglCgokzxPWUGq2KR8kOZIpCVwItV9s2FPKemKIp0VKDVa3O858NUqSvwzXCxea4Mxxjb4xtoRm44fxReWDrDfYaH2GzdSKDZVZm5Z362kwhXKjbSVmKl20i9h8KAWUXLeugIfmdhijDElSB+Z2oFj64QLIZfAsXXCl1YOcHA7iAP7VDv7mMCkLUI5a6XpSt/8CbIZHPrEEE5FQ+ieARcliRCNNbHFWBNbTLRzpj4b28Av8iqmOa7FWBMbzHJehzHGNtBxVG20KEFKnrYSTvQ+DsHXn2FnCR0o64wwNBhwURpnYosJds4Ya2yDscY2+NjUDl9aOmCssQ3Oh1yiBEuMRMDUfZGGI81KTnht6+HqGbKowrFN1vQb/gy4KH1huQofmdrC3HUvjvt546jvWSzYtAVfWjlg/sbNsDm4Dyf8z2PrSQ98Ym5HRKmfUCbUoMiwb/nOJfmk+0rLNTL0PxIYUFG64zsHsclhtAXUE2Y5r1P7RRpuvNqtXJ6ivnxnod4cpb6z6arq42EIg5MBFaXVW1fgM/NV+NiUsoDGyTi7u0LdF2m4oYw4VG3v/Qx8agmgvn9nmcNMehktFpoaKNSbo/S8O8LgYUBFaba9OcaaMMXoYzM7jO1GnG5eGvpJ3wcLxcbKWSx9+U5l/Ui9oT8WLSAMLAMqSt9Y2fXYOpJlz94lar9Qw4FWJUMAGn16Hz2tXBxU35Fd948wtBhQUZJ02yQhAZ+Y2+MrK8duRWnF6pVqv1DDAaVCAPpgJaliXptSaGqgnUzUHXIMqCiN7YUfifiVVEuTr3Iz8fvycis72qYq6o4rnw2TMHAMmCi9Cp/IiD2avGo1TPfuwQn/8wgWBCJUEIgTAedh73YACze7EFFSMcq81EUrex8CUOs+RSWCoiqqD05V+z0g9IwBE6WC4GkYa2KLx9mJvbKQdp71guh6tNov1FCmymW6clZSH75T3SIkj1o3IkxDgQETJbeDK/CBoQXe/fs/MGrUqG753dvv4L8/HIfRy1YSS0lJlHmRq7b1fjSrYoOSc9v6kZZQEoA52BkwUeqJEHVFivvHar9YQ5Ei/eEdAtB7NEiWykHOgIhSK2+8fGvod6PwP394p0ei9Pe/vq32izXUUHauWXMfoqjrTys74bb/KbUmcW+DmQERpb1m77FE5uE+Ktev5H83Ay7effv30J/8OerObpYrTOq+WEMNpUa/tPs2Gz9/wTy1i05PUPe9IShmQERJIioZ2y0Qv9kEcz8fg1GjRmH74pmMJOQS/vxff8CoUaPgoDERmxdMx7tv/56IUi+pP6mcxdIa3rfvVaVwFBnMQdXO6ag7Nhk1h6eicssMpWOtJJSvJVkrBysDJkrvvv17WnSar+7FD4kX0Hhhm1xRag48iHbhGfr/hM0mGDVqFAqufqn2CzZUUOaF7euCji3BE1QiGD2ZX1e8UjlfGbGWBi/9Lkq1Yd9g1KhRqDmziVqSJd4bHQ25NJ0F6bfiG/S+N/U59PZRo0bhlNP7ar9gQ4Eyh5lKvax9dQRXKptRkqvRq3xJjZeUm+jb5EsyDwxG+l2UGr1dUHBsjVR0ym7R3bk//fF/0B5ziiFKHQ259P6ZUzlourQTjd4uSN1qhkZvF7QELVX7RRvsKPOiVqzpe7dGHZZLc0DfrTOS53twMgCitBkN57bQolMU7sVwXne2lHhXjtL73nn7bXq7pI7WcLJWfFfkL1TG0axcqlllBKkluO/xQ+VOfbcM1X2/CGwGxKfUdGkVGk5tRqG2AWr2rEbCbjt89ek4lJzcKNen5Gq9AtqzJqHu3BYULTBE8XJjNHq7kPiSbmgOVM6no+wcsT5/twoWAiCiNHwYEFFqubYUhVx9ms4iVOu2DrWH17G2VzrbMo5R98Ua7CjXfVKfMPQlHqozZatmEVEaJgyIKLXxJqLCwQaFXH2UGpoyhKfhxCbG/6Wm5tJ9Z7dIRen8erVfrMFMzX7lUtw2+ysvDOq0Vpp8++b0Vvd9I7AZsGkm8rppjd4uqHNbTwtP0eKVCsuRvDhdo24rSZk2qPMatEWp/94RmAyYKLVFT1IoON1yca3aL9RgpthEuZgdVb2Yffr+Pq4fp6rvb7pMJugONgY0yVvLtaV9EiV1X6TBTFukclZSiaXq5oENRUupNVL995DAZMDXfWsJmd8LQdqs9gs02FGu26Zan4o629DXeCV13z8CmwEXpXY+B1ePaeOex4YuBcn3oLHaL85gp/GCciluaw6oNulZX9vRHKh8F6p8bd+iydV9Dwls1CJKkqySjd4uqFxth+KlRig1NEWhtgEKufo4tmYDSezWAwaTlaRMe0rMlY+sHizXgKA8Ay5KWX5zpKLks0OulWR/aD9dpjKCLJUjj8pNys0zU0UIQGeq903tc3uUcbZX7exrOITqnOwE1TFgomS6wQAfmVjD88o5WnBel9+RK0ocWye6zHhbJ5i77sKjuI1qv1iDhTaeklZSH3MldYdS68r1cRROme8kc98GJ/0qStURE/CZqRXGGNtAd/sOXOP54yNT6RJL54Iu4qfMCFqMmi7tREdDLr1/kv1qjDG2gaP7Iew+64UxxjaojmD+wjf5jLxk8IXL5yolSv3ZNqXyHWn1LlVt40XlfGpNKogkJ6iefhOl25dnYqrDGnxiZodxJjaYt3YDPjW3R23hLVjsd6WFp6MhF29qHqI97hxDkMYY22DhZhes93THUd+z+HqlNaYbWkFb3xI1uzUY01ZGUgBca6hy89tKbfo3FWzDOeWEIo/LRc2hbn5oeBwULCf5lIYr/SZKdPfLxpFhHW06fgRLt27Diu3bMUa8OKUkf5L9YakvySfsMmY5r8PdezEo1DRgiFBnqjYtUPuFHCiUXeBxQNqopFjQaGugyGgOKrdMR7nTLOQvnoc8rmoyT1ZtIZknByv9IkprdxjRC09+ZeWAz8zt8bFYmBZudsGao4fh5XcOy7dtZ63z9rnlKhjv2QPfiCtwcD8IruUqhgBVb9+JhjPH0XDmOJp8zuC3wtvoaMhV+4UcCJRNcVszQAsytgSpJgNlf6Lue0lQjMpFqZXHwVfWjvjI1E4sNNaY5riWITwT7ZzBSwjBGGMbXAi5RG8/EXAeY4xtcNz/PA5ePIWrkVcwxtgGRcZ2jGyV8lD3hRwIhtKLWLFx8K79Vus+Re33kqAYlYvSDBtTjDOxZYhQZ1EaY2yDtR6HobtjB760cmBsT8uIhuGuXfjcchW9bb2exYgXpXJHJVPc9iLNrKooWDT4VjbJXzhP7feS0DUqF6Uxxjb4yNSW4Uf60nIVxpowRelS2GXcvi1gidUaDzecvnaRtb2jIRd5T9Mwyc4ZY41t8ImZHQ7sW6L2CzggKLl+W8Ei9b2I+YNMmNR+LwndolJR8j2mjTHGNow4ozFiARlrYoNxMsL0heUqlL+8Tv+vvWEzFVBZehcuJz1YouSzknKKjxOL3Sdmdhg7QqK+C1coFwKgDitJle1XFSRz6dBApaIkKyKyXbiPTW1ZIjPBzhk+oZfp/53cD2GMsQ2cjx5mlR1jbIMPjW3wpbENXE4ewxeWqzBWbJH5eWqp/SL2J8qGAKhiCocqKFOy+6kU/RQsSugf+k2UPjG3l46oWdhjrLENowt32Oc0Vh0+SHf3nNwPQXP9Jmis24g54rlvDFEysoaz5mRUe2/FyYDzyLjJxxhjG3xqNrytpTwtJUMABpF1oMzKI33l1R4yTWmooTJRMt24Eh+b2eFLK8pBLStAn1usYomM3o4d2Ot9nCFKNgf3Q2PdRnxmYc8q/4mJDS5aL8ar0xtRd3YzrvH8YHfoAGY6rUOTmrsn/UWd1xSlXsjq3YPzhaxY0/9WU6HuXNJdG6KoTJQ+NbfHeBtHSpDkdL86w12/CXbiibefmNnByf0QZjitxVSHNYxyY8UBmGONbXBprQlqz2xBw7ktGGNsA93t2+F++Qx8j2mr/UKqGqXntw2ByaaVLtOhqmBIWoz05qj9vAjKoTJRoqwjW4wzsWWNtMkjiB+AXWcpS+kzc3s4uR/C4i0uOOxzGl91ChOgRvAc8KGxDWx1zakwA4c1+NxiFb6wXIVPzezUfiFVTd2xKajYOKPPNF8ZOvO6WsOU8znlL56HZn+S1na4oBJRctm5DGNNbPCJmT0+NbNjiIn7gYVyRWnT8aPwjfBliNKiLVvh6H4Qs1evZ5SVdP8+NLKG+6UzGGNsg/SMKGw/7Yk54rLqvpAE1dEaxkH96cmo3jsNFWtnotxhJkqtZ6HcaSYqN81A3bEpaFFBYjjC4EQlojTWxBYT7ZzxmRzfUUHwFMb/sqK1+uhhTLJfjc/M7emQgMz7sdjaKSRA0h380MgGaz3ccCXiCr6ycsDuc16Y4bSWiBKBMIxQiShNdVjDiuKWkH11Oi0sn8mMyE13XAv9nTtpS0giSsu2bWM5xr8QR3dLAjJPBJzHuWsX8bW1I11G3ReSQCCoBqVFqSBkGu1DkhWJMcY2+MjEGiEntOSKlfXB/dh9zgufmtvjSysHWpTmrtmAgz6npHWY2mK8jRMd63Tn8kyMMWbGQR05uFDtF5JAIKgGpUXpxqXZjC7WpzLW0EInI+zdu1iuKC3ftp3OnyQ7/+3Hqkw6uZuESfar8Yk5FRXezuegLnIiptuY0d+h7otIIBBUh9KiFHt2HmW5yBGedj4Vv6RoBG77aU+GKE20c8ahS6fllv3M3A7jTGzVfsEIBEL/orQonTi8gOWQlhWlhU7GckXGcNdOLHHZii8tV9E+o51nPLHGw01ueUkXUd0XjEAg9C9Ki9JJt4X4SMa/I82jRAnILFszuSIz02kd7t6NoUMCxhhTKXOnOqxRKExElAiE4Y/Kum+dfUPdiZL+zp209SOb5mTl7t34pFOsExElAmHgaYnkqGWqjkpFSZ6AKBKlI5fPwHDXLtb2M9cuwmj3btb2L60ccC7IR+03ikAYCXxrROXBeskd+BxU/S5KJpstaWtokv1qTLJ3BnfdRuhs2oKlW7dBd8cOurzJ3j0YY0ylL5GMwG3wOoI7d2Kw/bQnXE56qP1mEQjDnWKP6cjjcvGdeBpPc+TAfr9KRKlzt01WlKIC1sL20H48zU3Csq3bYLR7Nybbr8ZFcS6lpVu3YfIqSoB8wqhtL5+mYryNE760coCn3zm4nDxKum8EwgAhmVNoMGEh8rhc3Lcd2MylKhEl4z17kCqKwo4znvjcYhUS0yLwheUqtPM5iPZegk/M7PCleFUT2e7Yiu3bMc7EFm/qc6CxbiMrknuinTO+EQdkjjWxgfk+V7XfMAJhOPPd2tm0KInmaVITnlfMHdA2KC9K1ygrRxLNve/CSbic9MBXVg5o53OQfXUGFmx2wf4LJ7Hp+FFsPelBp8v92JRa8+1kwAU8fBCH8baO0Nm4GdYH9tHCtNbDDUcun8FYYxv8q1Cg9ptGIAxnvtekBOmmphYtTvfsBjYNjtKiZL1JjxrWt7DHcT9v3L8nRHR8MEIEgXSZe3eFGG8jzds9ZdUaWO3fh46GXPxQ+QAdDbkoeJaO6oJbuHVLwCj7sZkdzly7iI6GXCQl+6v9phEIw4FMU/kO7DyblcjjcjH100XSHFXnpesFPt85C8929O8qyyrLp1QXOQF+e9di+Sp7lv+noyEXb+pz0NGQCy8/b3Q05MLN5zQ6GnLx/HEyOhpyUZV/A1UFN9HRkIvqgpt4cD+WXj7J/TJV9qfKO2q/mQTCUKcuhEpL/OwYtUpw8QXpOnjFkUeRx+XClLOAKhN9hN73UlMDz8WW1MY5/TffVKU5uhu9N6PR24Xiwjp6e1xKGC0wP9dk4dfabPxck0Vvu3UrBslpkbh5i4+OhlykiqIguh6Nn2uy0FB8B7/UZGHbqWN4U5el9htKIAx1vtORn+3zuxPTEehgitwlOhAt0MILTS5eeGxEO5+D73U08EBLE8/EovTe3xfj2Yb+yfKpUlFqDdPAy6Or4aAxEU2+TEup4FkaUtMjmQtIVtxHc+k9saV0EwXP06G3fSe93zvYB3VFt6XH1BNRIhCURSJC4VracJqxEN/LCNO+mToo8d+PPC4Xxde98cRIAzmelniuyUXQbG3kcbl4qKWJ9/6+GC+0+ieGSeWLUZpM/wr5x9ag0duF3tbRkIszgRfQ0ZCLi6GX0dGQi8i4YMpPlEYJlU/YZcQlhyEtI1rhKrhviCgRCErTFEll7ZQI0SNtTXgvpHxIX49dhO9ijuEll4vsK7vxbfgqVDzyR7CGNl3+4/cX4b2/L0Yel4uWfohhUrkoyaOjIRchMYFyhSaIH4COhly8KriJqvwbePhA6ksK5Plhz7nj0vJ1mWq/oQTCcKE1mgPBMk1wP1uIzz9chOrnwZj16SKUPbiM22uM8VxHC9XPg3FptlSQDs7SQXM0ByF7Z2LFQp1+mYYyIKIUEOWHjoZcnAumRtE8rpxDR0MuggWUILmc9IAoIxpZmXHoaMhFXEoYDl86TYtRVFwQ7t8T4k3tA7XfSAJhqFNxbCqea7N9Sg9Pb4bp9KWofh6MV8+CUHLnIh7pL6H3601bMCDtGzBL6XUdNfp2+hrVjdvnfYIREvBD5QP8IuP8luXhA0qs8h/Hqv2GEghDlc7Ldr3kcsGfPx/zPl+IzU5rkGm0FM9iPVGS6YvKHH88j/VEHpeLHC4XH41ehElfLOqX7lpnBkSUXlck0QJzSuxbOnaVspa+f5KKjoZc5DyMx7e5VLnKvBu4cyeGPsZNbDX9RIInCYQ+80KHaRk91mT+/+0CbTy21sf4cYtwd9F8iJbowHHiAtzU0WKUeypn1O3bXbOQx+XCXWu+0u0cEFGKCtpBC8wvtdn4pSYLP1dLraLUjCg8y01G3lNKoBJSI5CSHomfa7JQX3wHv9Zm44jvWfzyva/ab6w6KTaRTgEotZZ+bvZjLzfUGspBwRJqpnf+fA2UmM1Gidls5HE10BLMLl9sNIeujypHfW4N61RvGAcFi+fRC15WuUxHO5+D+lOTka9NDTWXO81kHNN8dSLytKljClfMlfku+ZHCsm0pMlQ87NwSPEHaFk0N1orA1XumIU+TalPB4nloCZqAlpAJKFwxlzpPi9lqv6cDRWsUe3HTh9qaeKitiZA52rCauBDv/X0xln+2AP6ztBkTcuXxfLP02lWcl67knL1E+RG5ARGln594IP9ZGjJlAiIlMUstZVRIwIN7sbh/LxYLN7swrKqm0rv0//+6ba/2m6tuJDe/nc9BO6/T/wrKl5hLH6CG05NRaiM/Ile2rpZrExTW3RpOlS02Yb7UDWcnKWxL7VHqwa3aSYlY+eoZlLjazey2LV3RGsYR1yP/nEptqF/w1nDq/5Zg6rzaItR/LweSgvPTWGlICgIm4YMPFuO9v1NE6cxHHpeLaR9TI3G+M7UVilIel4vc1dScuNvamgiaqw3d8QtRdXSq0m0dEFH6KXMbLoRcQkdDLvzETu8QsZM7ITUcHQ25SL/Ow507MUhIjVAYEvDP5CVqv7nqRvZlbYvsvShVii2b7uqW97+E1ghxvZZMUWq6PFFhWxpOTRKLEmXNSESp0Uf+Sr49FiWxQJatki9uZatm0qIkKdvGG6/2+zhYCLvAhaWrIe4tlHbR7mhTE3EPzdZBjvizIo5p6iBgljbi5mrhJZerktG4ARGlH2/aQpAYIldoImOD0NGQi6c5SXj2KBnfPkqm9/ETQrD9tCf9/w8JWmq/iepG8jBUbZ+GPK4G8rgatBWgqHy+jgZKLWej2GgOyh3lv7yydbfzpVZPmQO7vESUSjuL0pUuROk0VV/hsrkotaK6h40XFC8trjJRcqAspcZLVNuq9yv/Sz5cSPWdA0tXQ4R6S0Xm6Cwd+vP1Bdq0FXV9/0wUnpqGyquTUeg1HS9k/FHLvlqIvdN1enS/esKAiFJbij46GnIRLryGjoZcHPE9Kw6cpKwilxMeePYoGXfvUs7tlPRI7Dt/khajEEEAHmcnoj2GPFBSnxL1sjV4K36xJeVLzCjxaLo8sUeiJPH3lK+ZIbccbSl18sk0+XYvSpWbp6Pl2gQU6lJ+o1Kr7ruSXdFTUXq1ZxpdZ8s1suT3w4AZeBEsfZ8k12bRZwvpz8kr5oNrsAJas3Xw6VdLWXUEz9JC6lxNfPAe1d0rOqea93NAROmHeC4tMD5hVES385FD6GjIRXPpPbypz0F98W38s+qBTPR2Dv35UVYCNS1lENxMdSP7skrEoyuTuXP3rS2qZ3V3RZvEaarFdFRXbJyBPG35CcHqTzK7b919n7x9r7ZPY5XrTfetcst0ut62aPXfy8FEkfdU5HG5uKcp7a41hk+ApashSoMnwtNrEaxcDRjHSKwo/1naeK6tuiknAyJK7cIZtMCcD/ZBR0MuPMUhAS+fSkMCbtykJuSWfp9Bf+5oyMWRy2eIKImRfVkr1lB+mTxNxfluZC0l2W3d1d19O6hRrZrD1K9jawh1fNMV+ZZbrZvY0b1d7NPije+y7fLaIte/JXF0K3Del9qJHd3iUcRiY8nI4sDmCBoKSK75C00u1h1cgXY+B5auBhj/BRU0eddvJrYcXk6Xl4hSwCxttHTxY9dbBkaU+MwAyh+rMvFLTRZ+q8umIriTw9BQcgcvHqegoyEXohvRuHmLj39WZaJanM7E9fwJtd80dZOnLZ3dXbCUGvko1JtLb2sNlZaVjDLJRZv9QkpEpjuRo4kejzwt5mzzMgVdw0afSXLbUbBMfkbDzvVKyF/AtMJaApnnWLGO2d2k/G7S/e18DgoWz2Vsaxvg/NODGck1sXQ1pLfFX5qLlZv06f/ro6RdX4ko+a1RrcAPmCjlP0tD0QsRw8n975qH+EHcZcvOjEcQPwCLt2yl918MuUTvf1NDcikRCP3NHV0thii18zmwdDXES79JrLIWew36pQ0DJkpnxdkjg/j+6GjIRYR41E0yKtdWfh/BggB6NK4zPz89rvYbRiCMBNYd0mX8b+lqiKULmPPerpzRxvmTOv3y/QMjSjGTERXHFpvf6rLBT6BE6cdXmUjLiEJ2Zjy9PyYpFLvPehF/EoGgRhIuzcXMxcsZ2zpbU6pkQEff7t0ToqMhF97BVCBlrnhUbY83lZ5k1eGD9LSTHTLxSb88O6P2G0MgDGdc3JajVWYUtyFqAirCqS5bYzQ1Cic7yuu4X7ff2jIgotTKn8gKCXB0PygOCbhLD//nPIyX23VT9w0jEIY7LTzK+knzlc41XC/TjbN0NYCX82zx9hXID+2/mMEB8ym9rr6FjoZcemWSE/7nqSwB4pCAjoZchPCpRHAlL0TIuMHDm/octPNJoBuBMBBILCKnA3r0NgtxN83t2GLMXLAM7fz+7bq18wdQlCT8mLEJ7fHeaA51Z6XMffk0Fe2VD3DzFh+5WQlovLBW7TeKQBhJvAieCktXQ1i6GuLW1VlojubAWSxSlq6GKA2fjO1uy/q1DQMuSm0Rs6QrnnQSJe9gHxQ8S8fr6kw0em9Fc8AKtd8kAmGkURc1gRYmu33SGCVrV33Y7tNHZQQ7PECVDKgotVxbxhAkWVH6IUET1aLVjH0tAXoD1jaCAgbZjHrZAFFC/5LuOxvWrgawdDXEuoO6eB40rd+7bu38gZqQGz2JJUYUm1ll5ZVri57S721UN02+E5E3X4OOqK7e0ylh2f6pdMIy2aRuRYZzkMfVQL4Oe85Z0UppsrT8hfOQryNNiNZVZoG2aA7yNKVJ2SR1KJpCUrhsLitSvDWMg/xFVB3yErXRbeFqoHDFXPp7mq+yv4NK0aKBPC0NcQI4DcZ8PgkFS6Vt7So5nGTuXoN3//7iD0csXQ1QNRwspZqQifjO3QmZe21poWkNlz9xU56AhTqPDIup8bx4Jv1G+bPzS21kMkLKWAwFi+YpfME6zyFri+bIrYN5DCV+kiFg2dzOisSMnroxfx5ru7zyLdfEaVUWSqeaNF6chIqN7HxP0vZQVltLMEfhxN+ezN/LlyzGqKAOgmJqIyeyJuaqmgHtvrVF9dziaQ2bh0ZvFzx3d0KgAzttwnBEMkdMUSK2cqeZMhYGl57xX7BkHpouK0qWpsF6Seu8JlOCMJ/9UlZspCb5llgxLRHJPLKCxV2LQeesBIoEQpL+pGAJJUptkRyFuY4k9dYe7f756U6UOifPV/c9H4qIrvRvGuEBd3QTFNPUnSg5z0T5mpkyM93Fk0yXzEOTb89FqS1K8cubv4ASveoDbIHoLtUIVa8GY3KsovKy6U8qN8xAqe0slhDS5+00kyEkDacUdx+6E5tXO6ah4ewkVG6i0pgULCTW0mCDiNIgoqei1M7nIH+h1CfTa1GK7kKUxF0beW3oTpTa+Ry0y9QtscjklZeIkmTmf8PZiQpFqZ3PQUtApyR0Wn3rvsnuI9bS4ISI0iCi2+6bwyyUr5amB5FNN6JYlNgvXpu461Skz04dUmIxW9yt6pQmJGSC+Bj5DmTZ76g/ObnbLlKrOL94oTgFSxuPg2Z/+YGy1fukTn9JdsuuxFHRvgZv+SlUXu1hJ48jqA8iSoOIhm4d3bNQ5iCTzEySKK2XopSnRVlZiob7Jcc0+09k19PFMbL/V6ngo/kAACAASURBVLlM71IgmsWrpeTLdp/E5yOv7taIrs+pJ/vyF8xj5AVv9le8YgtBfRBRGiQ0XWEmLJO1Dtr5HFQfkq6tJZv6VbKiiTxRKlw+l2UV5HGphQS6a48k/IBGU0NhQjRpUjZmvYUr5nQrHmzkJKDTlIZK0CJ8iX2+svVIkuBJKJB0d2VS+Eq7wOzUvgT1QURpGNAazumXnNNtPCq7ozLZGXsT7NgWxVEcP8Ubj5ZrE9AaRuZCDneIKBEIhEEFESUCgTCoIKJEIBAGFUSUCATCoIKIEoFAGFQQUSIQCIMKIkoEBr+UJeDnwii08zl43VaOH9KoJF9v/tWEdj4HP960w29N36Odz8GvNQ/w0xNPquwPNXQdr/9Zi3Y+B//KdcOvtVlo53PwW9P3+PGmHaMuAkEeRJQIDH68aYcfb61CO5+Df3/vh/YYamLuLyVxaOdz8EP8PPz0lFqt+F8PtuGHpPlo53Pwc2EkXYdE1H5Imo9/PdyFdj4HPz09gR/i5zHqIhDkQUSJQCAMKogoEQiEQQURJQKBMKggokQgEAYVRJQIBMKggogSgUAYVBBRIhAIgwoiSgQCYVBBRIlAIAwqiCgRCIRBBRElAoEwqCCiRCAQBhVElAgEwqCCiBKBQBhUEFEaQTQIZuJVjLZcmvlT6HKNgums/T2pPzvJBRlpXqiNkb+GWq1gHl1fC38yvb1eMIve3iQgq9WOdIgojSAOZrVjT06HXJL9POlybg+b5JbZm/2b3HoDb6Wzyrpm/4w2HrNc5zLtfA5a+ZMY24J4QrVfJ4J6IaI0glAkSHtyOvD4uFmPyvkkPWDUmZTho7Ds+ZScLr+/9gR7W9Ype7VfJ4J6IaI0gpB9+fdn/oiDD36gqd4zXm65fZk/sS0cnvyyh+61YG/Wr4xtreHyy1Jt+BdrW76bjtqvE0G9EFEaQci+/EWHuD0q9/LIYqSmnWFsa/L5Bu18Dlr4kxnba/Z8hXP3njO2Nft/I7deRVS6Tu7Xa0AY/BBRGkF0tkgqhYu6LVez52u4y/iYDjz4J5oDKKH5Pt6K2R3b/zWOZtZKt2W/RmsYZSnlx5nKFaF9D//N/L69X6n9OhHUCxGlEUKtYJ5cUahx/ZpRrk4wp0tL5u75zXTZG6kejH11x76Ga/Yv9P/+whS6bNjNWEZZ75RH2JPTgQdn1zC215/6ekCuB2HwQkRphBAvutIjUUpPO6VQkE6JXqLWTWrJBN7KYHbVrn7D+P/hGUe67MGsHxj7WoLG41vPlbhy+y69zTXrF7QEfDMg14MweCGiNELYnyXjVM5+A8+bZfC6UYrag0xROnG/WKEoVe9jCsahh9IQA88bpWjnd/ZbSeOV9mX/TG8/eL8dbZHj0RrOFLHD95rp7h5h5EJEaYQg+/IffPADWkLGoy16PNp4TBE4/LBFoSg999BVWGdATDKa+VMVOq33ZL+ht8cFnZdbx+n0F2iLJqI00iGiNEKQffmDeTFoi5L/8u/Nlg7pX4kVMY7LuOyqsM4gvhC5SZs6Oa2/llu2bP80udvTrhxS+3UiqB8iSiME2Zf/W0/DHpXLPmWHfVnS0THvlFxm2ezXCq0qz5tlaPajunttfPaInrzvq3SdpPbrRFA/RJRGCIpEoaty5fum4sz9l4xtsmWfJTgqFCXZ76iO0eqRKMlaVoSRCxGlEUCTYHqPRKlzMOSrPeMhuB7CcJBLrB8JBeEGcM2ShgHEB55BzZ6vGL6q4jgDRh01+6gRvFfC+cx27SeiRCCiRFARLde+QbP/NyzHOYHQW4goEQiEQQURJQKBMKggokQgEAYVRJQIvaZJMAvhl1yQ4L8BTyMtUBs1Xe1t6g2t/En4NtIM0Ve24tqFHbgd7KD2NhGkEFEi9JrbgVZ4SzeOQQlvhdrb1ROa+VPwB30ho+3X/I6pvV0EKUSUCL3mjOcmlii5XLiFl2muam9bd0T5urDafiQ0C0Hp+WpvG4GCiBKh16x3u8x6sfcGv0RI+vdqb1t3LN98idX2k8IiRGV8q/a2ESiIKBF6zZ+M41gv9sWkUoSnP1F727pjnE0Mq+2XUsqQmJai9rYRKIgoEXpN55f6Ld04+IsqkHrzttrb1hVtvAkK2/5A5K/29hEoiCgReo3cFzu9DM/S3NXetq5oip6kUJTK0lzU3j4CBRGlXlAY74zHwu14HLsVT4SbUBxjgsboKd0e90S4GU+EW5AvtEVNJHP4/FWsAQqF1igSWqFIaC3zmUlhp88lMcaojJyDZh57Zn0rfyIqI2agMkoLFTydHlEZrY3KiNlo4rET99dHTUVl5FxU8BehWGDAeqn/Zp6EC1EZeCLcgArBElTwFlDwF6FCsBgtfGkbW3kTUBk1DyVCUxQJrVkUCq1RFGsjRWiB0piVqIyYg8ZodtuaeZNRFTELpQJD6vrIHFsoS5wtHgvWs9r+V7Mk+IsqUBOzQFzfJFRGzECZQA/FQnNmW+QhtEZJjCkqIuYyzrMw1h5FQnNURC9EfdTUbp+RSsEyFMVao1RggFcRI3tBTiJKvaCVNxH/Z8pjPdgN0V0/dJ3LR1zdR+9zcguW++vdG0rDpRkeX0Ysw+/0YpWq70XIQrq+iQ4hSrfvFY9aYTcvfInSbcsN0qPbduXcdqXbZuSRjQBRCVpiZiMjaA1G6SrTvlhUR82Re8/X7D/Z5TOi58IcPHjPTKD2511dEFHqJZPtr7AeOGF8FPISNys8pnP5cbaxeB6/De18DnYc91f6xTrvexkV8aZo53PwoUWk0vVtPpeK75J2oTxijtJ1vaUbh8TkGGQluGPuGuXPdeOxUOTHr0Y7n4M/GrGd1r3FO6EEIenfoZ0v39/UW3hh51Adpyd33+2kywqfkU9sBYyyo3TjkJIiQJNQ/hLowxkiSr3kS7tQ1sN2LeURRCL5y023xGmxys/fJsSj+H1oFUxB4NXjSr8IIUHn8TiRsr7eMVDOEnlLNw47rj4BP/U2UsP2K13X38wSEZWehZKUTfh/ZkKl6ztw9hpyEw6iLoZ9XftCoKgE8ek30CaYrJL6oiL98TxhO7hb2IJ5UpCHx8lH5L+Incr+To/ydeVd9+yX53gwQ0Spl/zFmP2w+aUV43ZamNzyqUHbWOUPnr2G3IQDaBVMQUk4V+kXIS7aG48TD6JFMFUlL5Z7ZD4i03IwdZ3ylsjqi08RkF6K5vgFKmlbaNBZ5CQcxn1/fZXUFyQqxPWUEBRELFJJfTGxEXiWsBOCoMOsffZnHiP2Zq7c56Rz2bcN4sWiNPKizYko9YIWwRTWw/MHg3j4i8qRk+gh95iVm71Yx/BDPJEbv58u0xA9FWcv+2LPmWBsPxmC7Sclf2UJxc5TwfizCftFyIg7j8eJB1ARMZe173+ME2HimQ1994fQP/IQ+keyaIzcb+G/ViawjjkbX4xoUS48Tp3CkdPnYOh+D4ZH7sPY/Qar7CjdOOi5M+s18czG6vNPcSm5DH7pFQhJ/w4N0dPY184wHg6n7sHZ+xGczj9hsM77Hv5qxm5bGu84chIOgefLjip/3yYV5sdzYHEil4H1iYdwPJ7OKv+OQTyC0/PxOMULqVcsWfu/tI/GnlMB2HEyWEwI/XfnKfm+wNjkFDyN345HgWwR1txzF0HpBWjr9Iy0Cmewyv6vRTL8RRWoTLJV+3M/0BBR6gXlEfNYD8/frVLgL6pAafJ6ucdobghiiwj/GB4n7EU7n4M2HgcNMVyUCgxxm38Q6VGHkRrpjtTII0iJOoqUyKNIiTyCxAhPxIZ5skVBLw53E8/gecI2PA1lWw/LD2XCX1SB8IzvEXcjB7FihDdykS6Kl/ti+aWXIyb9Dtr5HDTGLUTi9duIv5GFm2nhcn/R/dLLEX49DzE3H0N44zGENx8h9kYukm4+wJ20a2iN00BFJPvazdt+E/6ickRkvEDqzdtIu3ED6TdEEF1PQ2aqD/5gyG5fZvwRPE7YBztXdlT5gbA8+IvKIbzxCIk3HyLp5gMk37gNkSgBT5KPsMr/zTwJYenPUJnijGNnTrL27zwRiJDA0+CFnEBMqBcEocchCD0OfuhxhASeYpX/vX48ItJzUJrkhOpo9g/EJ04i+IvK0MafwHhG7kVtYZVdcfgh/EUVqBPqqP25H2iIKPWCJyFsB+Y3667DX1SBxviFco/5szHbj/Ig3gOPE/agMnIu/stAuS7Sf68U4n7iKVQlmMPXl+2f2nzlOfxFFaxf53Y+NTmV/WJRvoy716NY5ZtiNdnWiW0q/EUVKE5a1+W1S450Zx27zudb+IvK0SyYwSrfyp/EKv8/RnHITjiEZwnb8bkN21LxSy9HeIb8qS5tsbNY5b9wTEB02gPUxuhggl2AUvfhLV3K8gsUlaA2dgna+BNZ+98RW9WtMcwhf9OtbEF0i8gXl52p9ud+oCGi1AsCr7B/ba1PPYK/qAwtfPlhAZ3L/8k4Dg8TjuL7uA2w23te6Rfh/8xikJl4HHUCTXxqHcbaf0pYhMD0Irltq4lgd6neXUn5MsrSt7HKZwZbsMrP2XEH/qIKtMR3/Ys+cz07lMInqRTX0gvRxmfHWtVHs/1jH1gKkJtwCPXJJvi7uYC1319UgVsZPLnfnxnN7u5ZuqdAmJqBlphZ+Mg6Sul7MXPbLfinl6EpZi7a+Rz80Yj9g+QvKkdtkhmjbXPXXmOVOxdfjGuiErU/8+qAiFIvmOXsx3p4zsRSL30bf6L8C9yp/IdWAmQmeqI2Xg9f2EUo/SKY749EZoInWmJm4v/Moln7LyaVIirjqdy25fFMWeVnb6dEplYcTCiLz/E1rPIWJ3PhL6ro9tr9j6F8EYlKfyS3fHm0NvulXy9Abvw+tMewBUsyWpWT6Ca3PvtdJ1jHnPYLQ2JKPNoEE/Ffhsrdh7d043CcXwh/USnaBFRA7Xum7PAMf1E5XiQwo8f/YcG2ln1TyxApeqH2Z14dEFHqBZ9Ys0XEX1SBsHT5L31zLHvYeuYGAe4lnkETf4ZKhu8vXj6LzAQPtPEn4m19dn1X08qRLkqQ2z6fs7tY5bf6vaAsH+FsVvkdHudY5V2DX+JaekG31+4dOW0LFBXjhihabnlR0FpW+W0nwpAbfwAtfPbw/T+sU+AvKkdFsqPc+uZvYP+ghEcEIC0lAk0Cdteut/zBMAFX08sRlvGS/s4lLmx/4ilhIXJEl5gvYacy7xjGwy+9ArEpGWp/5tUBEaVe8Cc55nh4+hNcT5P/YqUHbWCVX+8ZiTuJ59EomM3a97Z+HLZ7XsVOryvY6XUFOxh/ffGxLZ91jCD0OHITDqFZMJO17y9midRk0+RzcttnvZPtyzgbX4JAUQnaOzlj2/kcfGTFdnSHpD6GILXribhtckTkz6ZJiE1JwxOxw78z63cfYB0TEHgBOfGH8UpOt3PSxuvwF5WhOVZLbn3jrNmWWnrcZVxP8sf3oexwgD8ZC7HN0w/bva5ih9cVbPfyo9nm5Y9tXv7YfjwA+8/4wTsgFEFp38NfVIGH1wPo77x8gX0Om87fQ0anmLbOZf5mTo28Pb9xvsvrOlwhotRD2uRE/P7BMB48QRju8najNGwOSsNmoyx8NkrDZ6M4dA4018vp7vn643aiD0rD2aMzkxzDcTN6L27z9uJ2tCsFzxW3eftwi7cXfzNlWxs3hV7ITdiPgrD5rH2fOKXDX1SBqnT5I4MaG9g+qEvJZYjMeC63/N+M2X6hKKEA9+K8UBU5G5URs1EVORtVkbNQFTkLTTxqnl9lFHvkbYITH8nRXngWbYXCkDksvl7F7voIoy8iO8ENL2KcWfvMD8eBLwhGSbgGfR8kvAhZjLc6TR/5vX4cbiddxLNUd2T4sX1ly7cG40b0Ptzi7cctnvgvfz9u8fbjJv8AbvIO4hb/EO7HuiM7wQ1pKVF4kn6K0Y1PuGjCqnfFLh4SeOdRGj4bZWGzcT+YncXzM2cRdd+SV6n9uVcHRJR6SDNPNRG/EZEBeJB4Ak+i7JWu63d6cchM8MTzxJ24F2jM2j9/7z3K3xPDHt1q53PwOz12nX7p5YgV3ZJbXl4XrCuuRx1AO5+D3GtLVHLtrsf7ICfRHQfPBipd119M4nA7yQdNqebwucAewOgNk53C5V6vSv7CPtWn60aFcdSPwHCAdj4RpR5TG8kePu8L6Qn+yEp0x9kLp5Wu639NhbifeBLVSVbwucCOIN4V+F2XTujO5d9dmUCNYMnx8zTG9H4eXCLvDJ4k7kfctZ0quXZpyWHITTwkV0x7y/tWQtxIuop2wSRoy7Foe0sGX17k9QSM6kNbdwZ+B39ROdpihtaCDKqCiFIPKYllm9m95Xd6cRAlB+FJ4j7MWK18doCp62JwPckfDYJ50HD2Ye33TS1DQBfDyp3Lj7FPg7+oAvnp7FzbT4OX9bp96XG+lGVz/IzS5/pH40REpT1AWTJ7BLAvmB65gfiUJLTzORhvp7zldS4sDU/T2ZkA/p8Ju8vbHadjixEgKlPJc9t0bxUac1zQFjt0BI6IUg+piVZ+xvwfDGORmBKH8mRnbD/GFpHeculaMFKSo9EqmAqOA9MJ/WfTJPillyPhxgO551MVZ8Sq73BEPvxFFXglZK9MUhLVu7lrfzWNxfWkAGQnuiPp2lalz9WTX4iA9FLUxOjIHWXsLZfjniIyjZqHpr3hqtL1HQ+9i7jUVNZ18z3HHuHsincMqTixayL5sWU9pS1mChpzXJg8cFb7e9QTiCj1guwQU2htjsRndjyMs4rE2C5434IdM/SpYyp4qXdRF7sYbfwJEPjvwJyNfJn6ophYRmGsVTTGWvEw1oqHj234GO8ci+V7ExEWFYIbSVeQkRyEdj4HHLtAfG0XhG+c4+Fw+gGuppXDX1SB71P2yD2X6Mub8JVNICY48aG1PQ2neN/CX1SBQFEJaxqEhIfBZpi2VoBP7fgYa83DGCsexlhFi9sYjY9teBjvLMTuM+HIiL+EpJRYvIpfiTY+Bw9DrbBkdxw4a1PwuVMqPndMwxeOKfjCMVmGFHzumIrPHNPwubMIEzbcwIJ99+HFK4S/qAIh6d+jTTARrfzJuOxzFBPWJmKsXQLet07EaOtEvG+dgPet4/C+VRz11zoO71vHU9ttkvCJYzo099zDSWER/EXlSE+lAi1b+RMR7bcHGlviMd45Dl86xuNLx3h85RiLr8V85RgnJh5fOCbgS8ckRtvPRd6FMFX+EH5OkD7mb4vBZw4J+NAmAf+wThSThPesk/GBXSq+XncdZsdzcSWVum/5GUf7/Jw2PnCmhajUyQyFXH003NtMbcvegtbYwR0lTkSplzQItfAiYQueJuzEk/hdeJKwB0/i9+JRvCsexe9Dbvwh5Cbsx1kfb5YomXo+RFjaUzTHSGOAChLX4knifjxK2I+c+IPIjT+I3PgDyE3YL+YgchIOIyvBDVkJR/Ew4RgeJnriYeJxPE48hOaYOdKHMWYubiX5IiE1ATxRNjJTLyoUGAnZSR64kRwAYdodJKSnoS52UZfl64QL8CTBFVmJHshM9MTDBA9kJ7ghK+EIMhM9cTfxLO4meeNe8kW8TN7BOLY6zgD3ki8iLVWA5NQ4pKVE4XpyEG4k++NGcgCuJwchPSUcyalCxKWKwE/PRFT6I/BFOUhKT0Fd7FJGfc8Sd+J28lWkpUQjOTkGqSnRECWH4EbiFdxOvIA7iedxM+kyMpKuITlFgLjUNPDT7oGf/gDXU0NZUzgKE9fgUaIbspKO4WGiF7ISjyE78SiyEz2QlSi57l54kHgS95PO4U6yD24kB0CUHIrkVCEyUkK7uG4LkZl8GtdTQpCYEo/4lGTEpaZAmCJCdNoDhKU/RZjoO0RnPMKd1IBu75s8mm8Y0WJUf2sT6pI2oOrEKpSuNkdN6BrURq2VWk1Zm9AW033WVHVARKmXtPEnoVUwDS1yoLZPR5NgptzAuUPheQhJ/44xraJNwE7x2ue2CdjTNfp+nhPkzpdjlmFHsbfxJ3Z7HEG1tKYsoMWm4eEWlLlYou7mJhRq6KNQQx/FC4xRqKGPqtOrUBO6GnXx62XEaWOfBLA/IaLUQ56FGeC/DZWbPHtSWIQIEXN9sT8ZRmP+WvnBjb2hSTALo/TiUB6mvGneKpiGUbqxqOZxuyxntCsQi12C6f/roqbhd3qxaBBqqv1+jRQaszfTAlNibIyyTZYo1NSnBalQQx8N2Vvoz1XrXVAduBqFWvpovC89tiWFPa1IXRBR6gFt/ImspZ77gm9qGYTpdxl1/7dhDDYeOqN0G/PFwZMNPOWTzueHUU7tZjmLCMjyrmEcth4+Tv9fwV+CTa6De0WT4YKsI7v6ihNqY9aiaMVKhhgVauij/uYmFGasRV3ieta+snUWqIlcQ9fTdMdG7efVziei1CNeBiufelUyYTQ5NY5Rt2wcyyi9OIzSi0WNcAlG6cVS/+vGYpReLBZsCcOd0DXi7VLOnffER1YRGNUpIX/nc6DqjqO/73e6QlRGaeItcf2S4/7PJBo3rlKRyK38yVR7omehnc/BuVM78Tu9OGSHmNPtlRy38fAFHDpCpc+tiGDPJfuLEQ8Zvkas87VwYaaHFfiyp+ZcOn8IH5ixI7wrI+WPiLIect04lERSvrJTp6ipHyXiiHrZcx9jEQ7f8wfxgWUM41i+70as3cfOZZXgw5zt/5eV0azr8ipyJmvbW7pxdPpd2e3/bcDv8TMpEZJiPSPUxqxDoYY+anbtof5GrsErbweU2puiMccFb731FhpzXFCkY4D6+5tRtFyOeN3ehMYcFzRfN1D7+0ZEqQf4XXBVWpT03bPgL6rAd2nSWewNAmr6xYsoE1QIdbH3xCX81SQGwWedMEovFhkRe3A9Yjf+ZCTELo/TsN7mgT8aCXA7agfuRm1DJs8FrdETUCE0xH6vc/izsRDlMfqo4TMjgdsEUzBKLxZhAcdwPWI3bkTsRqVgCRL8N+FdAyFexSxHdcwyjLYQ4OiZc7h84SD+ZhKD2mjqhWqMoiymVft8MW1NJBr4c1EuNMAovTjcj1iPCqEeWnkTYL7jHP5gEI+ccHv8Xj8WVTHL8Uq4BJ/ZRmLa6jBc8HbD/5oKUBGjLz4+FsE+OxltXet6jHqZY5bilXAJamIWo43HwR/0hTh+2gvVwqXIjzbAW7pxaOJPxyi9OFy+cBiVwhWoFK5AHZ+ZaL9FSF3j5hhKWPW3nMNbunG4F7YabxvEolq4DNXCpRhnFQmt9QFY6hKAOeulXdK3dONQFGOGCU6RWL4tiP6e6pglLN9ZIW8lbkfvxp3onQi56oZRerFoiNHEKL045ETYoyJGH5vdL+Ad/Th8x7PE7/VjUSpciYoYfUxdHQmj3dd69Dw2ZlECUrzSGA1ZW1BsaISiBQaoCXJGibExGnNc8OnYv9LCJRGlxhwXfPiPP6Fivy0q9tmg+rIjCjX08crfGdXXpCN27QL5GS8GCiJKfA5m2JlA23Glwv17PE5j6fZIfOyQho9WpfeIjx3T8cXqDEx3uQXnC0/gl14Of1E5GuKkyeCeBFHTL5p4VC6m2RsEWLApAO6eh2SsiViM0hOCf3EVlm0NxCg9Ic1bunEoCKd8AfOcfTDOUv50hwr+YulxukK8pRsL4z3BcNx5GH9aKfl1pub2PY2yhfZaH3xmE4aXIVSXUOII/btJBEy3U/6v+tiF4l986QjOpNVR2Ol5Ge5ebvibifRX/y8mQqSHu2Kmox8mOQSJt0/EW7qxeBVnyGjr/I3BWLkrhLGtVZyM7vZVanmlJ4L1eFs/Di0CKo1sQZji6Rj3wlfjXUMh2njU/9NXh2ONeyD2HPXCWCtp5PofjYS4y9uND8wjoLvxFNr5HNTF6IjPcRLeNYjBsaNbFX6PJD/67/WE+J0udW/eMYjDi7AV1D0Wrw+osyUcJnsC4ea+A38yki6j9K5hLCKvyg/fkKUtdjoac1xQE7QalR52aDhxjLZ2GnNcEHXOAI05Lti/fi47TinHBecPLERjjgumcv6B+jubGNZS+U5r2vmtzveRiBKfgw07luI9I+uuHwb+BESnZSJE9BIhou8RKvoewaKXCE7PQ7Aoj9qW/hxh6d8iPP0pwtKfIyT9O4Smf4egdGrU7UXqYUadaX52eEs3Doc8PXDYk5p/ZbH1GHS3XcM/LAQ47OmBw15HccyTirA+7HUUh72O4ZDnMRzwpLJMNgooC2C8Qzj+YR4Nd8/D8Luwi/E9udeWwc3zCA57HsVhr6N4Wz8WniePYMW2APzZOAYHjx3DHg8ql3hF+GxMcgjB/PW+iA8+gFG6cdSxXkfxroEQJ45TbUn2W423dONwxPMg3L0OozWGsqp4l9dh2aYL+OPKGBz09ICruN5q3jx8ahMO3U3UzPdKwWJWV6uNz8E7+jHQWB+Cg54eOOTpgYOeHqgST+jd4nYaB48dw5cOfHAcIlAYQQljTZT8uX3tfA6cdx3GuwZCHPY8gsOeVPbL9OAtmOV8Ff9rwv//7Z1neFNXtvcVJrlz38mdzNw7MWkzKZNJwRgbjJskN9xwkW25W9imd9sQCDUEQm8BEwgloVfb1CQkgaFX2wISmmUf925JLnIKQ3F5nv/7Yesc6UiyAWNbEuwPv8eWTt1H2n+ttfbaa5N7XETuUXPQBS9FHIDXxG2Yt2Q+Rs0maR0NGaQszJmt7X9HivaQqpxT5y/F3MUL8MHw/XActQt7Vg+BIPgw5i2ex/3YfDJ/FpKmr8IfQw/gsyVzuffPbhz80O8qKy6G7ldxYjSU55ORnDCAuGHXZkGdMwnqnFS0qeTccfXXZiMrMxG3fxiJyvXDURAQpnPhTk9EzcGxxFoyY3+koqTlYaLUHfx76yg8p+fiPR96GHnpEkR9vAkvhB7Rchh/Cj+ApkxbvDc0E8+FHEIvbRzIaYzOMrIflc7FR5Yv45cD+XFTAv4YRs71QugR/D/pEdzYFYTE2ZvwvOQIx99l+6HJrZtgWgAAIABJREFUtMPLMQfx054o7Pp6vvac5Lx/DDvMjaztTBtF7iXkEP6ZmImGDDv8OeIQytPdMWFuGl4IPcyd99W4g2jMtMNfow4hbx+xdo6si8X7w/gxlMYMOzwvOYheIbpjheN2o2KvM16M0L33QugRLFwyG8c2ROD9pPQOh7QXLZnDxd/Y53x9qxcSZq7DC6F6bR9CnvGrcft5+3onb4Mq3REvRR6GZn/7i44W7BLjeclh7lp/kBzG6pUfY/GKRTw3/nnJYSj2BMF+5D5ePOmliEOoy3z4VBBWXGr2j+HEpPbYeO79+2XfktG0a7OgubGIJ0r112bhfvlRI+updGIcd67KL4aToPe5RLP1RSpKWmykMmR9YdmZrk87qn32EAQfQtUBvy4758nNMkyYNh0Tps/EmOnEUlJmGhew6y76JG2HaOxmo/cFwYexdGHKY52r4VsPqHNSUbE0SedyTY4nc9tuLIY6JxW/KdahTj6FCNPPnxGB0b5uvL5AJ14VP6LuylRuGyOS4Ndvd6F8YaI287v9xVW7GypKmbao+7I/ftZ+yOa+l2eZkowA/G/Uo49APQr/E56JF8N0vBqzt0fb9GbcLmRsmGj0/ovhmShOfzzxrT8dQwTEQ0JykdwlPIvnQdUJngg9jDuFO3VJl+eTycjdntFQX04xqwv3zImSZp8tGnf3Re2nrjyffLEPyXrV7DP/PVIoplBfIjlFypMTucC2OicVzTXndWJzOgXqtNSOWZsK9WWdON0tziAW2KqhKBkRg6rNI6kodTV1XzqgJMoPBT5BRgHB9nCRxJJfiulCs98/hWIKLnM7KgKMWIKmm0u5YLb6x0cQI0PWpEKdlQK1fDKJOV2djvKhY1H7DZmGojnQdVOgHoenRpTqd/TFFS9fnHb0QZ4w5JHFiOVj/0juf3O3hUIxBStK1eljUDI+VhvQng31vk4Ikh6qk8lourWSJFj6hKJ0UjwVpSelKMwf+cIQXHMZjFtuwY8tSIxIgiyxBHlUlCgWjDonFaqcFDBeoSidPkTnsj1EdMqWj3+4OGnPVeAfxmV3aw62P9rYnVi9KDHiEOQLQ3DbLRgKYQgUwhDccgtGvpC8/zjCNN2PxJUat5s3o5VCMYV+kFqVnWIkShED3ofNn/8Emz//CfZ/t4E6LRU7R4Yg1McN6rRUHEmO4LZ7vPd3XJ873EiUeFweb5Z2WrUoMeIQ5AlDkOsWjGsugch1C8Ztt2CcdvThxOlxRMlBQvI1aj5xNXvbKBRD2CJtRTGROlE6QkSlYsUEpI8NQ/TAD/D9+rlYE+eL//fC8yhZNg7/9+J/Q52WCvG/3sBkPydkrJyGZB9HXJgxhBMlZRY5X8XCJJTN1llh5minVYqSJt0WjEiCW27B+M7BEwohESfWUvqhvxeOD/DG7ccUpXdCiSgV+AaavY0UiiHqnFTU/jCe/HCmk4JtqrW6eJJAIIBAIMBbf38VbSo5jqRE8dw3xzdfgUAggM3f/oo2lZzMidMeW32SuGyMZyiXatDwQ9fliz0OVidKjdvtwIgkUAhDcMnJj+eiXXEJwGF7d9zWum+PG1dKGySlwW6KxaK+MILvwuWkmBSlfrb/QptKjpGyUF7ciN0+0KEP2lRyDA3z0W3/zth9M1exPqsRJU26LUqi/MCIJMg1sIDyhSG47ESC3Z0ZeWO5JA7FDSpKFAtFk9mXL0pH+aNu9h/+Ex+NlaFNJUebSo7XX3mZt13sYo8ZKUnc9lUxg/i5SzmpUOcQN67uTJzZ2mnxolS3rj8nGjnOAVAYiM41l8G45OTXaevIkE1+kWhTyfHr0Y5rVVMo5kBzsD/U54fC0bY3BAIBypdPQO2i8WDcJVAuHo8TX83H7QsZcHLogwRXW6jTUlG7gLhvbv98HdvXzoXiUiY2jY9C1UcjUBQSCdWqFCyJ8IRAIEB2pgz1p6LM2kaLFiVDwWBFiQ1inx/oC0YkwQ3XR0+S7Ijff9wLGyn5pbmfu9Hs7adQDFEdikPDiXD8tEUEgUCA75Ijed/hx8lPYo8pCo7EB6/+HwQCAc5vl6DulAzl83t+gjqLxYqSKdG44hKAy07+uOEahGwnfzAiCc50MlmSEUlQFBKPujUrcP/mcc6kfSduKNpUcrRUnDD7M6BQWAoDB4MRSaBa5oQSKQljjAn8XzzfqxeKgiPbF6VVKVCvNp1cyR5TOXkE7F78Czn/8oFgRBKUj/YE4xlslrZapCgVh/vzxCPXLRi5wmBkOfnjOwdPXHcNRJ4wBHLngIcKUvXH0/H7iQxOdB7Glsyvuf/N/RwozxaNO7xRtyEODdv8odlHEhcN45uMewhqZruBEUlQNVmECcH/B+Uq06JTmTyM1xdq5o41uV/O7CT8d69e2N9PjIoJHigK9Uf9uv6onulmludgkaJU4BOEPK2Ldt2V/J/l7M/FjPK1uUntCZJq2UK01WY/shAZcqfyktWLkiajDxp3mfsebKHZY/5nYQlo0m1Rv9l03SdNhi3U2aZdrPLRiSiSBOue5147NHwViNJ4H/J99wxHxehRHbppNXPGdLj9T73+gOefew7TIv720Db0xLOySFEqiSGxIjYxkhFJcNVlMPf6opMfbrgZx5FqPpndaSHS57tje6xalBRiERRiMRTijpdI6qn7MPfzMCcN2/pyn4XCWzfZW5PugMadpGCe+sdUqL5KIQmR+mIye7Tu9ZdkCkjNzJkk9BAUh4ZNabhz7iDu3TyOM1PjOzXv7d71b8CIQ0kf8ghDkSQWVR+HmGxLwaAgVE3t/gnrFilK6jUDcMM1CLluwbjpFoQc5wAwIglOOfrgigtx2dipJawg3VecINZRbdYTi5Jk2sdoU8nxn8tTerTd+mLypJ2ZnEPUJffV6Xtw77woNe625T0LQ4oTnM3+PX1UVJ/3g0IsRvUc3VwyzV5HNO70gHpfKtTfpkK9Uzskv0EnGIV+JG9OtSsF6q9TwIgkqP96DRERcSgKfCJRFBSLVmUOWpU50OxZ9FiCdOfCLrQpc1AxIRV1a1agJDIJjGcYSqKG4tdj+8C4h6IwIAj1/w5HwzcBKE3w75HnZZGi1JRpizxhCM47+eKsow9yhcHIcQ7AiQGDOPeNTQ0oiR6K1tpstNZcRpsyp0ssJVaUzGEtdYUg1cx3gEIsRt06653DVzbBEUwgme5TPbc/FGIxKmeQNe3yA1xR+fGTr2/XU+T5CMlnmtGH9746LRXFS8dhVpAb1Ke0orSv49Gyhs1fgBFJUBo7HIx7KIqC4zBvZDz83RzRppKj0Dccqs87rhqgXDYRvx3bi7qbP4I5n4HCwFgUeEvRuP1LlEQPBSMOhXLxfKPguWplssG5U9C4u+unZFmsKH3j4IFD9u5QCEOQ4xyAs9rhfzaudMstGPduHCXWkTIHrTVPbiGx7D28zSyi1LCDiFJ+oC7A2LC9L/K8RKicRjphyTAnKDxEqF1oXFYi308IhbsIeV7EQmFX8GjKtEVTeh/kDRJC4SFCcQK/7C8T4oY8L2JVaXbbIs9bhHxfYzOdCXSDwkOEfH/dtsbduvMWRuvKzNYusYfCUwTVav5S4vVf9UWeN7nH8lRH5PmYdgfI/ZNOnDeIdOqG7SQmUz2nP1Sf69qvXGqPPC8R8gYJURjpgnx/3fOrntMfCk8RNHu1zyjADQpPERp3mnh2YhHyfIQoGzcQ+YN191X9CTmHwkOEgjBXFEW7oGwsWayg5jOyre5L8gNQv6kv8nyEqPnMgdcW9oemdAT5/Krn9ueLRU4q1EcT0JRpi7qNcfxta1Kh/pFYSmWJo8GIJSgYFIHCgGgwIglauR/jHBR4S7G5jws5bnUKVKtToEpL4f63+a8/kmNqstFSQ+KujHsYGPcwFPhGojAwFhVjklGgLXpYGCyFen8KiqIitSESE/Gp9Qld2g8sVpSODxLiWwcPXHcN4vKT2KB30zeb8KDkNFqru846MuSBNlDek22uXWIPhViMmnnEzFcut0exzAUKsRilowci398NxTJnKMRiMMG6X6j6r0ncQrmin14n0LluymXkvI27bFGe6giFWAzVSnvtviLOzVKl9UO+v9DIWmNdqboNdqSTi8Vo2NIXjTvJ+/Wb+0KTbssdU5LkjJJEcp+1C3Wds2y0ExRiIhDsOQsjH14vuyPrsSDMlZwz3RZ1X9pBIRajajZ5fkWxLiiMIM+vcQ9pKxPkRp7VMnve+QsjXHnXql1E7rtkuBMRyL22qJo5gBy71B71W/qieIgzihPIdtUKcj4m2M3oXhViMQqCXZEf4IZi7XMpCHOFeu0oqL8ciob9Pkbt0qTbG1kqjEiCQv9oMJ7hYNzDUJYwGuqVS9Bw8xgmD5HiTslZMCIJTjgOMmkhjfPsz4U8Dn29BFvnfYQ2ZQ6xvGQjUbvgM/z63S78djwdjFgbp11nesTOkGdClG5PdsItt2B84+DBxZBK1i1Da/UltFRexIPi00RAukmUVm9f1+OixAx2M7AIHKBaSeIRVTMGQL3ODsrl9pyANGWSERmFWIyiONK51WtJxyyM0XV2/U6tTiPnKxnuxNueHyDkLCCFWAyFp8jk8QqxmNuv5jPiJircRbyRmdoFDlxb2PdYAatbTyyKglDXR3ZT2xOlmgXk+qzVY7ifcqk9iuNcuPZoMlgR01mRrEjUf21n8hz6Al+72IETZPL59OcF89nPQv941SryvMvGDoRqVT+o15HXtUsfXkCtVOYDRiwhuUY7U1AYKtWmAkzF76cywbiHghFLcFd+FG0qOSaHDYZqyUIwIgn+0Os51K5K5kRjrkSMGW/1ASOS4JdvdnLf83vXfuAEiOXO5W94gqj6Irnj5Mw147q0H1isKNV+4YCbrkE4ZO9OzM3qLNy9+S2JHylziBhp/+9K143FMzkFbSo5fjncc2VMTHW+ohhtpxpEhCDf343XqSo/HsDr7GwnadiqfY6LiYiVjSfuRu0S0rFqF5NOodlrbFkpxGKUTxxodF8KsYgXp9LvhIZBdaPO7SEy0dkfLkr1G4nIMoONPwee2H7Rz+Q52eehez78fYqHOHMizz6Lqpn9Da5B2sZaWfpusf75WCEulumC8MUJzjwhz/Nlz9HnoW3XpNuicZcdNJn9oNnXH2Xj48GIJLh37QdUfTQVlZOmoG7DarRWZyGsvz333S3wliJfGIIwmzfQ67nn8F/P9eJGq5Xz56GlNhvv2fwNbaocIkjuoSgYFMGJU1FANBixBDUrdK5aaUI8qqaNNClKjbu6dkTOYkWpKdMWuW7BOD7AG80lZ9FafRkPik/pLKMnyEN6FEYtnIc2lRy/ft8zIw7tdVTDYXWFWAyFhwjKlf34x2T0QUmiM5hgV+51425blE8cCIVYjOpPSEcrjORbCqxrV55MRIi1JJoybdGwkz8Kxt5D5RQS32rcre14WpeyMIJYZ6xVVDZmICqn9zdqG9vRFWIRGna0v2ZbU6YtysYO5ImK0fNyJ4Kh8BRxr/WtEP19iAsnRnGiEyqn6QkPe6xYhNolDrxrKFfoxI4JduUFq+s399Vasf1Rt8GOu9faJfYoT3HktZu1JNnXqlX9Omw3S1WqO0plPqjZnQj1mgHEhRscg+LwBGK9iNnR55NoU8nh/NabaFPJUb9hNc/6qZw4GS0Vl7Bn+SzcK7+INpUcpbIRKPAM11pcJC3gP5e/AeMeitLkOKjXjoT666EoDCDnqFs3HOqsVKgvpkC9LaVbXLemTAsXpYsD/fDrxUNorc1GS9VFnSBp/7Z2k+vWppIj69JhtKnkUOxpf0norkS10r4dURKDCSKBWzZuo/AUoVDqot1OOlSel5AEwfU6mCZDF29SuIvQsJ38X7NIPwhrKHp6xxt0JGK1iVAY5cK9r0rrx+XisG5U+QQStyoIdeUCvpxF5S7ixCFvkBD5fu3/yjbu0VlYrHtl+GzYe23c3Yd7VkVa17VuA7mvam2MqWwcEY3CSFfUzNXdV56vEHUbjc/PWqE1Cxy4QDlv+0cDuHbk+QpRMdmREy/VGt2PRn6A9vPbS+4xz1uIgtBHs8DVqxxREqWbHF4UGcG5YJzoeJBVbtnv7o3vtqJNJcetb7egTSXH/KExaFPJsXPRNLSp5Ng2ZxJ+O7YPjEiCAs9wFEckghFLoFq5hKQBxEfC7q0/Qp0RiJJIP6hWkB8sdVoq1JtSoT6VAtXpFKg2p0Czt/3ViTuLRYtSgbfU2DVT5qC16hJaKi6gueR0t1pLbSo5Pp1tHITsamq0Q94sam28iI1h6I806bte5IvOdzny/d04EWNRpfXjOm+TQVauoRDm+bhxnYi7xh7dfvVf6ywbNqajEIvRqNdpWRdRvyNXz9HGf3brrqtvrRjSuLMv75kQl5RvVZWOGmgknqpVOnEhI2p68Z0VRPj1l9EyvIb+/qwVqU/paF0nZEWedY3V2kB7Uzqxpqo/NU7NYEWuM98T9ekhUH/uyInRL0d2GCUQ3889gY1TxqJNJYdoYD+0qeQIt7VFm0qOyksH0VqdBUYkQeOeTVpXLQaMeyiqUj8ibpxnOAQCAd545c8QCAQo9A9EWSL5YVanpeLmZyOIOO1OhfpS9yxYadGi9IDZheaSM2SUjbWMutE6MsR++Bi8FmG+ujKU7qVkqBPnyjZs68tZPmVjBhKr1F2EqukDyDSQtf2MrMqeghQ2DEH9eiLiBV5kBK3AKxyqFUv4QeqzB1DgLeUFs9tUcvyyfyv+c+Ewt9+vR3eRc3iEQ7NnExjPcBTHR6Kl6jKObCaB7V4CAXo9J+DuY89oCfxt3yailPF4q/s+DhYtSr9+H4C7t77jYkgPSk7rXLduCG7r8/vZEfhykQdspOYr4UDpXgwto0ZtnljDjr6oXWhvFMvKH+zWobvZXWgybFE+yhOa3cRSrDsZSVbIZS2mw9u5/+/99AOKpQko8JYaWVGMSILfzxwgWeJLF6LAJwK/Hd8HRhyK6h1jyPe+YDspi6s9P1utsnb3h7g0M4GLI9V/H95t7bVoUWo64ICWyotklK36Mu7dPspz4x4UnuxaMVLmGJUsoaL09NK4kx/kzvMS8Vy74ngnXYzNXcS5aeagfJwHGT1bS+pm15+KAiPSTUhv3LURZbKRuHP2AGrnz9PNB50zx0iYmovPobn4nC4InjwZLTUX0Fp9iQiSNoD+3tv/y4mSQCBA/b4+UK+ZCHVa91lJTZmWLkqZtlwwu7X6Mh4U6UToQckZPCg506HINJcfw73cTbh3Y5WOm2vxIH8HmgvTcf/2etzNno7fjkvxyzfuJq9vI5Uhf7t5FuWjUAxRrxgIxoNMmG084gbGiz8xvWJsCv5z+RvUrV2JsiGjwHiQJMuGr9aQVIIpH/Pyku799APul3+H5qqT5PhFSdqlwSdAnZPKEyWBQNAjbbR4UWpTydFcehYtFefRyqYB1GbjfsG/jUToQeE+NB3o2gX0bKQyTJtBS+NSLIOikABUTSIuZ90PpGztL4eXc4mVj0JJchyUKz/FL7dXo00lR9mokVDnpKLso3iUf5LA1QAvGS3DZnshT5Re+evz3d5Gixel1urzulE3bRyppeK8UTpA00HHds+h3P0hmK/eR93ehyesGeKUFAGnxEizPwcKRR92mTH2tSo7BXdvZqBwcAxZJsmEGFWtGINm5jR+0S7Rrfl5GX5ntqFkVAzJ1tZblKB8cSLnxs3pM4AnTLkb3uvWtlm8KD1gdqOl4jxaqi6RmE/VRbTWZHEjcm0qOZr2m54Nr977IV74g8DIBP3Li72wYsQrj3T9GTN9aVyJYnGUynzAeAWhfpM9Kj8LhTonFb/mEstHc3M5WmuzUX/tU/x+exuaq05AnZOKO4U70KaSoygsGnXyKai78BGZ9/ZRPJSnJuqJElnRpHr/GDDuoSgOleGd//lzj7lxFi9Kv37nhZaKC2itzdbNd9Pjtx+Jfz1F+jfeQ3v/jf8yEiNTZM74R4fXr9xjR0WJYpFwqQIbHFD73TgugVK5fTraVHLUy2fgfsX3uFtwCHXyqWDcQ9GmkpPRty/nQZ2dgurtowzWe0tBq5KESX7N/QLKkxNQ6BeFu1eOUlHSp00lR2ttNprLz/EE6X7eNjRl2uJvL/3hkQSoPRYl9u7w+lSUKJYOMygUpbKRnOiwfx8wp1E4OAaNNxZx77fWktAHbw057bLd90oP8frYr3kbUX9lFoqC4/CTKITrM9/MebPb2mI1otRcfh53fjrIPaxWZQ6aMm0RLX7piQSJZXaMTbvXt5HKsGSul9mfA4XSHnVXSGHClvJLKJLI0FxyHoxIgurdo7l4kebqUp7gNF5fAHVOKgoCpaQcikco6q5MgzonlbefOicV5eNGgxGHcv1l6dBHC390BqsQpTvnRqG1Jgv38o5pA90X0HTAAbkb3usSQXqY+v8rJgZvRcea/Tl0hobttigdPRAKz55P+tOnPNkRTIh5Vsd4Uqo/64+CMFdUTu1ctUtNui0qUhyRZ6JwXpd8xj8G4pfbq4xCG4bLcNddmcZPmak+TUTJKxwFvpEo8I3EvZvHUSSL4glTa+1lqHNSUTg4BkedBkEgEGDDhNe77XlbhSg1Zdpq3bUfiUn5HRmi70pBYmlINx6hWz7PCzbS+B5tb8O2vmjYqqOz5ykdM9DkRN+e5knvoW6THRq28J9Jw9a+qP+6r8nJul0FW9ROf8Lx48JWauiuz0B9aQx+uZ0GzY3FaKm5wHkS6pxUMGIJSmKGocBLyhcaZRbulX1LRMlbCsYjDAXeUjRlbkGBTwTq5XNwt+QA2lRy1F2dibor01AyLBH3fv4RAoEAV9Pe7bZnbjWi1HRgAO7e/BZN+8lk1ROL3u4WUTIVxLu2eUCPx5VKhjnxZud39jzspNHiuM6foyuont0fVbM6l0NW9yWZUFwU5YL8wa5cVYTCKFJrSr/2U3fwpILCTppmgrvHUuSLzWXOMqr9cQKpizR7FtpUcqi0o2r11+aguZokHqvlU1AUE82lDZSPGI87Zw+CcdemCMincOdWXUjhRKk7n7f1iJIBf+jVsbC4vNUbW2TenRKlwY7/Y3Q9G6kMim2dm93dWbri17VMaymZ+/N6EvJ8hFCvIdZQ6QgnXiWF4iHOXOna7vwc2qsl/iioVhNRVS7t+vvUHHGF5sZSI9ftbtkR/Kb4ChVjyOTaAm+pUayoTSXH/YpjqPp6JDeZt3LiJFQmTyYjdBeSjdxBxj202xMorVKUrqa9+1Bh2TfMH2Xzk7BO6s69d3agLz7pN5B7Hdn7Hzg+wBu9TBxftPl93jVtpDKsX+TRY21k602XjtKVrWUrHxZGu/DWEysI59fmKR1J5myxpTsMRakwwoWssKGtzc3O91Ku4Nd0ytNWuTQ8vjzFkVtcQL9ESX6gG/K8hdz7TZl6NaDEYq6GEUt+ACnWz80/8zC9JJT+gpbc/WiL1LH3rv882MJxhiV5q2b157VHN+9NzLtPtihcU6ZuJZX6zX3JogMGz4MtqsfoLfagEJMa3Lp26u4jz9f0Z9JZ1NnJnNWjj+bmUhTFR5ECbh5hKF+WZFKUWLFpKbuAwgCSRPnLoW1kysnSJPyWt0G3n3wKqraN6vbvvlWK0qNYO8ygUBR4S3Hn9H78dGo3morOoLUmCy2VF/H7lUz8fiUTD4pOclniV07sxPPP61IL+r3937xr2khleC2y54LdZeNJwTD1F2yxMBEad5AiYbVL+0HhLkL9V9p6PuN07gsjIYX09TuI/uojhRG67ewveHGiE+o32KEo1pmbgJrvI0TjLmNrrWpGf+41W2lRs08naOwqsBWTHLn7rtQWP6vfpFdXyEMERlu3qX6TcTvao70Oza54womhQb1s1cp+qJw+gHsvz0uvHrm2CqYmgzxf/UoA7A9Bvr8b6jbY6eJLe2w5IVKIxSgdQX48irRVOPUrVHLX9BFyVTm7QpQ0++2gzknFb8wWNPw0jzfLgYyqhaPAS4oC30guOVJ/9Lq19jLuluyHKieFl/n9gDmjXZhSBnVOKpqrz0Itn8ydt9v7d091si696YcI0h9feB6V14/ig3ffxIAP30HZ/CSTJHva4Y2/vohJXvb47dJu3K24CIFAgJdf+gPWG4wukGB3z8WVWHHg6kFn9EHl1AGcRaHJIBaLvmXAxo+qP9WuQy8hMRf9NdIUYjHyvIko1a3XLjIQxV9kgAlx5Vwiw199hZhUvqyZpy1gtpFcW1dITsyPHWX0MapDVDVjAM9CM6zf3fFzab9D629ji8qVDHMy2qcoxhl1G+y4Ur/5/m5o3KEr46u/aCQrWoYVNNm2ccK8l22r6eqhBRJXKJfZcxZZUfSTx/g0B+x5QvOf4r2ok0/Bb/lfc7P9C/2icDf7Wy7O1JSbhjuFO3G//ChnYTXeWIwiWRQnSr8dT9ctFJCTgpaa8zqxy06F5kD3TlC3OlHaN+0f7YrRy38hqfDnpsViV5Jvu2LEkj9HZvRaIBBgiNdfjK5bu7dvD4uS8ZebCSS/2qrVpovgs7/qjbtt0biL7zY0ZeoWqWQ7KrsaiXodscbqt/TluVHKZURo1GvJ9XQujshk0LpyqqPOVVtgsO6Zu+nVUZQr+nFu1MOeCXu/5SnGFlWD9t7Z+1J4CHmWZlOmrlImayXVal+z7i+3aKTh52Bw73l6y2/rt6UwytnIDWVXo2HPwS0UaqLmeGeoPyFFw8/zTLpkd84eRFFIPH9em/wj3n6tyiwiYB46S6l6xkwwnuFo2r8VqvTp+DU3TbtvNtQ5Kag/GdGt332rE6X1E15vV5R+z07nBKbp3xvRqsxB5fXv2xWle4of0FyThYqcA9x7AoEA55a9Y/LaNlIZrm7u/pVZTS3Vo+sAxq4Z625w8ZG9xDphF6VUrrBHzaf9uQ7BLhqp8BbyOlzJUGdeh2HFQpXWjywWwFoCbCH+3bbc/ZSOJELHChe7WCNb0le9xk5X5J/PFUeXAAAUdElEQVR1gXbpu10ilCQ6o7GDhQSI62lavEpHOXFWo8JTpI2rkRK67Oglu6wTGwPL8+DH1Nj7Kh3jxJW0VYjFXD1t4lKLOOuV/ZzyvIWoXexA8sHEYrJsk7athdHaded29uVdQ7ncvstW+VVnJ6PVYLl61eUUEk8SSXQjaXqQPKVzxM3z4U/gLQ5PQKsyBwXeEZy1pJZ/hKZbK9Fcc67bXTirEyVNRh+eEF2fGYuSM+ko2jiDJzhtKjm3j+N7bxoJknrPQt4+C6XunCi1d20bqQyTpnXv6iYNW22R562Lj7CLHLJfaLZGNC+wq10nrjDcRU+YdC5gSZIz7xwKMYnn8NzDTGMhZF8Xx+sfrwsOs7EVbl9PkVFdbHalE/1r6R+v/5pdy87oM08nVR/Z/fL9hKjbwLc0GL3t7ErDCrGYV6/clKibam/tYuPVbVkXU399O9ZdZt2xRr1a5rznYuKabAyqS/rEYRfUX5vNCdK90oOo3DQSDFt90iuUJ0g1h8eiTj6VWEgmKgo0l16AasViblGCqtVjoM5JRasyiyRcXh7frX3A6kSJd/MCgUkLqHzpKDTXZHGC884bvY320fzwJY7uWc3tM953IMrmJ+HY/LfbvZ5omBTvxsSYvd0s9SZW4NDvrI27bHmVFLnjNtmhccfDz9+w0/TxDdv6on6LsUVTv8nOZIIhG/xu797rv+oaV0a/7Zp9tpwwPPLz/MqOG9XjnXejHW8EkPcstvSFRq8kjn4w3xSNO2yhMZGg+0TsHwBVVirulRzEvdLDXNIkJzTefFEqCAxHUUykkRhVz5iJhs1rwYgkaCm7iKLgeG5p8ILB4dzxmnaqcnQVVi9K7/ztJVybHm0kOs3l59DnPZJgef3TRJPi1VqThb/971944tbR9TYtdqeTcykWR+3cAJRED4Py5ETUX51ltOIt48F334oTo/jbxaG4n3uCFICLH4EC7whuQi/rAqo/b79eWVdj9aIkEAjwnFZUCiMiuF+GsvlJKFswlCdCxclxKBoZwxcn7T4l02RgvCQPvSYVJYqlUZYUoVsY4GSmkSiVxg7niVLF6qG6VU2+2Ym69Z+T5ZYGx5CVckUSqJYv4gSrcnz3pwHoY9WiVLz5fU6YyuYn8T4IU5ZR6ewElM5OMLmNEUlQPubha7zZSGU4t958BeQpFEMKA0NQMCgCBYMiUBQUh5IIUjVStWIJNLs3GVWVVOek4r7iJKqnfEy+9yPHExfNM5xUCxBJUBgQg7KkMfj1u10oG96zIQurFqWmTFtUbv8AzwkEuDotGoy3brRBX3AK/MNQEBSO4vFxKB4TC8ZTW6t4ii4loGhE9CNdr7c0HvZDoszebgqFpSgkAMVhQ7js7bvZ3+L3U3yLSZWdwhMl/R/wBoMlvhmRBIW+kWityeaV3O0prF6UWFIlNu0O/bdXQF1/n8oV0ke6zvgpg/FqRM9WDKBQOqJ8tBdvNZM75w4YfdeVxye0K0r/yf6W97px+3pUjEvG/evHUOj/aD/WXclTI0pNmbaoSQs2LUyfJRp9SKWzhvD2edRrnFnvRONKXUzuGBcUzuv+/K+nFc2evmBEEtR8OgdFgbEo8JaieuZM3ve9YvlQniiVjI7httXMmkWEa/ECNO7coDtm1AQUBVFL6YkpXxLTrsVkmkRo0h+vXpGNVAaGrgXXJRjmLFE6R0nUUDBe4dyIWUv5RTAeYZzAlETzRan2BxJHKo0ZhjvnD0G9aqlJb0KT/ug/2F3FUydKTZm2qF3n92iCtCChU+e3kcowe/bDg+KUjrk+hiR7XvUgonR+onVWprQEVEsGghFLUBQYg0KfSDDuodDs3oQCvyj8fiIDRSHxRsHuoqA4TnyaDmw1SBOQmCWe1JT5FIlS3ZoBKBvhheKQALDLGRfFRpoUo+IJcagYOwgN20xnED+Md2NiqAvXBbAWUqS9L8m+DqSi9CQwHmFgxBKy9ptIgrovV+F+7kku10h5gh9XKgzQWVJ1X6wwEqXW6iyztMPqRakozL/dQDY7Eqf/f9EIkmipEIbgZ9dAKIQhuCUORP2WRxeoszSu9MQokoiVlCsW47TInfzvZ7qeEuXR0f/u/34qk0zK1dZJKkmO47twh8fqJVjqBKpm9mw0HdjaowmT+livKGXYdixGekJkaCmVzBiCW27B3D4KYQhuuAahIDiANxesPdT7SMWAmr2dr539rMNaSReE7tz/V6XmXdzgaaB+kwMZ0veP5ioE3M89gfJhY43cN8NRuPt5p/Cg6KzOpTNTG6xWlFgXTZ98oe495aIFaFi/igTzDBImGZEEV1wGc8KULwyBQsslJz80bn241WQjleGzOYPM/hwsndvupgPYtzIWQCEW453XfDlR+nmlLin1lrt2omta5+p6P8solziRQLde3zAlSPolSyrGpUCz9yu9Y0LMdv9WKUoV01yhEBqLEsO+5xHGzZhmM1RLJsUTQdK6c20qOfLd+TOk84QhuOYyGHnCEFyJ7diVcBgShX9ExZn9WVgyzOekSuUtbxFypznhaoAYt0aSMiJHRkdDIRbD+18+RHwurEdTpq7I/vSB3lCIxXB+xxe1O7p3AujTiHK+py79JVUX5FZdTOaJUvmkYbh/89+c+6ZauhCMSIIC/8Fmu3erFCWFMARnB/q267K11mTzasvoZ7YWeIXztxkcm+sWjDxhCOTOAbjlFozGXaY7RObnQhpXegi3tKNq19zFvKF/hViMxU7euLVoIvYM8sI1X0/cmDKUq0+02sWL28/mZT/cGExjTZ2hdp6LsZVkkNlt6ML9+t0uMCIJ6tf37CIZ+lidKNXMcUW+MAS33IJ57honSFVZRlX42lRyNBeeRUv5RePVHLSzo/O052JduqsugznXLk8YAsYj2OhebKQyNOzsuro4Txv6InTCwwOfuHrjplaoovv74taBRaRe06UN+DlWiPJrm3HI3xs3RWSfI4M8YfOyH81hegJUKx35IpSWCuXxie2KEiOSoDL1I7Pes9WJEiOS4JKTH/KEIbitF6xmRBI8yDtlUpAeRqFvJCdMt1lLySUAjEiCn10CufMXjovlxabe9Q1A3hwZKraa/7lYMlnBOnEa6zAI8nVT4f9PH5Rf24Lb7mJkLRqH/DOrceH7VZCLdPu6DvCBzct+SHHwRv1uOqjQWTQHdMI02sMB6jS+pVQojeD1oyb5KrPer1WJkmYfEaUbrkG4bWApqZYt6pQgGbpxuW7BuOzkj1yt4J1x9MEttyCyPSqCJ0qJASKUzU9C3e7O5Ts9K1Sss8dhf09sdPfGNk8vVN3Yjjdf9UPVje04MzUBV309Uf7TFp5l5WZHk1O7FO3KJwKBALWrkqHK0rlxqvPJ3Pe/YuXQHlmxpCOsSpTyAklO0jWXwfjJNZCn7k8iSK01WUYjeLdcgzgBZN26wmh+Mmb6cLK2XOM+KkqmyBUbx5JY8kbHourGdlT+vBXl1/iCtGAMTaLsLthSP8pdfBdOdYEfADfrPZr7IT0OjEiC665B+MklkBMLVkQ6K0gt1ZfRqsyBJn0TJ0wXnfw4S+mGaxBuuAbhlKMPSiaTEbzKZZGoXBmOvM/CMTMlGnnbzRcUtERqttsZxJPcMcLZB1/298QRkSfKr25G0dm1mDVuNMqvbsb1AwvJfmJ3HHD1wEUPd9yMal+Yfp7njPNLzZPY97RQtz6x3TSBuvTurUP/MKxGlBp32kEhDMEVl8HIFQbzgt1N+77unIVUm41WZQ7u3j6Ku7ePouZTVzAiCU4MGASFUBevuukWhNMDTeck2UhleDfWcup2WwLtWUf6LBnghTWuXoh38EGcgw98/+UD93/5GllXhueWDybvbxvoafZ2Wju1h8YbCZIyvXsXBXgUrEaUSka7I18YguMDvJGvzSdiR8ZaKi49viApc9CqzEFLxQXcvX0ULZUXuWsVTxRqR+NCUDA4oMP7WrvQk6YGGMBOHzkzRoQzSSKE2vvi/dd9YfOyH8f3Hh6Y70CG/k+I3DsUMPa87ATeG2Ixcvzczd5Oa0ez19HYUkozr+vWlGlFopQvDEGuWzB+cg1ErjAY2c7+UAhDkC8M4S1X/ChixIlSbTZaqi6hufwcWqouduq+2CknzA5ayoTlqr+xhbP7Eye89joRpJ+1eUve75LEyf5v+3YoSrc9SZ7SWntPTHIahIUib5QtoZneXYHy9DjdXLgNY6koPQ7sVJBsZzJUf9DeHYxIArlzwGO7bPqWUnPZObRUXcJ95nin7623NB6zZvma/RlZMqM+CUbczDD8rM1TuiUW45IHsZBOennA4x2fh7p8CbaDsMbZi+YtdSGNOzyhOpsM5Y8TSaoAFaVHR6G1lOQuAcgThuCogydy3YJx2y24w1G11tpsDi6OVJuNlupLaK44jwdFp9BSfRktFRfM3sanlVGfBGPi3CDyOWoF5it3L57gsG5dbBA/VnR9hm4xy1THQcjw8KSi1EUULh3FCRFL3Qbzl3q2GlEiI2+B+KG/F/KFIfihvxdJnnQP7dAqaqm8SKyimizOQmqpuICWsnOcaN3PP4ZWZQ5++yHQ7O182mgwqLrACsyQdwdx/2cFuCN2RihKdvZDeLIElzbzs+Tf6O2LD1/zhb3WzavbQxMpu4LDEyMgsX+XJ0qN282fH2Y1otSwox/yvUJx0N4dl538kacNepfPn8tzy9pUcrRUXkRLxQWTge3mivNoqbqEe8xxsm/VJU6cfj83xuztfBbQt5ByxWI0ptsibmYYgr290JRJ/q/dpxMe1opaZeeJmyG0vElXUbXjAzCLR+Lqp8NwcLzUIly3pkxrEqXdA/jLbmfY4vcz49FSfRkPSs6YDGa3F+h+UHaWE7HmsrNcvtLdawvN3s5nAVaQ0qWDMP5T4tYtXOKLQTHB3D5DZunq+eiLkrnv/WlDnZaC6s8noGrNELPfC4vViFLlcqnR6iN3LiTrYkTl53Uja3pW0/38Y2guPauzosrPo6XyIi9PiRUrKko9AytKcTPDuPdKdtsjZloo6vbp9mML7tnZE1G6vpEmqT4LWI0oGVaPbMq0RdN+O7TWZHFZ2S0VF/hCU5uNZm3siMve1u7bXHGB26+liuQ53bkw0eztfFao3NyPJ0pNmcRt2/CRs9G+cTNDzX6/lJ7DakTp5qw4nig17CRVClctj8aF8wfRXHoGD4pOorn8PGf5NFfqRIoVozaVHPcLT5h08345QuMVPclYrevGMnJ2MN5+jz/FYclSH6R/QUfbniWsRpSOzRiI4L5vYW20OyoWx0GTToqvvRGdCJ/USfggcQR8J02GjVSGb47t4awj/cC3/ghcm0qOQ9/vRtDUqXAdOx42Uhmqac1ts1K2px9ipxtbT+a+L0rPYjWi1B7vyobh7bgkvDdkOP4Rm4TXoxLQO0IGGymfPzsJuf9fjRzC/f9mbBJ6R8hgN2w0XIfFmr09TzvnvnLG6hXe3OvGDFvMWqCzjuJmhuHQAl2t7kmfma8sK8U8WLUoHVrtBucx4/FGdALeihuK3hEyvB031EiQbKQyvPDq6ybffyM6ETZSGf4enYh/xCSavU3PAkmzJIibGYq6dPL65CYXbPycjKyNnhMMkRvJjh/xSQhKaa2qZw6rFiWfkWH4u1ZUPkwcgbdik0wKj41Uhl5/erHdbazl9N6Q4ajeQ4vU9wTxM0MRNzMMB9eRON6cRX5Qp/dF+Z5+CB5NVtKgrtuziVWL0luxSegtlcFx1Dj0HTqqXdGxkcrwksi73W3vaK2r16MSULGbilJPEacVpkRtTlLSLJ0Y3dzeH7MWdlyhgfJ0YrWipE63xSsRxMJ5LWoI3orTWUl/j0lEbz3ReUUa36Fg9ZbK4DBiDHpHyFBFLaUeJW25N+JmhiFuZhiWLyU1q9au9ELczDBU7KGu27OI1YqS29AIvJ8wHK9FDsHbcSRY/XpUAhEZg0D3hKkBHYqSjVSGf8YPwxvRCahPN3/bnkUubx6IqfMHI3VeIAp3OSBuZtgjrVZMefqwWlF6RRoP26EjOWvJELtho7n/NRm2HQrSKxEyeE5MwQcJI8zeLgph/hJfbFtNC7k9i1itKLExIH0XzHkMyTd6JXIIJ1bL55FJng5DojoUpg8TR8J3lNTs7aLoiKeZ3M8kVitKa+f4o7dUBpcx4/Fq5BC8ppd7xMaT+idEcvtf3dz/oS6cch9NnqRQzI1VipImwxZl8xNR+lkinIcONxKXt2KHwjExyuiYjgTJNj7a7O2iUChWKkplC4bw5sEp5ibi/WgS4H4rNgkjpka0e+zJmYn4dnoC9k1NwLpJ5O/5WTRpkkKxFKxOlJQbvI0qBrDUrAl66PGmjmvYTYvQUyiWgtWJUnuCpHnEVWqNj00we5soFIoOqxElG6nMpBhVLot85HPUbRF1WswoFErPYNWi1Ljn8dyuqpXhvOPLF9OqABSKpWE1ouQ3Mgw5nyQaV598DMoWJBjV+TZ3uygUCh+rEaUz6wfiFWk8fBJknRKlqdP9cGUOX9SOz7KcYukUCoVgNaLUkK5z4UaMlOHryY8XoB4+KRA2Uhmihw1BQIIMB6Yl4NC0BJQtoMJEoVgSViNKTZm2kIyVIEIWjSOjgzDMx+mxj/9ykQcplzuNuHFhMeH4Kt4Lp9KMi9VTKBTzYFWi1JRpi6+WiPGaNB7zPxnUqeMLdtjDRirD+9EyTAtwQrjDuwgdG2L2dlEoFILViVJX8U2aK9Ys8MR3a1zMfi8UCkXHMytKFArFMqGiRKFQLAoqShQKxaKgokShUCwKKkoUCsWioKJEoVAsCipKFArFoqCiRKFQLAoqShQKxaKgokShUCwKKkoUCsWioKJEoVAsCipKFArFoqCiRKFQLAoqShQKxaKgokShUCwKKkoUCsWioKJEoVAsCipKFArFoqCiRKFQLAoqShQKxaKgokShUCwKKkoUCsWioKJEoVAsCipKFArFoqCiRKFQLAoqShQKxaKgokShUCwKKkoUCsWi+P/BCVvRRos5oAAAAABJRU5ErkJggg==;" vertex="1" parent="1">
          <mxGeometry x="50" y="210" width="56.35" height="100" as="geometry" />
        </mxCell>
        <mxCell id="jyW5bUk0xT6YDR4Nz-Qm-7" style="edgeStyle=orthogonalEdgeStyle;rounded=0;orthogonalLoop=1;jettySize=auto;html=1;" edge="1" parent="1" source="jyW5bUk0xT6YDR4Nz-Qm-2" target="jyW5bUk0xT6YDR4Nz-Qm-6">
          <mxGeometry relative="1" as="geometry">
            <Array as="points">
              <mxPoint x="330" y="121" />
            </Array>
          </mxGeometry>
        </mxCell>
        <mxCell id="jyW5bUk0xT6YDR4Nz-Qm-2" value="" style="shape=image;verticalLabelPosition=bottom;labelBackgroundColor=#ffffff;verticalAlign=top;aspect=fixed;imageAspect=0;image=data:image/png,iVBORw0KGgoAAAANSUhEUgAAAcEAAACNCAYAAADPVsFLAAAACXBIWXMAAA7EAAAOxAGVKw4bAABLU0lEQVR4Xu1dB5wURdbvmdmcEyygLFEBFTCgh4KAKKigIp4KIh7ep8eJGFER05lzDoh6igkEE6KE88RAVEyEBY+cFYFdNufd2fn+r6d7tqenZzrV7M4s1fyamZ2u9P5V3a/fqxcEgR8cAY4AR4AjwBHgCHAEOAIcAY4AR4AjwBHgCBzhCMx5ZfoN5xyVV3b9+SOX/rp8+ZlHOBycfI4AR4AjwBE4UhDYv3t3p/4p6R7lOfq43nsXzZo9/kjBgNPJEeAIcAQ4AkcoAg9NvO4tNROU/wYz3ANmeNURCg0nmyPAEWiFCDhaIU2cJIsIkBR4yQl9t6F6bKgmUtLTy8dOnvT05ZOuezktM7PEYne8GkeAI8ARaHEEnC0+Aj6AiEHgzceeeEBigB4a1JT/yxBGnZ0sJCX6vytVlJamouxDYJh73nzs8X+VFRdnRAwRfCAcAY4AR8AEAlwSNAFWay4qSYE7QKOL6OzdI87z1NQ24vqoqHQL87+uFD5bUiFUVYv8MeAYeeW4d665684HOnTuvKc148Rp4whwBFoXAlwSbF3zaZmaRbM/uFpmgNTIsAFJvheklGSXMH5UmvDuk7nCxLHpQtsskU/6HVQfkuHOh/856W0w1M6WB8IrcgQ4AhyBZkSAS4LNCHakdkXqTDCwvaTmpDESk3v36XYhh7tkVaUwa365cKjIrVnu5DMHLoVkeP8pgwYtj1S6+bg4AhwBjgCXBPkaED58dcZNMgMkOC4enqKLyrABySKjpH1DqE4Dyq9ZsXLI5BEXLoOv4Qr4Gg7WbZAX4AhwBDgCLYAAlwRbAPRI63LSeSNWrF25aqByXH16xAtXjkoV6NPIkb+lVpj1eZmwYUudZvF5G9d35vuFRpDkZTgCHIHmRIBLgs2JdoT2BdXlEvXQiKnd+VSheNJ3vYOYJQxphCen5gjnnJEUUPzPvXs767XBr3MEOAIcgeZGgEuCzY14hPZHKku4PTwMiVAzTFpuNhnHpArnQA1q5Lh66gHh4GHvfmG7jh33zt+0sZORerwMR4AjwBFoTgS4JNicaEdwXzBgWTbjy8WDpi9ecNaIcVd8gKH6WbwQQ3t2ZolAzO1rGMWEOshoRmaAVG7k+HFvRTDpfGgcAY7AEYwAlwSP4MkPRTr5DUIyfHTxB3OuQLmAl6XkJKcweliy6ExPLhTKQykFJqellX32W34nHlmGLzSOAEcgEhHgkmAkzkoEjImMWP71xmvjYdDSFeHRpoOZ+Yl/lVWNMIQpF66edkiY/UWZ6FBPh1oKRHi1ZzkDjIAJ5UPgCHAENBHgkiBfGIYQgC9hOlwpbp07fcatlWVlaVqVhsEgZse+emEnTjrAOCsgBR4NJlhqqBNeiCPAEeAINDMCnAk2M+DR3h2YYRqiw1zz4fQZUw/s2xfSox57i+9BmpwQ7TTz8XMEOAIcAY4ARyAAgYXvz5pwca8T/giWeon2FTlsHAGOAEeAI8ARaNUIEDOEw/1KJTNEXsJ3WzXRnDiOAEeAI8AR4AgoEYCv4aA7xlyxCAzwfVKbcnQ4AhwBjgBHgCPAEeAIcAQ4AhwBjgBHgCPAEeAIcAQ4AhwBjgBHgCPAEeAIcAQ4AhwBjgBHgCPAEeAIcAQ4AhwBjgBHgCPAEeAIcAQ4AhwBjgBHgCPAEeAIcAQ4AhwBjgBHgCPAEeAIcAQ4AhwBjgBHgCPAEeAIcAQ4AhwBjgBHgCPAEeAIcAQ4AhwBjgBHgCPAEeAIcAQ4AhwBjgBHgCPAEeAIcAQ4Aq0KAQTkPvPNxx6/l6dkalXTyonhCHAEOAIcgVAIENObOnbcJ3JqpnOOyitEVooMjhpHgCPAEeAIcARaNQKQ/O4B0ytRJ+p97o47n2nVhHPiOAIcAY4AR+DIRQCqz4Gjj+u9LViWevzu3rJ+fd8jFyFOOUeAIxAOBBzhaJS3yREwigCpOV+cdvfTi2Z/cDXqxEj16vEZ2zbLJRwqcvuaOqZ37/z3f1jJGaFRcHk5jgBHQBcBp24JXoAjECYE5k5/dfIlJ/TdAQZ4rcQAPdRVUqIjduLYdOHdp9sJ/U9M8PW+bcOGPnNemX5jmIbDm+UIcASOQAS4JHgETnpLkwzV56AX7rz7WTC1fuqxnHNGkvDPsWlCSrJLvHSwsEG4/oFDQlW1yB+FlPT08nkb1+elZWaWGKEDfQ1eu3LVWSgrNgBpck1qRnqx/Dc+6R5wnHzmmSuMtMfLcAQ4Aq0LAVn91Lqo4tREJAKS6vOZySMuvEY9wC5HxwrXjUsX+vSI97uUmxMjjB6WIsz+olz8vaK0NPWFO+96Hl//rkck9hD7TBgwaKmqXCP+ppO0ICIDpOswxqm+d8b0sUMuuvALuTztQb71+JMPoM/0k88c+J2CcVIRsR5+p/aJiS7XGw+/zhHgCEQeAlwSjLw5aZUjgurzhjcfe4IYSraSQKg+hfGj0kRGF+qYcMcBN/YHveIhjumLF5x5yqBBK0PVger0Zuw3vqAqQ5uMvnaU104aOGDFjC8XD5J/A2MswngzjUwIMclX/7NoqJGyvAxHgCMQOQhwSTBy5qJVjoQc3qH6fAbS22lqAtWqz2AAzP+6Qqis8fgxrjUrVhLDCckEgzAwTQYo9e33UmiUAVJdjIdUriGPZQsWjvpz795Ox/bpvVZRUFTTJqellfXo2zdfrw1+nSPAEWCLAGeCbPHkrUkIyFafUH2S0Yt8NOBLTDDVpxq8HXvrhDfmlgn5W2oDcMXe3jqzYH92RxaYaaOwq6DJ4vTNb6qEPU1/ezcecRDzxth9XSTFO4SqWt9ls10L/370sfvvvOLKB9TMT/pbZL5wAxH/hFT5NaTKYaY74RU4AhwB0whwJmgaMl5BDwHJ6pNUnznKslB9xhhRfVZUusU9wPlfVwZ01a5jx333vf7qeKhCzezByXuAQnKCUzihY5NRdEEZXfIeYD7fCl8ulv/0s5y+a3QK6sX6jWfuqirhw+9r9OAQr0NSPFtVMOhWBMqeQ0wYNHJjHUPo8kIcAesI+DHBB66dOHPXps194hLia+MTEqvpMy4hoTo+Pr4mPjGxKg6f+BtnPH5LwG8JKIMzXiqHa/He6zVx8nX69LZD16g82k4IfLW3TgOvGSEISFafpPo8GUOS1Y4kPjmMqj6/XlUpvAbpr7KqiTkReVAXlo+dPOnpf9xz98PzB/m27YxSHlSEsyPdGe1cKmdWjIzo/frampr4msqqxOqqypTqyqqk6srK5JqqymR8T66uqkquwd/0WV1RmUplUDb5kn9c+2rHbl13msSNF+cIhBUBPyaImI3dYRF3CqMe5Zte+Sl+p6ggxFDBWImBiowVjBJnIpilyEDps5quEwOWGG19QlJS5Y2PPjyN0fh4M4wQUKg+yepTfniLDu9QfTq0rD7VXYdQfTaeOXLE57c++fiUDp077zY5ZHksDlJnGjgMFSKV6sI1tcLKzXVwvMCSRq2TBg5cubpJigzoqqK0zKvrxHFq91jhon5N/o/0265DbmHmt1UGhmi8SF1tbRwxKB9zqiSGBYZUJTIt8bOKPmWGBUaFssTUwMzAvETGBkZHTK6qMokYGcoTg0sZnJMrv+TIErMudr/98stpbrd7iMvl8n/DMU4SL8kRYI5AONWhvgeQ1qhxg8biTDVAEd0wojQBCbIMn5wJGgCtuYqQ1Scc3h8hNwKpT3HfjxzeGag+d0P1+TdSCz794RzTJEGtOESq5OzSNpQ9jLmmX/xPpfDzduLxtCq9yxy+iAOvP3/k99ir/KV9p7wdMH5Zo/Q9hE+kL9JNV4xFrVrddYhgo0N8TwR39b1MmBrcj998O/Sev139YXVFRfqg7LYyg2JHvKnR+BfOX/3jmXNefuUm/PqCjWZ4VY4AUwTUTFD3bY5p78Ya8+3NkERorAov1RwILHx/1vhHJk1+WdVXDFSfDXB4j5Ed3oONJUyqT193YMwZIlMxq4j0tuB3L7RNa9oi9DFAFWFguqfTKf9Mhi7X3HXnPVDhPobffPuSajwOlbqFD1bIe4tit3Ewylly1ekDN4Oh7gZD/YX2K7ufcMLGUEECdm/Zeuy1Q8+Zp3ghaY5lYKqPNx5+9FFsuXzZpVfPzaYq8sIcgTAhEE5JkPmQ+V4ic0htNQhz/27KBqD6rIPqMw4O7yHXVSirT6g+PzOr+iSn9gN793WCtHXy1vwNJ23L39AXY+uwbcNGWLIYf69DNBqKJCMekguGj7y26V5hqkliMwYdnO3vQ0ligiTqxWnVIlVoTX0Ap44FPb3pXL5wEZmpPkh1EWR81xNzZo2CO8UGZVulRcWZ15w1dGEkM0AaL7Q/SQ/987qZDQ0NZ8bExDSZ6RqDk5fiCDBHIBokQR/RtHfIHAHeoGUEBl0wch5FVJEa8FRVN7q6Hh2c/+lYfe6VrD4NqT6J8T1y3eR3Sc2IqDDyHpN2LFzwweq6wG0oNUMjFaYCDE3ueajUvx2KcZqS5BB27KkXdv5eL2zYQppM30GcTfdBb4axgrl3QdCBh4gfyr001Nc7brn4rx//vmPnMZYnsxkrblqztv97zzx3B7p8ohm75V1xBDQRiKoA2ke6JFh6uCjz0P79HYoKCtrAGCW9srw8maz0YGzQIvNI0sjlk657QVpZjoOH3S4ttwa6TqrPq6cdCnB7ICdxqAzvn79pYyczLgGwQH1Jsc9G9IfEoF7eclPcBpWBfn9KcUxTiapmWBTpZtiAZIR8yxCemtpG+M9bRwm9ezQJfBSFRu/Zs3Ff0+DIh/K+yVnClReliu1QJg31kZqeTnvjvmPlf7684Jdly9QuGHrdtuR1x1tPPPnA1vz83i05CN43R4AQ4JJgFK2Dp26dMuObeZ+NUQxZNhpqPD01o9EVE1MfExsrnTENLleMJzYurubuV1++9rSzzloaDlKvvXvag1DXjTqwb18Xap/8+4YNSBIo5icdIVSfHqg+50H1ebsFq09qWtPYg5hIbo5L6JYX64s3KhY29pqgqztVMywtTBXSoKN9Xt7vsLrOg/GQ716TVatyXVKHygeN+4yTE8VTPgjDGx4s8P19jL/EKuBlyGd5Go45Dkeb7oaG+IcmTnqnvq7uL1ijGq8o4eiVt8kRCEQguvYEE49sdSgkwbaqKfRZ/3lgqg+1WDzOgFm+c+yVn//2y69nHd/vFKW6j8n9QIYaS79YcPO0ceN9gaefm1kCaSYzlMP7Tqg+J1DsTytWnzRwMJc9a4VVA2QinpyaExB8e8nKKl8+wkpjnqlK6U9TjalmWGoQKeuF8gDDWgcVZkf85mPDbdObODK5Wyh9FYmBB7bpNxSPKuyaQK4LTCazmRvZvnHjyVg7o9Dtp83cNe+OI+BDQP1+rPsm3JLYwUHfb8OlJcfSEn2XFhVlWOkX/l5pt196+edW6hqpg8wLC6D2oywL4kFhzkKoPu+D6rObXvBrvX7BXH5VlsnNDmQeXSFVyYeWU/xu0S2BrEdF3kdStW/9l5eQZan3aCNZhpIVp7IdZfty2R17/V5CGsCwKB4o3Wea0o4yhBu10aenfxYN+m3nPr823epoOfDhi0omSLSRP6LeXPPrHIFwIhBtkuAR7SJRcviwXwYGMwujvMmPz0w1w2Xve+3Vv0Pltw0VRM6jjvgC1eenUH3eBtXnHsONhiioMmIRsB/pU8HK1Ui1uHqd15ZKuf9H0te9c8uF3WLMUPA9L+tzwi1hmRS/0/PRjNccXu9UQUiVNJOHFCHWqAK1rz5UDCsGbX6LMsRgfffa2l31Pj/Bjf5MU9AyLFIyVoSN2ytsKvXrFg7tUcsEG+obouoZxGLt8jYiCwG1JGjNo6qZaDrS/QTLioqyrEKNKB26VopW26Z6xNxg4EJWi34HHto7Ke0R1J6XsmKA1IE6gHb+5kB9Z1dVrM+NkkRF0peXAQY9vGxRkgsLyry3hRGGpQz27RUwReandI1onPdjk5HzTsV+IBnBaPlW7lJIgpCAAzJNUIQXO3PXknUb6us03UZacky87yMLAWPmAhGCCcUejZChNPsw8LafAEtQ/1hbJkbhcDrDHqpqzPWTXoFD91oaFqw+i8EUmag+tcikvUj04YszdrAwkKmp99fU7g1G4XNLyBlhWIeU49DeXPC75woULhda6lVyKyEpVz4gAa9Tj5ticxqlJdLKYQ87UJyOtEHy8bRqBKJKFXEkS4J2VKG0gp3NEK+RGBNcN4bCdaEPDFd2Q/LbG867hwxEEK5MNI45eDhwy61bnr+QQXt6dCiNW+hvcklQqTEFpVGNTMMehdRmhGH1gYsDAgeI1UlCVPkQir8rJVJN9ervfnS5pQz3frDWVlVHrSRYX1fPJcFw3iS8bV0EoooJHsmSIJggpSWyLLk7nc5mUXVLYb2W6648BgWgEl0jM0EtBkNdkMvELjix0yG7N9CeoPJQuyTITAuZ7P3KKfcEDTAsgWKnykxw1udlAUxQVs/KnajVt+I4/NW8HtAcqA6N6j1BzgQZ3Aq8CRsIWH6o2ujTclWkbjpiI8aUFRXTfqBl612n09EsTNDy5FqoCEnQz0JU7Z5ATSqZlVoCNNplAhR2FhiWppGLsk/1eLQYq1LNC/VvpVbsUMoIYZSWSCtXz/cEI21KjrjxhMNFgl6z6dXb58gtfae/5d/ogaw85WvK6wGTwSVBG0ywGdShzX33UHBpZZ8q9wTBg3icSp88cm9QS4HBxlxZ1fTOkJboDFCh6jEsZNHQNHLxY4IHm1SdVF4OMKAso1TTau0HUllKd9Tc2LPqD9ahfE+QFZi8HUsIhEUd+sbXX52ZmpFR1NjojmlESC+E9cJnoxPfYxApIgZ/u3DNRb+J36XTW46uNbo0fnf2PPmkX4S777JEaLRXgo+gZctQot3haB51aHPiDH85cmmQHBkEYfuWGuHUdi6R+TVWe1WevdL9hWe1X16w8SqZTzLMkXaZZFhaTFLdl1K92jU3RmgorBecSS7BSbkPXd5xK8ch7gdq5CykvH/NiTv6qqMoL4j2kmS334Y6bh1qF0Ne3x4CYWGCHTp32pnTrl1TnCd7Y+S1gUCp10fQ98A3CwpcJFplaCq4YOxHyLajCI/tu+sF90n++3jKFEhUxqpKVG8/UM2w5L1AeZ6UrhPHd/Tedr8pYoZ2ynKCCdIUeafJgSK/HfA3isF+oGh5qz4oOa7Z9aBVvmP3bpsyc3IKMnJyDme2aXMwMyf7ED7FMyMnuzCrTRu6RmfhrOdfnPLagw89SUO10ze3DrWDHq/LAoFwMEHdYMYsBh6qDUrY+8fOXd3cblHqdLobvBKmJIXGQAoVfyNpk36Tr0ECdSLFS6wovcqfbpJKm8p460jteduX6ns/pfpSHUi6XslX7iOWXAiuuHHyiwlJSbruHog52QmxQi8rKynJWLZg0Qg7D5yKsrLMp2+97SW8wdfFxMXVx8bF1sbGxuGNPpb+pjf7uthY73eKP4rvKBNX670Wi2tiPfF7YnJKecduXXeHex6NtA+V6E6ZCSrdDeS66jidB0vcgpKhKYNdh+pPybC6wthGfSiZHF3TMnJR1lEH4iZJUHl4wP8OHPBn6Gr1r1y+pqraNhPES1Ltx+vWHGcEcyrzwUsv0/68LQZI7dTXBxrG1FRXx1YhKXB9bW08rEdjIXGS2InP+jjpOz7F7/EpaWmliFa0Sh434qim0EsBngHxDahbV1cbR+3U1dYhpGBdHH1628V31Jf6QFu1uCbWwe+4jnL4O0Gqk4ByCRgrJQKn7zQuqkPtxkGajcezQ7jrlZf+0af/X37SwlCiKS0ETTJ9CRJN34egicYt0mKBJrmOlw7gL9GUoKAJONTF6dFkdK1QOQr0j/5E/PA9sa6mNqGutiaePsn1i36v834S7vjd+5t4zVtW/Kz1fibSfNTW1qIdX1soK7chthtPc9+5R49N540Z897Q0RfPS8/KLNEacziYIPXTokYYM5948p53nn72XyxuUjMTbaTsN5/Nv3z+2+9c99XHn9w+/LJLPwlW5+Dvvx913bkjvvlzzx6/nH1G+tC8CauqUj7995vX4Rq9pNDDS36AmX6QORyO+p+XLj371CFDdDMkWB2v0XqkIqSs7ijfCHcDzaDaJHnJTEzHSV6z2+o6/+XcrVMgE1TvR2rFAFU2rpZItTLf71SoYFG3AVk7AixDqU0WYdOS01JLhNIio7ALeCFiolnQkgRnv/DSbf9+9DEKvKC7X4gXturfd+7qdXTXLnuQub7fiC7dv8KDk0Kxqde5TJv62aT1rLJ0b9xy8SVfrVv1/XknDjhjtRpI0HSrRBOtUWWIPvlepHGIiZdBUw1oOkGi6VTQtAQ0kfETldUyZgyW/STUvW3ovgdNS0DT+aDJx5S1FgniGmc9fN2kt/bt2NEDDCiOmJ6SmQ3OyZX7CzYvhteemYLrv/+hLc7Bz95+x2t3jLliwbljLp898PzzFickJvqMLMPBBGspo/eiWbPPlpKuyio8H+hIXloyYtwV74fKkk2E/rp8+RA84Ibgq7xAgjFXuQ9PWXFJxqwXXrpR8ZA3g1mzlAWD6/Svv1/z8aiex+3rf845/xl++aWzlfEg8QbmGHNyvyWsGKCCKN2HihEAEKw7FkG5F798z30vJSQlkkQr38jKG0vrJgs1f0a69pWhBLoVpWWZX386j1Sh1JfIAF9fUilkJPs/J+ob5G49IjOU1ZFGO3Q5/UnRkvIOFvjzBLWPorovr89ik3b7p+31Ap3K4+cdTX+3z+t4+M3x0+6je2fQyBFfKKPvIIC2bevQ5LT0CqN4ULk4aAnMlA9WVosJejyNNJeG1irqJ8544MFHd2/Z+sDEYcM/x8M3U2dc6nVpiBkYoZWk11tG//UrPLdGqGPjSjQFBobVaBg0JYOmR0DTg6BpPmjSyxKid98ZGb5mGdCUBpqWgKbzgqU6g8aqM8a5eM/Wbb0sdxTmirTOVixafAmdSampxT8s+fqy04ed8w11y5oJim8yj14/+fUNP/58On1X3Ok0UbKDlufD6TMm4++ewWhf+P6svyHu4kypDdlqVF286enmfQi68ID2QFJhtrDDOTcHf/+jI6TCiTivAb1XX3DV+FnUH5Gwb/uOHuHs227buDlSZr3w4jRATXMgv91ZaVZPaxAwlxSOLNgMf7ku1LMZ4UBRt87HFLWHq3a1UA9Ai8FRQl35MKJi/XkHxYJvannuqtDa8T/37uuAZLoPUiV83oegBMfSSyS9MJ2RlmnbOjQ5NbXczOSR+txM+WBlSZWovkbbEornhm432DK4Ei/LZ8GNqJ1u4TAXgCo2dcolly3euWnTqV179doid0fzhO/0pmTomQuaxks0tQ/zkHWbJ/UyaPovaDoZNG1WVkCC5JOuOeucL4sLCtQZbnTbbakCVeXlmXu2biXeIzLBcPgJxm7/bVNftE2Lm97mKCIEfcoxFOnveEiJXWnPKxgQdB3XiLHJb/lUX31Su3IfMAv04OEYHQxQppuGCwKdEr3iz9ifkV1GWmqdGO2X1o88R0brqMsppUit7wHt2plhqluvE0VVGaaMOi+rbuLT5HyvdSid9bX2DJV1kmD9ua/QUhQ7kWtC09KGovLQd1aWoVCHmmOC8fFsJEHsmavxJOtw6b43vKaKDh3qgMLheJ4ZHoNcEJJb8oF9v/s92ySajI5PnGfQJGs5TI+BdQXaxwNNecp2KZTjpPNGfBdNDFAeP2kr5e9GJ8UIprJE0PjPe+++BxXopqLYjnTSay6d9L2STqhD3wkVUHnklePeoeDLKEuv2HJ9+iRdLt2A9CZK1+izCtKTaufGyJAjpIzD0TjogpFfRMhozA4jmJRuph2136j8t7oN+r3B7o5zeVUTA0qGD6DeUVTRxAS1XB8o6a3y0NozVDLJXOQTrLMXzrxeVp+z8hE0LQnCcEoPNyPXybglYJK9TDC6D2hzlAR4vDTpL7ZIplpFU211TWK0ZjBBqjSfy5kh0dzgvMhPiobe/fv/+N+9u/Po7TImJkbzdl/9xmshm5WyjRs2CoEhzFSYbD+MRqMuFiE2wmth9LBOCQi5NJBVqUHsW6QYzOYL/rtnV7OrQea8Mv2GF6fd/RKIFh80IxPcAjwMgh4HwfO+qml6rhZXNtkldMlxCo0VWKKKfT+PX1g1D9SnTU1rxQxVB+9um4I2wWiV/n7KwR3AfqDyCdkVgv+A+NBa4a9qnMJBUaMmCLAwzl+92msQKT2EbKv/wQTLzCyiWFaSoEYAbUkdamY4kVbWQVsaykG1AprEbRolTVK0H0sqjZaesPKSEt/eMcuHrAyQ65ohQ+kOFXf9h7Y7qhLhnspT09NLU9LTimljn0yAUzLwt/d3ZANIL0vNSC/pfvzx+V169fTTORsBC4Ym7cecfCp50UcdAyT6KIiAmk5kfXALbnvighHs7JSJiYllohIzOwZYhFJsUt8NWQzmkBUiFkAuGGQyti4rpXu4Ufz0GqUQs6r73V+Sqz+kEHKabFfEYRrIIShQzOy6vUGggcp+4x5/I5rusXrboggQLjFAWi6gf8UsiQlWM/IRxL1ZYmYemO0JarhIeBo90S0xYWGpGQZoinrpVk2TZNQUlXOF/KoZ8npnzQRllagv5Q8MKBJwZhfs3y/3Kd/xAW+vV9x4wzModIeZm5HKwhr0DrwR+4gyW7+ly0v7BX7DQMDriH/DggTbImMkVwEp+a2IWRFGoacy6IehLqtTPodkRqgz+6pVegLlKHRjCUsRXai20kcwPpRNo5hg0CHUKHhsLpg3MelQB9GnONyUPUP+G5ahTKLFJKemmZMEw2gd2hqlptZIE/lwtvSz02r/SkkwHFycblkSYeRTHQ9UNn7QGr8ltU5SSrKpTX2rwIWxnoOc+pXtI/VRZIuBGGxMbAyTfSEruMJBmqRBOjwH3frLJg+ve6R29D8cAmV5V8cTVeYdhKmVr0qbNOzlQcKr2VYj1G6vFur21IqhznYqssMnxgYZi2zSqrhMT5Ah8frTrKLPicS66+VBwUfQtqM8tQV1aKmZeWAlCZLTurpf7J+F47lkhjz7ZaWMynJD0p6g/XZbsgWVOjSao/1gTzBDhpL1YpMtOUV3Bek04xyprxfSWARHd+26vSXXBou+KbKMHxNsptRHdsbuCrLfa6dNo3UVIcQcxf5bFUGboH03NSPc+qdbmPhGqfDh99WCnG9Q/qSGlCytc9smSZIiulB80lKoUisV1qOxKt3KdxtrhZvfBn9RmbQSAxyOvcw4A6auSkkQWwulkIR9TJCZJJhmdk9Q9BO0dL8qJ0grgDbUbqyfS0aXFbNyAepQFQNh1lEzNqSmyd0QvZKg0jqUpTq0GafDvyswQbIijebDQSHXlARgTzDi6cGeIJOoIVYIxb7Ytx/NeO1muS4Zv+ipFaksMcK4ukZhc0MTvpRdgvz06DyteyxcKCTjVFF72cQGuyqYoNyvOiB3IuSan7bVCT/ipPyFyhBtcp0M7E+ea5ABUh3a85QPyiTxzf59vr8Rjsu2jyA1ZtowhpGfIIwrAlRqrUB1KLorK9d1a6QpmhMih8swxsqzTF3H0pvlUV277JDeSvX1YiFG2e244/I79+yxEY7I2Yg8k4XPTGRvyIZzpRyGKWyciWKSKoeGh1JRZVlZGn4jfZksVbPAmFkbFGOUWWMmGwIzIGnI53xcBJUo7a8ZOU6N8wh5MFr+qdYplKikyKaoLVhKqtVUUNYokGRH6ZkqazwCMcCNClUo9b230CM8Pl87+Ao97XvFuoW+4mPf2FKtg1pNIel6wPyXKjNJsMolCAnT3J4gYsmyuOc0I8a0AheJQMOYqFfxBjB2xupQeT15kDKvJiE5qTIxKbkqMZnOpKqEpORq2vZCzOVK+FY3Lvnk03FYf5afxxTsA3GeocyKiWwTfCMPNCrTtkOHA4PbtCuvra4mpmH1aLzzpRcmIgDuj+oGCCxiiJTYVvws9n5StveX7rrnRasdKuo51OrQeb/l99gOh+h13/8w8OPXXr/5j1279Ww/GAzDXBO/79x53PXnj1wqPdFltbeRRtTcSot7heJojY9MmtyIfVNKw0X9uQ80Oly9TGjnSGq8MLFR2NHgEP5X7whghlpEfLuxTqDT7EE8r1tMo9ArxiPAe8LUoVL1UmZ5nyqUGmKVQQLuTOb2BONFJmiSmkDS3fUNAXuCrUBqIncCP2y0jN9MLYQIKKymSdrPNfY2F2L8iEv67SPvvj0uEQwuAUxPDBZSGJrgq04f2AsBI06xAYujoqQ0HfWLIk0dauxVXoPy04cP+3LLuvX9oOtNx5mpsa+gMnb3b6TP6f1XaDFAKiX5OtK0+E0NItYnM2KCcJPwdxCW+iQrwLUX9TzetMVskMUREgMzCwr4CpCQY9esWDnYTD2WZRXEeEoUKkMzfXQDY6KT1KnbwQzJFUF2pTDTjlbZo12QOHF2xD1tZO9Pq40D/kY/bsk9xFe0mo11qNuidaispbAMlaZhjIe51MRs3RsmVG0Y47G4QIN32OI0NXj3BG0zQXqxQ+q9g4axRcG//uOaV5+46Za3zNRRls3Ozf2DJErx+W61kUir98Ts98fIY6I4fcQMSe+LMwOpiDLB9TPk7/TpvVZK17PovPr22x5/Y8l/TZHFKmQVdUrpnYJ1TmlTTA0sSOGXF34+FJN/ANHdkYqkTk4F401b4k0r402rQmlmxFQm+E1MFyOnlqlJWPXlV6ORuohCVAUP4MlisAbaQCRQ+R50UVAXUh1aZTYkGeaKDuseoQK3xj4wH2qT9uOKcOrpfUkVS76IJOm1A+Pz35+0/pygvuUDEZR+Vwedh3Wo7eDZaN815+VXbkWwiZ1Ihl1MJ/opSssUv5dIv5VARe/T88bGiWHT6CFiy/8ND1KtsGm2JUwZM6TQmXP+FWNnHT5woH3hgYMdCg/8eRQ+2xf++Wf7wwcOtkNoslxsRcj3lxj72MDS0yui5SxvCydlh6BpLmh6HzSBHtBy4E/6bAeackFTrkSTjCstajncpN64Q15XCxaSUZP1xe3tzYN4pP8zOzBkg5j7yn33P4XnfLbZun85e+iX9//79b+lZ2eVUN1WwwSVQMDHjiaeCBSJNHLMXPadkWJ+ZfAWzuIBJLZJeQiDDaDnSSeu+eGrJeebHqB/BXenY4/dAtXxn3ba2bJ+/b8RwPkBkrZpAeOUXV7km8HoTRFK6jeiEfBgDGnbNmw8SRqDQFITuULYPYiR9fLtLwYOhaRGcs4zq9q0Mi6le4ToGrFpo18zLDJIUIPSHos8d0qi6Tfx7wEZ2e40YpKZGYdvuXg03Vu2/cS0jCsaGTrLY73/ceaI8xcHw55emBH7sk0hMck/D7S/7+r/m4P9ogwrc6WsE6gONWjCrN+xBzTtM0hTLmhqB5o+AE05+k2HLhHgLK/h3mKhD0eXnj02ma1He4XPT5327oevzpiCuko/I/Xzh9au6KYXn5hY9X93Tn30qim3PCvxCLFbBo8Ms8NvPeWrKyuYOCoTImrrUCVKkg+XbfVHfIKY9sjWIZnnj7bVCKPK2JdNH96xcxGaE9/eaf8sz8S+oNVhGLFC1Wrbg7GJ4dINHiSRKiRQihTznfDhHL/aNdVsnOXRqHJg6kGKf9O+dXFhYRs6DZKgWyyIYQwLaUzsW8+NR3oYHkJROtcPz+vsyzOnO/gQBQI2vRn6PpqkaUO4aGJkGNPYpWdP05IgQX/lLTc9e2zfPuuRG7AaDA5nQhU945DerRKfNfi7OiExqYo+6TrN9bLbpwgTcCoPzgRtrHRIguSobJs50RBCMUErUfW1yMJiYHKD24CMaVWo7ErH9x+wcfvGjZRRgZzmHYKBEGRMB2GmMRIGjPNAMRKO4nCQe4S6O5baCDOksCpLGczVbaklDjt9uWJcZt14TMxQKC6oCqDN0E/QAk12IGyqq3aWD6G9MtphWlYmvXxgO6gRXmEGzbulxiERUxiy94z2FaxcJDFB5umDkJ25c2V5WRrprumthd5kaQ/C3eCOob/F3xC303dN/K0hzu1ucOG3OLE86sIpFPWoDfpOv1Fb9a53n3m2E4BlctO43cGNAbBA7M6zuM6U2ZRZNBgJbYAxrJGZIPbPmMxFeOgS03yZaloRL1ScP2XiZbkhWIcyU8mbGhyjwuQapH4AsoyuAqnJLBM0oorXpV7DRYLZniBo0tuiDniv0B2wfoGAfU4toyb9ZvxLwOK+7bmduhSAAdaf36V7cUZ29uHMNjmFGTk4s7MK8HlIPPE7BezPzMkpSKfv2dmFcfHx5k21NQYYSUyQyeIjGmGwkjT9vvsfubTPiTfgTy0avRYQ3kO9l6U1DnUZmSuZe6oFXyF1ahcJZdFQUqLRRQffm2okojNaPGrKYZ9srfDBnKswYCc9GUh6CpVRouUIM79UlE7yyByxXs4coaSBpXFWS2GDl0q6R30PdpYuEi6XaSZofqI0gAujs7wDNOnH2vMfU1hoYqQOFVXfpO3C3mx7Onfpp1AQn99nd+hYBkZZBCZJzPEgmCN9gmlmE9MkRkp/F+L3wsyc7CJK5KC1xsPFBOW4odS+erPdt9FODy7FoFwfvPTyHQiMfJvEoJTl5GKyEYbMvNQMi1KHO4a0bQ+ZwBEqMWeoRWFkwTDbs5AIixtzSr/fQLuSHjnmqnP5goWxQVOpG3xykQ8l2pcfNEqfPiP0GuyFaTElFsFekDwvTruLdIy++dDLKMF0hGYak2OHmqijlATJSV7OHKFsgpWfoIlhMS9KWpewMUHzUhOT+yGMTJD2Oc1Kt2GhqaHlAmiLfADBRDLohA91V51FKQot53fuduCT/LU91cyQORMk/7EB55+34J7pL/8TLgjpGGR6BSKfIHVFeiW5LSCFBf5O3w/n7/9+9DG9wSsP65FR0K/PVNHR9FBkfseGqUFY18cEU6yy2HSU2mA+32GCQ37JUb78BOnK//42klEijGMO2rTZOVTtB3q09gOpM0Z+gi0BiW9uJQtRSrYtHiwDaMe00J5gOCPGWKCJyfwGWIdGT+xQr+FcYWH7j2a8fj2+PqkEJCwPxV4nnfgr/NFkiyvNCSguKMxetnDRKCnKi6yeVKsog02eLCXK5q/EAGMg/TF542GyYsw10ojx12HwymelUhKmN2UW0ie9QVI7LNoyR2Hw0kbV4EoVtpJJ0u/yfovXOIaxhSgxJHJVIDG6An575CxHEyLnMMzEG0wufAND+yiaW5qqzBEOZeYIJZSwDmWSRYLVZFpoB9GS/H0FmapDzUtNFkjQqBIYO5TlnmCLSIKkZVNSKqlDzS1sNuhabcXxwcuv3A7XqhnIa+sLE6hmgrYJQsibun/cc/cjeqPE5udhOF0fD/+kyySVTjAGqByTzCSUZcXvC957f+KhP/bn6fUbodc9o66eMLNNh/Z/YHzq/UfhP3Pm/n3/7j16In9I0rLati245Nr/exmFCC81EzQy70bKaI0hqCozxIC16gSqvqUGfljy9QX/++XX0wg7oxkl9NYB+QLuqHcKeyXmp1WeHOqVBzHD42Cd2hURaPwP80YxGpkj8rXGwCqLhB4e4byuNrBgKQlGiuqwhWliMn0BmeXr6pE+OroOBEbJnjt9xo0Y9aPyyJlLgojnaNhihyJgYCDPs4BxzMn9KKBqtB6uiyb87e0TTjv1Fy0CJo+4cKhdJti+U94uvJw8HK0AhRr30i8WbJg2bvxnchmjGSW02qS668H8lJJY7x5xQh+ki++KhLopyf7vD/mba4UdCKJNiXWL4YW5CvL8T7gDjkMS3z6yu4ZJ1wgaV6jMEcpxI7M8M1/VllobagOLRoaplFqKCapjhYImqy+RAdNigSYWU+tQ0zT4gpGff/Hue9fs3737GBYdNFMbjrnTX70VzPAVREISLQWZM0FoJI2qt5jSTMGtmTbYzI3BVDxo9A2EVLM9T63RPUKeIvV+mZmMEnIbFHKNmJ+cYqltlksYf3GqcPqJCWB8wTVZxBzlgxjhkpVVwtffV4lt7W3wCGfEN0pqU+PPQFXmCHKS/1aZOcKPCVZWUoaTqD7UOQWZ+gm2kHUoVId+c9IaaerSq+fm0sNF/e+d8Pc5Py9dOjxaFiHUoVlghOQ5IEqDzPeG4O9h1nyXCXaID2o6hhyTjhk1AheJoE9aFn6CiJjQqhzllbB36Nx5tzIVEDJKmJoVYjpf1bhEBpiU4BAmjk0X3n26nTBsQHJIBqjuhBjibddkCq/c30Yg6ZFUs0tqXWLsUTOHWqWLAMPrtOpDgnKFWjdm+mzJssgp6Ocwz1Z16GqR51E4DWNaylleK9kx4m8WPT//0xFjJ1//DNaQbNHeIoKQiTUMaXDGLaVFxRlUx7aEoe4Ybv9MPLtNECTAAjUFPiMsaJENR7SeWuaeZGYIQOjQLevXnbhmxQrCTrknKC6mZ6bcblvKBRP0Wd/pDW1rfn5fqAvSVeXM0m9kX089FDP7h0p3GedrDz3yvw2rf+xPNyIyShh+uZMZIDGeLkfHCk9NzTbF+LSw7JYXh3baCJ8tqRDemFsqMsJh8W7D/ouqzBGCOnOE3CerXIJ66yHIddsZJOR2A9ShbEOMmTUisQiHf7VwplJqIXUopYfSfAZIGW/uWLZg4fKNP//cH0aPbeDv11YMsVdQmFOCT2mtKu9LpV2H0mWLCf56jYBnZH321sxr6fHKgnH49dcS6lDK7adgHnr0B7vuOePc4YuRpX47jHvctNCcLiflrHNjkuudTlcjRWqg35quu9yfvP7GTXu2butptVOpXsyLd97zHNifbPgjW3CKUXSw+GLtGr7CWb7KyBivPK1/PnJ19ZbLyiaqos0lRqc0WfV+l/4Pv2FuKMthXPNtvDnNZJT4vs4lSmysGKAS49HDUoSUJIfw3MwSkRGOBCM0EnRblTlitzpzhI8JstsPVBuaiVbXtGZgRYcsEukl+CxNhUUdZZVIyUgvxvfiWc+/eKciA4OR5aVZBv5maknQ7AtX0L4tMAwmUkwYJUGPBZosz42yop5Kd/CFFyxAeToDjprq6gSRMRYUtiWmSEHLwSRz/BlmQbuSwsPZ9Du8BhLRCGnHDL/QmiTSCb4hBhVnzwRbQBIsRSZ4kwBoFfcMu/SvlKLEP0KxTsM3XjjqEgZMEMwEjC7QUdC636Rq3BRBXQ8jLIqM4Ud36q1muD7RVPqifEKJ34kFgUPaZdQ64wv1YAy4ZiSjxF7ICGThSft/LCRArfGTSnXHnnrh828qhV+wTzgEe4R6h17mCLk+K8vQmx5/9GYEMd5ETE5mesTsxLBUhcHTvA1td9RkZCewraUIpyRIL7B6eIfjejid5UFTS0i3AZnlzeAm2STsRR06dQ+sq0QwylwwxZwiME8wTmKYYKIFuSRh/rJ02XDK/KHbUIgCCLQtPhOZM0HsCdoZl6W6lOndUkX/SvRmYLodkgoZ9E1NyPnZZCmQHuyyjp2MZmwBK4ZN0zloX80VG1uPfSZzKXJkMbFpvEZ9oqy+dSslFy9O3hQNvn6NZJT4td5b/LZrM22rQENBO35UqvDD2hphX5FbTN4bKguFKnMEqUIDMkfIfSGXIAvLUPc5l4z+tO1RR1EwYlNHTFysYUvwUA2HdU/Q/P1pdU36k6hSHTLd5zRPk6l5DVqYoYWr3oCSUlLoebVbOgOKT/nrZYvsMkHKNBEWJihn69UjkuX18uISUofaPsAETUuU2ANlwQQ91/3r3vuR3X4ViFDudYk0PTb5prf+2LWrux0C5beeUG1s27Chj2kGKDVIUuCkB/51D9w8vpd/0uhLVvcqL9l96Pg0tsBpJnAS/SlFaSpERgliRqQ2JTWo0sLTDsbB6pJ1KVmaklqUstd7k/dqH6pIMUKwSDFUm5Ek6CGpzwrdcXFsAhirrUNb2Fne7noUoQynJGhBHcpEvaylDs1f/ePpFL9WfO6jFwhBFLKSTg8Cd3k/vb/hb4eHrpPKCEyuHHkE9aOEBlmYleXlaVbWrLIOpVyiv9WSoO0FgGdhY21NTTwkD5JsmuUoKy4xLcFpDQxuFqYTTzKSBB2de/TYjCwBK7XGNe7U/raxNJJLcO3KVYPtTBiphSfcftsTdtqwU/ehidetkJigRy+jBDEjOkYPZyFM6Y+aXC3I8nRnjVMY4JcD1L+uKnOEG2tiRbDWWfgIxsbF1VCCUn0KAkugLhNVozqdEmWVsDIerToWGAaTrlUeEmKqICYN4yXZAk1M+qYdDzUND1w7cSb8BI/F76Y0VXjxOoz95LZ4furvD2gAV1nGgAlKW0Qs1aHEQD1gSDmDc3IrBmbmNCSnpZYnp6bhxKf4PbUsJS2tBN9Lk1LTyihZLL7TJ53lKelppSjv/Rtl6LeEpCRdNZ4VNaYmE5Q2Ss0sVrzl2H5xoP7cjY1B54KFnyAlltSjC0zwLL0yOtdN3Qg2+wqojtBia5BRYgIuOPQySlRKhm7kAN8cB0mD3TrFChu21IXMdKHKHJGvlTlCHi+L4Nl4GBULRQWWIIA6lA0TRGoyvwFoPGwtDRCV9BLQarTL5H4OkJpaliar8Cnr0Z5gQDtk4GKWAVIjFLll069r+uHrT1YGB0nQtn8sJdqlvlkyQXkPS8wcQelR4EiZgNNKFmrROo2Y6oD0LGKmxBwrKPr332679fHhl136kRI4hkzQtFoVbzJMNqlDpUvCG5Nt5mLERWLd99+fYWVBRkodyrSgHEuojBIyEyR3huY6crNjhA1CnTJbfEDXRjJHsGSCSGpaJOy0hkBsLBNJ0FOvYoJs1aFs7k+zCGm4SNi+h+UxWPATZCQJ+rtIwOIzfkibdlZVKZ4fv/mWHOwtMsEyq/36pjIcTJAaJ0sDFm9SNGmi1QIlvYV0mYAzl/7es3VrL/WClE1dzS5UdfmiQ6IJb05ichJJoIZUkJAEWTBBTygmyGJTnVROePtKI8laS42F/cDecI0w/RJgF3OW9Xv07ZuPdFE0H+LLXaiMErUsVinLwUvjVTTZSAmDQ3XBIqt8mhQ6ygopsfHxhu4RvbalVEq+Yh4PM9VhPXLv+aRV2qYpPSya4LfBy7n0eTiH/iaz/RL8tnzhIjb3QEDEGGY0NRikSbSolGhisl2kDqBdfOgQPZOtClKOH7/55jzU140zrbV+qsorbCeTxrMwPNahGDCTt44gN46norQsQ4MJmjZo0Wp/y/r1J5/fpdsBYuSnp2YIAKmSTuyZVCYCsHiY1CYmJVeBSdLv+EwuW7ty5Yl6N7mB64ikH9wiE1nnjVpbBu3qpbvvfR7nczQ/AzKy3Rh7BcyWqxLA8EFT5d1XTaBsBFYXtAESm6fISQMHrIRadwh6a4RxDN6+tbkdZYAgqetgYYOQm9M8ZB887H1fCqaAVWWOcEK9qxk0W0aShXUofBCLrc5MLBvrUNIa+UHCUBKMffLmW/59yQl9XcTksE2THubnUxMjF/1Wmw6GNDlB0xsSTW1Bk2wgEkzS1DJGszTlMMD2o6kILgtoyPKzaeNPP58+8Zzhy+l5K82LMgesbBmv3DOU+/fAICfBEhGKSrBbCY91qN2B6dR3IO5bwJsaJBw2b2/ezsVJJf03rJ7S6YTeO8xkiRJvUHUJpERWLxZiOxRqCzim04k/bfnaqICxtMnNElyEGFsrMUHRCT7YAadM8aB4n8OaiQnu3OdlgllBZlqVOaKEJNtQ2LCwDhX3BC0erAxjpHyCvlEwZBjQHNkOZGEJnTBahzpBU4A2LMQgWT07AixeyfndEjhSJZpnMLMzTbQhM0t6zthVL3tIwKG+1Q0xA8wEYaaKIilvAMNDDDg24r6pkTAt3ABGF4oJNo+oYp+kFlcySvuCxG3EtUyuEFpHN8ko7fs1zRNSdcmqSqGyqlE4GnkHgx2qzBEhVaHUBiRB2yohO0wwBj6l9pcMvZT55xNkof5nMS47bYQxYoydYdmqq6ZJYoLN+eIr8ye7DFDEQTYWjJaHq2/yIL1kqGdSCptma4JbuHLMEzfe/G/sZ70uPbzlyaYF1nBo//74MEdjYUL+4tkfXA0aROtMJg026TJFy2PpDNW0Z9q4K3GDOHwqmmAZJfKw8snVe/W6GqRCqhPCbSDz9Sqvca7MfNVEqDJHeJ3kv1wcEsaaqmrbCXWhDi2yOleIKMNkT1CdT5ClJGiVNtv1ApPqMnlw2x6XnQZUNJGKmeG9bmdkVup6sB0k3pRRNzHlJaIKz+9oBUyQnvA0F/RSIsfLk/+GdxkzpmJlsZitw4oBUr/UFp2EBeFC+IQ6sbfkUMpa7lAZJfoi5x8d5MQezmPW52Wi2jUDWcaI+WodGpkj1uuNCS4Sti3k0jIzLDNBqEOZRIwJSKXEMIC2Hobhun4kSILSnmDU8RBpzkkdKhrGRB0B0j6Wb+3W1dbGIdiq7TficN0MJtqlBwpNCp30hkJ/00mGjC2uZjRBB6ki6aRIOkZOubzyk9RswU65nHxdxEhxkn5TjuLjREaJoEPvhYgyuTCQ2bmvXnjuLctbYyGhITXo7C/KxTIDQsQNNZo5QtkZiywSdgxjoA5lwgQDMss3Y3guE+vaVNEAJsgwUbCpgTAsrKEOFS32o/TwyKEko04dij1BP0mwtKgo2vcDaQ15/nL20G97/+U0rbBpnvefe+EeMPum7K0RuupOHHD6ylMGD14iDS8Y99GTFIMxfK3flb/52kVKqqFrV35P0W8cehklhiCzw3+RS3AJEuHSMXFsGrM4osQAZSnzjDhKrht84jQyR5TqTTMDSZBCplnm/lCHMtlQbWhQW4eyy8Kuh2G4rgcaxrQKmvxWsF3DmHBhb7TdcLpIGB2DpXLIA5VOIYgQg058ADK2DLU0JgaVPKcOGfzNVVNupcSUAQei9U+NdCbYpn37fc9+8vEICmjAAA9bTfy6fPmyySMuXCo3EiqjRBzi/J2b0MQISW05BYlx7cQTrah0C8+9XSIGzaaDGGC3mNDCvNHMEUpg4CdoVwPisbMnGBMXx2JP0KORSinqNFSqBRuQcQHGPpZdCWzdDAwrB0qChUxc0xgO0XBTiCRUB02GqDGKusVGEwFG6Aueyip4tmH0wlPQCV/AoHORldv2z/B0y67V2559+oZIYIBEEdwk/PbTQrlKUHmZEZLl5sHDbuHOpwqFh145LO7jmTnI53D2F2XC1dMOiQwwGXuAw8Fg9RigRuaIb4z0C+tQu0zQYTV4No0vlpF1qIafYNQzDLVjeSsw9nEGOMt7Q6ZF5YFoMT4tRtSpQ4E4+QqSSlRUFx1/2qk/Xn3HbQ+9+8xzd4NBRiM94iKCi0TQsU9+6MGpd1151WeRutqQTHPekIsu/CJSxkdJaMf3H7Bu+8aNJxK0otN8iIwSMiM8C3t2lGOQ8v4RE6MzN9slSoV9esaJTvVJiQ7RkpSkvV2/e/3+iFnmb67zY5o9YxoFMrwhBqt3mMkcoWyr1r51qEcMm2bxgGGMubcE7X4c2BP0U/W3AheJxtyjj96nJLcV0OQBTXuVNCHSTtRKggh+4tNYRSXTwL5gBiZDnBAkmCSR9v5fli377oFrJn5gN8eUxeeB7Wpud0PQuThr1EXzb7ro4iU/ffvdMNsdMW4AKVFKbnvmqZuenDObccv2mkPIsXyJCTqU+216rZL1Zh4Y2I4Gh/A/ZJogyZD2C+U9w1D1KexJL2hYukGO8WaQ12eAVEqVOcITKnOEsn9kkaDs23YOD8KmWd4TjI1nwgSFBlW0pGiXmi6fdN0LZ18yep5yYloBTc+Dpk+VNP31H9e+9uGrM24zvNDtrFSGddt36rT9kXdmjl10KsXvDlSHRoUVIkKnBbhJ9Bs8eOl7P6zse/rwYaGdqxiCqdXU+FtveaRNhw67zXaDiDEhVUBTnn7qBuixLaW8MTsWM+Wve+Bf9yIh6x9m6jRHWYQc+1Xqx5dRwky/pMK8MLFRGJPYIAyOcwsk2ZElqfrsCqf7fpD4RkLtOTbJDelPZoDGe1NljtB1kpdbhnWoLXUo5XST90WMj7apJCNJUFCnUkLs0KjbppFRGTji/Hk3P/HYVDWeDOOhWpkqW3VA0+eg6Q51I0TneWPHvGOr8WauPHT0xXPfW7W83/Gn9pOfD9EXMQaYIX5ooK8gYZnVpk3B8/M+GXnT44/egptbN3UQa/x7nnTiT0iO+yAWxxQap4n2kS0puDqU2unc49itY66f9LKJNsNe9Lh+p6zG2+CMsHdkoQM4my9DNTmiiUfJaMw0R+pMkg5PjaP9vcaAcwAS5JKrRSjLT73+1Jkj9MrL12EdaiuxqJ39QBoDoywSFDvULw4kQ6mJ7kE5BqWZ+9HoFPiVQ5i7nx6a+ebftHLkMaSJ+lTSEla6QNMvoOlKLZrIOPHeGdMnnnHu8AWWAGvGSnCHqJz6wvPXPvb+u1dg3ftZXvup4Dp07rxNckaXo3Mo9Tn0XQZc/E4TW7B/f2c8wDWDmcbExpVnt8vdL2YTbjqUkT/kWHAC3QiHDx7MQ1t6Cd7qX3/o4SeuP3/k7WiS3hjF9kaMu2LmBVeNf4+6GXfjDS9uWrN2+RsPP/IoIscnkpRFOnnp00UBqclaC072uSWFh9tRE+I/38jou9c7j36nC+In1Fve3+XfqGdvWZir4nQ4obb8igqmpmeUlZeWBEisQebd+eXcjyaApgFiJ00SOn0Xb2LQ9ybUoo9+9dHHVxYdOnQ0WTfhrHcilVNMjMuNyPJuSrZJJ37Dd/odf+N3+W/5Ov3udLoaqYz8G7XlwjyJn952vJ8uJ7Utl0N/+Bu/UxtnX3LJh+qb4+F/Tpr159693aRxG13mejd1KPcItc5RnMUXp91NanJ5LdVj3y2OBhXuQ1wLBvYB5XFY3Q+k+mCClAfK714V5wYGK+TIHhMbUw9GRVZw9cj9VxcT4/u9DpaddZ2OOWbz55t/swwJ2lTuCSrva7826f4nn0JxHLG0luiTxoM1hjFmtW27X1lBK4O5lUF27N5ty7mXXzaL7nt6yaT7ngLVU8YWOmkLgn6T/o6BWjbGdw3PB5Rt+pvqN7hj8LYqPkfE+uJ173MFWcrLH5/9/hhI12I8SvXBkKbNEk00NpkmxTj9aHKRqllBk9OffqIBtHhpEtuQaAI2+jQRjZjHBqzDMTeNGr0o/4fVgyi1HD1vxGeO97MRz4xGF5434u9YC03XFd+d3jreMg6xjK8telaJ15y+dilbfdN1xXdfPZR10knPuZj6Cydc9Vb344//n9bcGNu0CLIC57wy/WY8bF4ItUAhFd1yxQ2TX9RbxM/dcedLH8147Ua9cqGuf7VvdyYZRRht45yj8iohVdpSKQXtS2ScOHyvDt4v8p/KNwqxmM6DMyU9vfzrP/baevM3iovVcgvfn3X1I5Mmv221fhjr1WY6PPEXQL0Z7oPej0zwQGET9h3JEEc+3l21vK9e4Gy5bFFBQQ69jHgZnsjgmMTyNIoR0hFlYQxtJOZGjK2eGC0xX3o4Wh3TpX1O3PL7zl2UrdzWcebIEZ89/eGcS2w1wqgyaNoMmnrYbQ40zQNNf7XbDq/fhIAtw5jU9HRdyzKUMbTx3r5T3g4TEyOrOWQ244R5fpEZBkgVkeW+AEywk4l+jRfFk9D3hqH6Iv9p5g0Eb5LN+oAzTmhTSczhLiv1dOoEU/fowqdgSE49Nwk24zYnBVKfqswRh40yQKoL9X8hm3FbayU9O4vuf91ngNnWGxs9TPYEm/ulIBSdrZEms/MaqeVtMUGoH9+HNJgtpTdSv2Y72+fl7ZJVlHoAkLSItgSpLS31mPph6KeqHXTByPl4gOh143f91f8sHDx3+oxbkVD2JFMVvYXVD2G1cBdUPRSiL7X6WewHfm+/jhw/7m2z9FmgyVYVWDUuI2lw2cJFY6R921BqTPW1YMxO+bsSH/n3YMywseTw4axdmzb3AVGi0RFllMhl8ngNAhMFBdFlzf51VZkj1n2z38+y3tZ8RGtlVu4ErGKbssCRIU0R/zLMAq/mbMMWE6SBgnm9wGrARtSmQfu6527Tw8Ae6B5UusV0xeaugGwCU55+srl7tdQfXnreRUU6W/zYv3t3JyQf3Y2BiKwvWEYJVgMlBbhC/tdtViNzxDK9zBG6jbaCAqyMSBDWrdmN44LBD5qYBACIJJpawVITSQjne3FrwYjTEaUI0EsO1OSHpeGHzCjBhEQzm4HoUCNzxDom44jyRlgxQVZ+jCzgbI00scAlEtrgTDASZoGPIWwIwFViudx4qIwSLAZgUhMqqDJHeDDWFSzGEe1tMFMdwjI2UrBojTRFCrZ2x2FbHWp3ALw+RyCcCCByzNoVixaPRh8uvYwSFMOzmE7s7VH+KllSUwa3DjZWWJ8KcXilpFTvKXCqJ9+MLMQiDbUHKUWyEX1v2nXsuMOsYVc4cWvJtlmpDmMZZblggUVrpIkFLpHQBmeCkTALfAxhQ4Cc5t96vGk/Vc4oQftxxNwo6S4xuxCMzusgqnOgDQ9lMTxIZdGueEgmDMQgKYxaHphiWzBIb0g1lPWWE/9DhJt8YdNGvW6OiOuspKY4RmHdWIDeGmligUsktMGZYCTMAh9D2BCAZW2+svHNbqeQD+ZkwmVClwFK7QctR30Vg0Huk5hjCkpS+DWFmR+pQr8TPpwTNhyiqWHJw9b2kGPj4lkE+LY9DmqgNdLEBJgIaIQzwQiYBD6E8CEgZZRYi2DaohsMpC+la0VIKe+kgQOWUh0wKPETh5aLhnjhzz17OyNSTh4+Ox3Yt6+rqqwfgaSWrfCOw9ce1Lbrw4dCdLXMzIgEUXIihfLWSFOkYGt3HJwJ2kWQ1494BKSMErIvqNoXs6H7CSesJyZEzA4O/3vg7yga06yGa4p4yJ8mKCX3jK35G/rAB7XvmhUrB+P7iciDmaNowo+hGs0cYWIIUVvUw8hZHu4EvpxxLQ0GaDKqUQg5VNAUMdJtS2PKqn/OBFkhyduJWAQQaGDm4g/mTJAG2AgjlN0UXIGYHvIgLli9ehU4Hs43XmNGg+SDSn6oFFz4EWp4y/r1fcAQBy1fuGj02pWrBuMn0XeMwnut5qpQH/bspKb4SJIEmTDBSFLxMrtZWrghzgRbeAJ49+FHgCS7X5cvH0TS2OALRn5BDGo+GaE0cwACKSQa7VG+guDt6cQQoULtNPLKcbMQDzL8QERJD63RiIQhTRHD2KNkOekOkzNBXYh4gdaAgKRuXCHcMDkiyMFeZakkJQqRMqaIAAaDYCUJUqYMTlOkIBC54+DO8pE7N3xkHIEjEgFmUlMEMUFK3cZiMuPi4vieIAsgFW1wJsgYUN4cR4AjYA8BVpIgnOUjhmG0RprszXLk1OZMMHLmgo+EI8ARAAKsEtBGlHWoh1uHRuri5kwwUmeGj4sjcIQiwEodSkl9IwVCVurQSKIpUrC1Ow7OBO0iyOtzBDgCTBFgpTqEJBhJhjFs9gQjSMXLdNJbsDFuHdqC4POuOQIcgUAE7KpD0zIzijp2774pIyenIFLwZUDT4UijKVKwtTsOJg6cdgfB63MEOAIcARmB/inpcmi7oKDEJyZWHd216/a8Y7pvyeveDWf3rWAS2zodc8yW9Oys4khD0wZNW0HT1kikKdIwtjoezgStIsfrcQQ4AswRaGhocA3MyKa9PIfL5apDGLvdYG5bweSI0W3peEy37fjc1vaoo/5wOhGFPAoOiaYGGqpE0x6Jps0i8z6m27ZooykKYOdD5AhwBDgC0YkA8j+O3L1l67H1dXWUlrFVHKBpRGujqVVMDCeCI8AR4AhwBDgCHAGOAEeAI8AR4AhwBI5ABP4f4hbSFRrjy9cAAAAASUVORK5CYII=;" vertex="1" parent="1">
          <mxGeometry x="33.88" y="90" width="130.56" height="41" as="geometry" />
        </mxCell>
        <mxCell id="jyW5bUk0xT6YDR4Nz-Qm-9" style="edgeStyle=orthogonalEdgeStyle;rounded=0;orthogonalLoop=1;jettySize=auto;html=1;" edge="1" parent="1" source="jyW5bUk0xT6YDR4Nz-Qm-4" target="jyW5bUk0xT6YDR4Nz-Qm-5">
          <mxGeometry relative="1" as="geometry" />
        </mxCell>
        <mxCell id="jyW5bUk0xT6YDR4Nz-Qm-11" style="edgeStyle=orthogonalEdgeStyle;rounded=0;orthogonalLoop=1;jettySize=auto;html=1;" edge="1" parent="1" source="jyW5bUk0xT6YDR4Nz-Qm-4">
          <mxGeometry relative="1" as="geometry">
            <mxPoint x="410" y="180" as="targetPoint" />
            <Array as="points">
              <mxPoint x="430" y="140" />
              <mxPoint x="430" y="180" />
            </Array>
          </mxGeometry>
        </mxCell>
        <mxCell id="jyW5bUk0xT6YDR4Nz-Qm-4" value="" style="shape=image;verticalLabelPosition=bottom;labelBackgroundColor=#ffffff;verticalAlign=top;aspect=fixed;imageAspect=0;image=https://res.cloudinary.com/practicaldev/image/fetch/s--wRMdL8Hi--/c_imagga_scale,f_auto,fl_progressive,h_900,q_auto,w_1600/https://dev-to-uploads.s3.amazonaws.com/i/5wv3jwohdhckevgdejku.png;" vertex="1" parent="1">
          <mxGeometry x="490" y="133.94" width="106.48" height="60" as="geometry" />
        </mxCell>
        <mxCell id="jyW5bUk0xT6YDR4Nz-Qm-10" style="edgeStyle=orthogonalEdgeStyle;rounded=0;orthogonalLoop=1;jettySize=auto;html=1;" edge="1" parent="1" source="jyW5bUk0xT6YDR4Nz-Qm-5" target="jyW5bUk0xT6YDR4Nz-Qm-4">
          <mxGeometry relative="1" as="geometry">
            <Array as="points">
              <mxPoint x="638" y="180" />
              <mxPoint x="638" y="180" />
            </Array>
          </mxGeometry>
        </mxCell>
        <mxCell id="jyW5bUk0xT6YDR4Nz-Qm-5" value="" style="shape=image;verticalLabelPosition=bottom;labelBackgroundColor=#ffffff;verticalAlign=top;aspect=fixed;imageAspect=0;image=https://www.freepnglogos.com/uploads/logo-mysql-png/logo-mysql-mysql-logo-png-images-are-download-crazypng-6.png;" vertex="1" parent="1">
          <mxGeometry x="680" y="136.97" width="150" height="53.94" as="geometry" />
        </mxCell>
        <mxCell id="jyW5bUk0xT6YDR4Nz-Qm-8" style="edgeStyle=orthogonalEdgeStyle;rounded=0;orthogonalLoop=1;jettySize=auto;html=1;entryX=-0.028;entryY=0.384;entryDx=0;entryDy=0;entryPerimeter=0;" edge="1" parent="1" source="jyW5bUk0xT6YDR4Nz-Qm-6" target="jyW5bUk0xT6YDR4Nz-Qm-4">
          <mxGeometry relative="1" as="geometry" />
        </mxCell>
        <mxCell id="jyW5bUk0xT6YDR4Nz-Qm-12" style="edgeStyle=orthogonalEdgeStyle;rounded=0;orthogonalLoop=1;jettySize=auto;html=1;" edge="1" parent="1" source="jyW5bUk0xT6YDR4Nz-Qm-6" target="jyW5bUk0xT6YDR4Nz-Qm-2">
          <mxGeometry relative="1" as="geometry">
            <Array as="points">
              <mxPoint x="360" y="110" />
            </Array>
          </mxGeometry>
        </mxCell>
        <mxCell id="jyW5bUk0xT6YDR4Nz-Qm-14" style="edgeStyle=orthogonalEdgeStyle;rounded=0;orthogonalLoop=1;jettySize=auto;html=1;" edge="1" parent="1" source="jyW5bUk0xT6YDR4Nz-Qm-6" target="jyW5bUk0xT6YDR4Nz-Qm-1">
          <mxGeometry relative="1" as="geometry">
            <Array as="points">
              <mxPoint x="180" y="180" />
              <mxPoint x="180" y="240" />
            </Array>
          </mxGeometry>
        </mxCell>
        <mxCell id="jyW5bUk0xT6YDR4Nz-Qm-16" style="edgeStyle=orthogonalEdgeStyle;rounded=0;orthogonalLoop=1;jettySize=auto;html=1;" edge="1" parent="1" source="jyW5bUk0xT6YDR4Nz-Qm-6" target="jyW5bUk0xT6YDR4Nz-Qm-15">
          <mxGeometry relative="1" as="geometry">
            <Array as="points">
              <mxPoint x="346" y="296" />
            </Array>
          </mxGeometry>
        </mxCell>
        <mxCell id="jyW5bUk0xT6YDR4Nz-Qm-6" value="Backend" style="shape=image;verticalLabelPosition=bottom;labelBackgroundColor=#ffffff;verticalAlign=top;aspect=fixed;imageAspect=0;image=https://cloudbackend.com/assets/img/solution-3.png;" vertex="1" parent="1">
          <mxGeometry x="290" y="140" width="112" height="112" as="geometry" />
        </mxCell>
        <mxCell id="jyW5bUk0xT6YDR4Nz-Qm-17" style="edgeStyle=orthogonalEdgeStyle;rounded=0;orthogonalLoop=1;jettySize=auto;html=1;" edge="1" parent="1" source="jyW5bUk0xT6YDR4Nz-Qm-15" target="jyW5bUk0xT6YDR4Nz-Qm-6">
          <mxGeometry relative="1" as="geometry">
            <Array as="points">
              <mxPoint x="320" y="320" />
            </Array>
          </mxGeometry>
        </mxCell>
        <mxCell id="jyW5bUk0xT6YDR4Nz-Qm-19" style="edgeStyle=orthogonalEdgeStyle;rounded=0;orthogonalLoop=1;jettySize=auto;html=1;" edge="1" parent="1" source="jyW5bUk0xT6YDR4Nz-Qm-15" target="jyW5bUk0xT6YDR4Nz-Qm-18">
          <mxGeometry relative="1" as="geometry">
            <Array as="points">
              <mxPoint x="620" y="283" />
              <mxPoint x="620" y="283" />
            </Array>
          </mxGeometry>
        </mxCell>
        <mxCell id="jyW5bUk0xT6YDR4Nz-Qm-15" value="Backend&#xa;Third Party&#xa;Rumah Mukan&#xa;" style="shape=image;verticalLabelPosition=bottom;labelBackgroundColor=#ffffff;verticalAlign=top;aspect=fixed;imageAspect=0;image=https://cloudbackend.com/assets/img/solution-3.png;" vertex="1" parent="1">
          <mxGeometry x="487.24" y="240" width="112" height="112" as="geometry" />
        </mxCell>
        <mxCell id="jyW5bUk0xT6YDR4Nz-Qm-20" style="edgeStyle=orthogonalEdgeStyle;rounded=0;orthogonalLoop=1;jettySize=auto;html=1;" edge="1" parent="1" source="jyW5bUk0xT6YDR4Nz-Qm-18" target="jyW5bUk0xT6YDR4Nz-Qm-15">
          <mxGeometry relative="1" as="geometry">
            <Array as="points">
              <mxPoint x="660" y="296" />
              <mxPoint x="660" y="296" />
            </Array>
          </mxGeometry>
        </mxCell>
        <mxCell id="jyW5bUk0xT6YDR4Nz-Qm-18" value="" style="shape=image;verticalLabelPosition=bottom;labelBackgroundColor=#ffffff;verticalAlign=top;aspect=fixed;imageAspect=0;image=https://www.freepnglogos.com/uploads/logo-mysql-png/logo-mysql-mysql-logo-png-images-are-download-crazypng-6.png;" vertex="1" parent="1">
          <mxGeometry x="680" y="256.06" width="150" height="53.94" as="geometry" />
        </mxCell>
      </root>
    </mxGraphModel>
  </diagram>
</mxfile>
